Bungee_Color-Regular.ufo
<glyph name="exclam" format="2">
  <advance width="424"/>
  <unicode hex="0021"/>
  <outline>
    <contour>
      <point x="304" y="0" type="line" smooth="yes"/>
      <point x="329" y="0"/>
      <point x="340" y="11"/>
      <point x="340" y="36" type="curve" smooth="yes"/>
      <point x="340" y="167" type="line" smooth="yes"/>
      <point x="340" y="193"/>
      <point x="329" y="203"/>
      <point x="304" y="203" type="curve" smooth="yes"/>
      <point x="120" y="203" type="line" smooth="yes"/>
      <point x="95" y="203"/>
      <point x="84" y="193"/>
      <point x="84" y="167" type="curve"/>
      <point x="84" y="36" type="line"/>
      <point x="84" y="11"/>
      <point x="95" y="0"/>
      <point x="120" y="0" type="curve" smooth="yes"/>
    </contour>
    <contour>
      <point x="289" y="262" type="line" smooth="yes"/>
      <point x="314" y="262"/>
      <point x="326" y="273"/>
      <point x="327" y="298" type="curve" smooth="yes"/>
      <point x="341" y="684" type="line" smooth="yes"/>
      <point x="342" y="709"/>
      <point x="332" y="720"/>
      <point x="307" y="720" type="curve" smooth="yes"/>
      <point x="116" y="720" type="line" smooth="yes"/>
      <point x="91" y="720"/>
      <point x="81" y="709"/>
      <point x="82" y="684" type="curve" smooth="yes"/>
      <point x="97" y="298" type="line" smooth="yes"/>
      <point x="98" y="273"/>
      <point x="109" y="262"/>
      <point x="134" y="262" type="curve" smooth="yes"/>
    </contour>
  </outline>
</glyph>
<glyph name="quotedbl" format="2">
  <advance width="646"/>
  <unicode hex="0022"/>
  <outline>
    <contour>
      <point x="240" y="345" type="line" smooth="yes"/>
      <point x="275" y="345"/>
      <point x="280" y="351"/>
      <point x="282" y="386" type="curve"/>
      <point x="290" y="679" type="line" smooth="yes"/>
      <point x="291" y="714"/>
      <point x="285" y="720"/>
      <point x="251" y="720" type="curve" smooth="yes"/>
      <point x="86" y="720" type="line" smooth="yes"/>
      <point x="51" y="720"/>
      <point x="45" y="714"/>
      <point x="46" y="679" type="curve" smooth="yes"/>
      <point x="54" y="386" type="line" smooth="yes"/>
      <point x="55" y="351"/>
      <point x="61" y="345"/>
      <point x="96" y="345" type="curve" smooth="yes"/>
    </contour>
    <contour>
      <point x="550" y="345" type="line" smooth="yes"/>
      <point x="585" y="345"/>
      <point x="590" y="351"/>
      <point x="592" y="386" type="curve"/>
      <point x="600" y="679" type="line" smooth="yes"/>
      <point x="601" y="714"/>
      <point x="595" y="720"/>
      <point x="561" y="720" type="curve" smooth="yes"/>
      <point x="396" y="720" type="line" smooth="yes"/>
      <point x="361" y="720"/>
      <point x="355" y="714"/>
      <point x="356" y="679" type="curve" smooth="yes"/>
      <point x="364" y="386" type="line" smooth="yes"/>
      <point x="365" y="351"/>
      <point x="371" y="345"/>
      <point x="406" y="345" type="curve" smooth="yes"/>
    </contour>
  </outline>
</glyph>
<glyph name="numbersign" format="1">
  <advance width="750"/>
  <unicode hex="0023"/>
  <outline>
    <contour>
      <point x="95" y="36" type="line"/>
      <point x="92" y="11"/>
      <point x="106" y="0"/>
      <point x="131" y="0" type="curve" smooth="yes"/>
      <point x="236" y="0" type="line" smooth="yes"/>
      <point x="261" y="0"/>
      <point x="269" y="11"/>
      <point x="272" y="36" type="curve" smooth="yes"/>
      <point x="365" y="684" type="line" smooth="yes"/>
      <point x="368" y="709"/>
      <point x="354" y="720"/>
      <point x="329" y="720" type="curve" smooth="yes"/>
      <point x="224" y="720" type="line" smooth="yes"/>
      <point x="199" y="720"/>
      <point x="191" y="709"/>
      <point x="188" y="684" type="curve" smooth="yes"/>
    </contour>
    <contour>
      <point x="385" y="36" type="line" smooth="yes"/>
      <point x="382" y="11"/>
      <point x="396" y="0"/>
      <point x="421" y="0" type="curve" smooth="yes"/>
      <point x="526" y="0" type="line" smooth="yes"/>
      <point x="551" y="0"/>
      <point x="559" y="11"/>
      <point x="562" y="36" type="curve" smooth="yes"/>
      <point x="655" y="684" type="line" smooth="yes"/>
      <point x="658" y="709"/>
      <point x="644" y="720"/>
      <point x="619" y="720" type="curve" smooth="yes"/>
      <point x="514" y="720" type="line" smooth="yes"/>
      <point x="489" y="720"/>
      <point x="481" y="709"/>
      <point x="478" y="684" type="curve" smooth="yes"/>
    </contour>
    <contour>
      <point x="71" y="135" type="curve"/>
      <point x="643" y="135" type="line" smooth="yes"/>
      <point x="668" y="135"/>
      <point x="679" y="145"/>
      <point x="679" y="171" type="curve" smooth="yes"/>
      <point x="679" y="278" type="line" smooth="yes"/>
      <point x="679" y="304"/>
      <point x="668" y="314"/>
      <point x="643" y="314" type="curve" smooth="yes"/>
      <point x="71" y="314" type="line" smooth="yes"/>
      <point x="46" y="314"/>
      <point x="35" y="303"/>
      <point x="35" y="278" type="curve" smooth="yes"/>
      <point x="35" y="171" type="line" smooth="yes"/>
      <point x="35" y="145"/>
      <point x="46" y="135"/>
    </contour>
    <contour>
      <point x="107" y="411" type="curve"/>
      <point x="679" y="411" type="line" smooth="yes"/>
      <point x="704" y="411"/>
      <point x="715" y="421"/>
      <point x="715" y="447" type="curve" smooth="yes"/>
      <point x="715" y="554" type="line" smooth="yes"/>
      <point x="715" y="580"/>
      <point x="704" y="590"/>
      <point x="679" y="590" type="curve" smooth="yes"/>
      <point x="107" y="590" type="line" smooth="yes"/>
      <point x="82" y="590"/>
      <point x="71" y="579"/>
      <point x="71" y="554" type="curve" smooth="yes"/>
      <point x="71" y="447" type="line" smooth="yes"/>
      <point x="71" y="421"/>
      <point x="82" y="411"/>
    </contour>
  </outline>
</glyph>
<glyph name="ampersand" format="2">
  <advance width="766"/>
  <unicode hex="0026"/>
  <outline>
    <contour>
      <point x="296" y="187" type="line" smooth="yes"/>
      <point x="264" y="187"/>
      <point x="258" y="201"/>
      <point x="258" y="217" type="curve" smooth="yes"/>
      <point x="258" y="248" type="line" smooth="yes"/>
      <point x="258" y="264"/>
      <point x="264" y="277"/>
      <point x="296" y="277" type="curve" smooth="yes"/>
      <point x="376" y="277" type="line" smooth="yes"/>
      <point x="401" y="277"/>
      <point x="412" y="288"/>
      <point x="412" y="313" type="curve" smooth="yes"/>
      <point x="412" y="416" type="line" smooth="yes"/>
      <point x="412" y="441"/>
      <point x="401" y="452"/>
      <point x="376" y="452" type="curve" smooth="yes"/>
      <point x="361" y="452" type="line" smooth="yes"/>
      <point x="329" y="452"/>
      <point x="323" y="466"/>
      <point x="323" y="482" type="curve" smooth="yes"/>
      <point x="323" y="503" type="line" smooth="yes"/>
      <point x="323" y="519"/>
      <point x="329" y="533"/>
      <point x="361" y="533" type="curve" smooth="yes"/>
      <point x="507" y="533" type="line" smooth="yes"/>
      <point x="532" y="533"/>
      <point x="543" y="544"/>
      <point x="543" y="569" type="curve" smooth="yes"/>
      <point x="543" y="684" type="line" smooth="yes"/>
      <point x="543" y="709"/>
      <point x="532" y="720"/>
      <point x="507" y="720" type="curve" smooth="yes"/>
      <point x="296" y="720" type="line" smooth="yes"/>
      <point x="160" y="720"/>
      <point x="104" y="655"/>
      <point x="104" y="567" type="curve" smooth="yes"/>
      <point x="104" y="519" type="line" smooth="yes"/>
      <point x="104" y="468"/>
      <point x="119" y="430"/>
      <point x="163" y="411" type="curve"/>
      <point x="91" y="404"/>
      <point x="37" y="350"/>
      <point x="37" y="256" type="curve" smooth="yes"/>
      <point x="37" y="176" type="line" smooth="yes"/>
      <point x="37" y="69"/>
      <point x="103" y="0"/>
      <point x="226" y="0" type="curve" smooth="yes"/>
      <point x="504" y="0" type="line" smooth="yes"/>
      <point x="620" y="0"/>
      <point x="683" y="69"/>
      <point x="683" y="176" type="curve" smooth="yes"/>
      <point x="683" y="221" type="line"/>
      <point x="706" y="221" type="line" smooth="yes"/>
      <point x="731" y="221"/>
      <point x="742" y="232"/>
      <point x="742" y="257" type="curve" smooth="yes"/>
      <point x="742" y="365" type="line" smooth="yes"/>
      <point x="742" y="391"/>
      <point x="731" y="401"/>
      <point x="706" y="401" type="curve" smooth="yes"/>
      <point x="512" y="401" type="line" smooth="yes"/>
      <point x="487" y="401"/>
      <point x="476" y="390"/>
      <point x="476" y="365" type="curve" smooth="yes"/>
      <point x="476" y="227" type="line" smooth="yes"/>
      <point x="476" y="200"/>
      <point x="467" y="187"/>
      <point x="438" y="187" type="curve" smooth="yes"/>
    </contour>
  </outline>
</glyph>
<glyph name="asterisk" format="1">
  <advance width="718"/>
  <unicode hex="002A"/>
  <outline>
    <contour>
      <point x="286" y="165" type="curve" smooth="yes"/>
      <point x="359" y="306" type="line"/>
      <point x="433" y="165" type="line" smooth="yes"/>
      <point x="449" y="137"/>
      <point x="456" y="134"/>
      <point x="485" y="153" type="curve" smooth="yes"/>
      <point x="579" y="221" type="line" smooth="yes"/>
      <point x="607" y="241"/>
      <point x="608" y="250"/>
      <point x="585" y="275" type="curve" smooth="yes"/>
      <point x="475" y="390" type="line"/>
      <point x="628" y="415" type="line" smooth="yes"/>
      <point x="662" y="421"/>
      <point x="667" y="428"/>
      <point x="656" y="461" type="curve" smooth="yes"/>
      <point x="619" y="572" type="line" smooth="yes"/>
      <point x="608" y="605"/>
      <point x="600" y="609"/>
      <point x="570" y="594" type="curve" smooth="yes"/>
      <point x="433" y="530" type="line"/>
      <point x="453" y="679" type="line" smooth="yes"/>
      <point x="459" y="713"/>
      <point x="453" y="720"/>
      <point x="419" y="720" type="curve" smooth="yes"/>
      <point x="302" y="720" type="line" smooth="yes"/>
      <point x="268" y="720"/>
      <point x="261" y="713"/>
      <point x="266" y="679" type="curve" smooth="yes"/>
      <point x="289" y="530" type="line"/>
      <point x="147" y="594" type="line" smooth="yes"/>
      <point x="117" y="609"/>
      <point x="108" y="605"/>
      <point x="98" y="572" type="curve" smooth="yes"/>
      <point x="62" y="461" type="line" smooth="yes"/>
      <point x="51" y="428"/>
      <point x="56" y="421"/>
      <point x="90" y="415" type="curve" smooth="yes"/>
      <point x="242" y="390" type="line"/>
      <point x="133" y="275" type="line" smooth="yes"/>
      <point x="110" y="250"/>
      <point x="111" y="241"/>
      <point x="139" y="221" type="curve" smooth="yes"/>
      <point x="233" y="153" type="line"/>
      <point x="262" y="134"/>
      <point x="270" y="137"/>
    </contour>
  </outline>
</glyph>
<glyph name="plus" format="1">
  <advance width="734"/>
  <unicode hex="002B"/>
  <outline>
    <contour>
      <point x="106" y="267" type="curve"/>
      <point x="628" y="267" type="line" smooth="yes"/>
      <point x="653" y="267"/>
      <point x="664" y="277"/>
      <point x="664" y="303" type="curve" smooth="yes"/>
      <point x="664" y="417" type="line" smooth="yes"/>
      <point x="664" y="443"/>
      <point x="653" y="453"/>
      <point x="628" y="453" type="curve" smooth="yes"/>
      <point x="106" y="453" type="line" smooth="yes"/>
      <point x="81" y="453"/>
      <point x="70" y="442"/>
      <point x="70" y="417" type="curve" smooth="yes"/>
      <point x="70" y="303" type="line" smooth="yes"/>
      <point x="70" y="277"/>
      <point x="81" y="267"/>
    </contour>
    <contour>
      <point x="269" y="621" type="curve"/>
      <point x="269" y="99" type="line" smooth="yes"/>
      <point x="269" y="74"/>
      <point x="279" y="63"/>
      <point x="305" y="63" type="curve" smooth="yes"/>
      <point x="429" y="63" type="line" smooth="yes"/>
      <point x="455" y="63"/>
      <point x="465" y="74"/>
      <point x="465" y="99" type="curve" smooth="yes"/>
      <point x="465" y="621" type="line" smooth="yes"/>
      <point x="465" y="646"/>
      <point x="454" y="657"/>
      <point x="429" y="657" type="curve" smooth="yes"/>
      <point x="305" y="657" type="line" smooth="yes"/>
      <point x="279" y="657"/>
      <point x="269" y="646"/>
    </contour>
  </outline>
</glyph>
<glyph name="period" format="1">
  <advance width="384"/>
  <unicode hex="002E"/>
  <outline>
    <contour>
      <point x="293.0" y="0.0" type="line" smooth="yes"/>
      <point x="318.0" y="0.0"/>
      <point x="329.0" y="11.0"/>
      <point x="329.0" y="36.0" type="curve" smooth="yes"/>
      <point x="329.0" y="239.0" type="line" smooth="yes"/>
      <point x="329.0" y="265.0"/>
      <point x="318.0" y="275.0"/>
      <point x="293.0" y="275.0" type="curve" smooth="yes"/>
      <point x="91.0" y="275.0" type="line" smooth="yes"/>
      <point x="66.0" y="275.0"/>
      <point x="55.0" y="265.0"/>
      <point x="55.0" y="239.0" type="curve"/>
      <point x="55.0" y="36.0" type="line"/>
      <point x="55.0" y="11.0"/>
      <point x="66.0" y="0.0"/>
      <point x="91.0" y="0.0" type="curve" smooth="yes"/>
    </contour>
  </outline>
</glyph>
<glyph name="slash" format="1">
  <advance width="347"/>
  <unicode hex="002F"/>
  <outline>
    <contour>
      <point x="5" y="-54" type="line"/>
      <point x="2" y="-79"/>
      <point x="16" y="-90"/>
      <point x="41" y="-90" type="curve" smooth="yes"/>
      <point x="186" y="-90" type="line" smooth="yes"/>
      <point x="211" y="-90"/>
      <point x="219" y="-79"/>
      <point x="222" y="-54" type="curve" smooth="yes"/>
      <point x="342" y="774" type="line" smooth="yes"/>
      <point x="345" y="799"/>
      <point x="331" y="810"/>
      <point x="306" y="810" type="curve" smooth="yes"/>
      <point x="161" y="810" type="line" smooth="yes"/>
      <point x="136" y="810"/>
      <point x="128" y="799"/>
      <point x="125" y="774" type="curve" smooth="yes"/>
    </contour>
  </outline>
</glyph>
<glyph name="one" format="2">
  <advance width="601"/>
  <unicode hex="0031"/>
  <outline>
    <contour>
      <point x="526" y="0" type="line" smooth="yes"/>
      <point x="551" y="0"/>
      <point x="562" y="11"/>
      <point x="562" y="36" type="curve"/>
      <point x="562" y="157" type="line" smooth="yes"/>
      <point x="562" y="182"/>
      <point x="551" y="193"/>
      <point x="526" y="193" type="curve"/>
      <point x="430" y="193" type="line"/>
      <point x="430" y="684" type="line" smooth="yes"/>
      <point x="430" y="709"/>
      <point x="419" y="720"/>
      <point x="394" y="720" type="curve" smooth="yes"/>
      <point x="104" y="720" type="line" smooth="yes"/>
      <point x="79" y="720"/>
      <point x="68" y="709"/>
      <point x="68" y="684" type="curve" smooth="yes"/>
      <point x="68" y="563" type="line" smooth="yes"/>
      <point x="68" y="538"/>
      <point x="79" y="527"/>
      <point x="104" y="527" type="curve" smooth="yes"/>
      <point x="196" y="527" type="line"/>
      <point x="196" y="193" type="line"/>
      <point x="84" y="193" type="line" smooth="yes"/>
      <point x="59" y="193"/>
      <point x="48" y="182"/>
      <point x="48" y="157" type="curve"/>
      <point x="48" y="36" type="line"/>
      <point x="48" y="11"/>
      <point x="59" y="0"/>
      <point x="84" y="0" type="curve" smooth="yes"/>
    </contour>
  </outline>
</glyph>
<glyph name="three" format="1">
  <advance width="637"/>
  <unicode hex="0033"/>
  <outline>
    <contour>
      <point x="85" y="189" type="line" smooth="yes"/>
      <point x="60" y="189"/>
      <point x="49" y="178"/>
      <point x="49" y="153" type="curve" smooth="yes"/>
      <point x="49" y="36" type="line" smooth="yes"/>
      <point x="49" y="11"/>
      <point x="60" y="0"/>
      <point x="85" y="0" type="curve" smooth="yes"/>
      <point x="401" y="0" type="line" smooth="yes"/>
      <point x="529" y="0"/>
      <point x="595" y="63"/>
      <point x="595" y="166" type="curve" smooth="yes"/>
      <point x="595" y="266" type="line" smooth="yes"/>
      <point x="595" y="354"/>
      <point x="564" y="400"/>
      <point x="469" y="411" type="curve"/>
      <point x="513" y="430"/>
      <point x="528" y="468"/>
      <point x="528" y="519" type="curve" smooth="yes"/>
      <point x="528" y="577" type="line" smooth="yes"/>
      <point x="528" y="665"/>
      <point x="475" y="720"/>
      <point x="364" y="720" type="curve" smooth="yes"/>
      <point x="85" y="720" type="line" smooth="yes"/>
      <point x="60" y="720"/>
      <point x="49" y="709"/>
      <point x="49" y="684" type="curve" smooth="yes"/>
      <point x="49" y="565" type="line" smooth="yes"/>
      <point x="49" y="540"/>
      <point x="60" y="529"/>
      <point x="85" y="529" type="curve" smooth="yes"/>
      <point x="271" y="529" type="line" smooth="yes"/>
      <point x="303" y="529"/>
      <point x="309" y="515"/>
      <point x="309" y="499" type="curve" smooth="yes"/>
      <point x="309" y="484" type="line" smooth="yes"/>
      <point x="309" y="468"/>
      <point x="303" y="454"/>
      <point x="271" y="454" type="curve" smooth="yes"/>
      <point x="166" y="454" type="line" smooth="yes"/>
      <point x="141" y="454"/>
      <point x="130" y="443"/>
      <point x="130" y="418" type="curve" smooth="yes"/>
      <point x="130" y="311" type="line" smooth="yes"/>
      <point x="130" y="286"/>
      <point x="141" y="275"/>
      <point x="166" y="275" type="curve" smooth="yes"/>
      <point x="336" y="275" type="line" smooth="yes"/>
      <point x="368" y="275"/>
      <point x="374" y="262"/>
      <point x="374" y="246" type="curve" smooth="yes"/>
      <point x="374" y="219" type="line" smooth="yes"/>
      <point x="374" y="203"/>
      <point x="368" y="189"/>
      <point x="336" y="189" type="curve" smooth="yes"/>
    </contour>
  </outline>
</glyph>
<glyph name="four" format="1">
  <advance width="709"/>
  <unicode hex="0034"/>
  <outline>
    <contour>
      <point x="414" y="167" type="line"/>
      <point x="414" y="36" type="line" smooth="yes"/>
      <point x="414" y="11"/>
      <point x="425" y="0"/>
      <point x="450" y="0" type="curve" smooth="yes"/>
      <point x="604" y="0" type="line" smooth="yes"/>
      <point x="629" y="0"/>
      <point x="640" y="11"/>
      <point x="640" y="36" type="curve" smooth="yes"/>
      <point x="640" y="684" type="line" smooth="yes"/>
      <point x="640" y="709"/>
      <point x="629" y="720"/>
      <point x="604" y="720" type="curve" smooth="yes"/>
      <point x="450" y="720" type="line" smooth="yes"/>
      <point x="425" y="720"/>
      <point x="414" y="709"/>
      <point x="414" y="684" type="curve" smooth="yes"/>
      <point x="414" y="376" type="line"/>
      <point x="321" y="376" type="line" smooth="yes"/>
      <point x="302" y="376"/>
      <point x="290" y="389"/>
      <point x="290" y="410" type="curve" smooth="yes"/>
      <point x="290" y="684" type="line" smooth="yes"/>
      <point x="290" y="709"/>
      <point x="279" y="720"/>
      <point x="254" y="720" type="curve" smooth="yes"/>
      <point x="99" y="720" type="line" smooth="yes"/>
      <point x="74" y="720"/>
      <point x="63" y="709"/>
      <point x="63" y="684" type="curve" smooth="yes"/>
      <point x="63" y="333" type="line" smooth="yes"/>
      <point x="63" y="219"/>
      <point x="115" y="167"/>
      <point x="245" y="167" type="curve" smooth="yes"/>
    </contour>
  </outline>
</glyph>
<glyph name="five" format="1">
  <advance width="647"/>
  <unicode hex="0035"/>
  <outline>
    <contour>
      <point x="409" y="0" type="line" smooth="yes"/>
      <point x="529" y="0"/>
      <point x="604" y="64"/>
      <point x="604" y="166" type="curve" smooth="yes"/>
      <point x="604" y="305" type="line" smooth="yes"/>
      <point x="604" y="411"/>
      <point x="537" y="464"/>
      <point x="429" y="464" type="curve" smooth="yes"/>
      <point x="292" y="464" type="line"/>
      <point x="292" y="529" type="line"/>
      <point x="532" y="529" type="line" smooth="yes"/>
      <point x="557" y="529"/>
      <point x="568" y="540"/>
      <point x="568" y="565" type="curve" smooth="yes"/>
      <point x="568" y="684" type="line" smooth="yes"/>
      <point x="568" y="709"/>
      <point x="557" y="720"/>
      <point x="532" y="720" type="curve" smooth="yes"/>
      <point x="101" y="720" type="line" smooth="yes"/>
      <point x="76" y="720"/>
      <point x="65" y="709"/>
      <point x="65" y="684" type="curve" smooth="yes"/>
      <point x="65" y="310" type="line" smooth="yes"/>
      <point x="65" y="285"/>
      <point x="76" y="274"/>
      <point x="101" y="274" type="curve" smooth="yes"/>
      <point x="349" y="274" type="line" smooth="yes"/>
      <point x="365" y="274"/>
      <point x="376" y="267"/>
      <point x="376" y="251" type="curve" smooth="yes"/>
      <point x="376" y="212" type="line" smooth="yes"/>
      <point x="376" y="196"/>
      <point x="365" y="189"/>
      <point x="349" y="189" type="curve" smooth="yes"/>
      <point x="91" y="189" type="line" smooth="yes"/>
      <point x="66" y="189"/>
      <point x="55" y="178"/>
      <point x="55" y="153" type="curve" smooth="yes"/>
      <point x="55" y="36" type="line" smooth="yes"/>
      <point x="55" y="11"/>
      <point x="66" y="0"/>
      <point x="91" y="0" type="curve" smooth="yes"/>
    </contour>
  </outline>
</glyph>
<glyph name="nine" format="1">
  <advance width="693"/>
  <unicode hex="0039"/>
  <outline>
    <contour>
      <point x="409.0" y="458.0" type="line" smooth="yes"/>
      <point x="409.0" y="438.0"/>
      <point x="400.0" y="422.0"/>
      <point x="342.0" y="422.0" type="curve" smooth="yes"/>
      <point x="282.0" y="422.0"/>
      <point x="273.0" y="438.0"/>
      <point x="273.0" y="458.0" type="curve" smooth="yes"/>
      <point x="273.0" y="517.0" type="line" smooth="yes"/>
      <point x="273.0" y="538.0"/>
      <point x="282.0" y="554.0"/>
      <point x="342.0" y="554.0" type="curve" smooth="yes"/>
      <point x="400.0" y="554.0"/>
      <point x="409.0" y="538.0"/>
      <point x="409.0" y="517.0" type="curve" smooth="yes"/>
    </contour>
    <contour>
      <point x="409.0" y="388.0" type="line"/>
      <point x="409.0" y="250.0" type="line" smooth="yes"/>
      <point x="409.0" y="201.0"/>
      <point x="395.0" y="190.0"/>
      <point x="346.0" y="190.0" type="curve" smooth="yes"/>
      <point x="159.0" y="190.0" type="line" smooth="yes"/>
      <point x="134.0" y="190.0"/>
      <point x="123.0" y="179.0"/>
      <point x="123.0" y="154.0" type="curve" smooth="yes"/>
      <point x="123.0" y="36.0" type="line" smooth="yes"/>
      <point x="123.0" y="11.0"/>
      <point x="133.0" y="0.0"/>
      <point x="159.0" y="0.0" type="curve" smooth="yes"/>
      <point x="389.0" y="0.0" type="line" smooth="yes"/>
      <point x="578.0" y="0.0"/>
      <point x="635.0" y="83.0"/>
      <point x="635.0" y="205.0" type="curve" smooth="yes"/>
      <point x="635.0" y="533.0" type="line" smooth="yes"/>
      <point x="635.0" y="655.0"/>
      <point x="581.0" y="735.0"/>
      <point x="335.0" y="735.0" type="curve" smooth="yes"/>
      <point x="105.0" y="735.0"/>
      <point x="47.0" y="655.0"/>
      <point x="47.0" y="533.0" type="curve" smooth="yes"/>
      <point x="47.0" y="437.0" type="line" smooth="yes"/>
      <point x="47.0" y="318.0"/>
      <point x="101.0" y="257.0"/>
      <point x="282.0" y="257.0" type="curve" smooth="yes"/>
      <point x="472.0" y="257.0"/>
      <point x="514.0" y="324.0"/>
      <point x="514.0" y="422.0" type="curve"/>
    </contour>
  </outline>
</glyph>
<glyph name="greater" format="2">
  <advance width="714"/>
  <unicode hex="003E"/>
  <outline>
    <contour>
      <point x="507.0" y="168.0" type="line"/>
      <point x="590.0" y="192.0"/>
      <point x="634.0" y="224.0"/>
      <point x="634.0" y="323.0" type="curve" smooth="yes"/>
      <point x="634.0" y="395.0" type="line" smooth="yes"/>
      <point x="634.0" y="494.0"/>
      <point x="590.0" y="526.0"/>
      <point x="507.0" y="550.0" type="curve" smooth="yes"/>
      <point x="126.0" y="659.0" type="line" smooth="yes"/>
      <point x="101.0" y="664.0"/>
      <point x="90.0" y="654.0"/>
      <point x="90.0" y="628.0" type="curve" smooth="yes"/>
      <point x="90.0" y="496.0" type="line" smooth="yes"/>
      <point x="90.0" y="470.0"/>
      <point x="101.0" y="459.0"/>
      <point x="126.0" y="455.0" type="curve" smooth="yes"/>
      <point x="413.0" y="378.0" type="line" smooth="yes"/>
      <point x="427.0" y="375.0"/>
      <point x="430.0" y="371.0"/>
      <point x="430.0" y="359.0" type="curve" smooth="yes"/>
      <point x="430.0" y="347.0"/>
      <point x="427.0" y="343.0"/>
      <point x="413.0" y="340.0" type="curve" smooth="yes"/>
      <point x="126.0" y="263.0" type="line" smooth="yes"/>
      <point x="101.0" y="259.0"/>
      <point x="90.0" y="248.0"/>
      <point x="90.0" y="222.0" type="curve" smooth="yes"/>
      <point x="90.0" y="90.0" type="line" smooth="yes"/>
      <point x="90.0" y="64.0"/>
      <point x="101.0" y="54.0"/>
      <point x="126.0" y="59.0" type="curve" smooth="yes"/>
    </contour>
  </outline>
</glyph>
<glyph name="question" format="1">
  <advance width="656"/>
  <unicode hex="003F"/>
  <outline>
    <contour>
      <point x="456.0" y="273.0" type="line" smooth="yes"/>
      <point x="551.0" y="286.0"/>
      <point x="611.0" y="327.0"/>
      <point x="611.0" y="439.0" type="curve" smooth="yes"/>
      <point x="611.0" y="544.0" type="line" smooth="yes"/>
      <point x="611.0" y="658.0"/>
      <point x="534.0" y="720.0"/>
      <point x="404.0" y="720.0" type="curve" smooth="yes"/>
      <point x="81.0" y="720.0" type="line" smooth="yes"/>
      <point x="56.0" y="720.0"/>
      <point x="45.0" y="709.0"/>
      <point x="45.0" y="684.0" type="curve"/>
      <point x="45.0" y="563.0" type="line" smooth="yes"/>
      <point x="45.0" y="537.0"/>
      <point x="56.0" y="527.0"/>
      <point x="81.0" y="527.0" type="curve" smooth="yes"/>
      <point x="357.0" y="527.0" type="line" smooth="yes"/>
      <point x="374.0" y="527.0"/>
      <point x="384.0" y="518.0"/>
      <point x="384.0" y="499.0" type="curve" smooth="yes"/>
      <point x="384.0" y="479.0"/>
      <point x="377.0" y="471.0"/>
      <point x="357.0" y="468.0" type="curve" smooth="yes"/>
      <point x="158.0" y="440.0" type="line" smooth="yes"/>
      <point x="133.0" y="437.0"/>
      <point x="121.0" y="425.0"/>
      <point x="125.0" y="399.0" type="curve" smooth="yes"/>
      <point x="146.0" y="267.0" type="line" smooth="yes"/>
      <point x="150.0" y="242.0"/>
      <point x="160.0" y="233.0"/>
      <point x="185.0" y="236.0" type="curve" smooth="yes"/>
    </contour>
    <contour>
      <point x="344.0" y="0.0" type="line" smooth="yes"/>
      <point x="369.0" y="0.0"/>
      <point x="380.0" y="11.0"/>
      <point x="380.0" y="36.0" type="curve" smooth="yes"/>
      <point x="380.0" y="167.0" type="line" smooth="yes"/>
      <point x="380.0" y="193.0"/>
      <point x="369.0" y="203.0"/>
      <point x="344.0" y="203.0" type="curve" smooth="yes"/>
      <point x="161.0" y="203.0" type="line" smooth="yes"/>
      <point x="135.0" y="203.0"/>
      <point x="125.0" y="193.0"/>
      <point x="125.0" y="167.0" type="curve" smooth="yes"/>
      <point x="125.0" y="36.0" type="line" smooth="yes"/>
      <point x="125.0" y="11.0"/>
      <point x="135.0" y="0.0"/>
      <point x="161.0" y="0.0" type="curve" smooth="yes"/>
    </contour>
  </outline>
</glyph>
<glyph name="A" format="1">
  <advance width="730"/>
  <unicode hex="0041"/>
  <unicode hex="0061"/>
  <outline>
    <contour>
      <point x="330" y="510" type="line"/>
      <point x="335" y="522"/>
      <point x="341" y="527"/>
      <point x="349" y="527" type="curve" smooth="yes"/>
      <point x="374" y="527" type="line" smooth="yes"/>
      <point x="382" y="527"/>
      <point x="388" y="522"/>
      <point x="393" y="510" type="curve"/>
      <point x="440" y="358" type="line"/>
      <point x="283" y="358" type="line"/>
    </contour>
    <contour>
      <point x="273" y="36" type="curve" smooth="yes"/>
      <point x="273" y="176" type="line"/>
      <point x="450" y="176" type="line"/>
      <point x="450" y="36" type="line" smooth="yes"/>
      <point x="450" y="11"/>
      <point x="462" y="0"/>
      <point x="489" y="0" type="curve" smooth="yes"/>
      <point x="640" y="0" type="line" smooth="yes"/>
      <point x="665" y="0"/>
      <point x="676" y="11"/>
      <point x="676" y="36" type="curve" smooth="yes"/>
      <point x="676" y="300" type="line" smooth="yes"/>
      <point x="676" y="340"/>
      <point x="664" y="390"/>
      <point x="637" y="460" type="curve" smooth="yes"/>
      <point x="550" y="687" type="line" smooth="yes"/>
      <point x="542" y="710"/>
      <point x="526" y="720"/>
      <point x="500" y="720" type="curve" smooth="yes"/>
      <point x="231" y="720" type="line" smooth="yes"/>
      <point x="204" y="720"/>
      <point x="188" y="710"/>
      <point x="180" y="687" type="curve" smooth="yes"/>
      <point x="93" y="460" type="line" smooth="yes"/>
      <point x="66" y="390"/>
      <point x="54" y="340"/>
      <point x="54" y="300" type="curve" smooth="yes"/>
      <point x="54" y="36" type="line" smooth="yes"/>
      <point x="54" y="11"/>
      <point x="65" y="0"/>
      <point x="90" y="0" type="curve" smooth="yes"/>
      <point x="237" y="0" type="line" smooth="yes"/>
      <point x="262" y="0"/>
      <point x="273" y="11"/>
    </contour>
  </outline>
</glyph>
<glyph name="B" format="2">
  <advance width="725"/>
  <unicode hex="0042"/>
  <unicode hex="0062"/>
  <outline>
    <contour>
      <point x="489" y="0" type="line" smooth="yes"/>
      <point x="622" y="0"/>
      <point x="683" y="52"/>
      <point x="683" y="164" type="curve" smooth="yes"/>
      <point x="683" y="256" type="line" smooth="yes"/>
      <point x="683" y="354"/>
      <point x="643" y="403"/>
      <point x="557" y="411" type="curve"/>
      <point x="597" y="428"/>
      <point x="616" y="463"/>
      <point x="616" y="519" type="curve" smooth="yes"/>
      <point x="616" y="567" type="line" smooth="yes"/>
      <point x="616" y="672"/>
      <point x="555" y="720"/>
      <point x="424" y="720" type="curve" smooth="yes"/>
      <point x="105" y="720" type="line" smooth="yes"/>
      <point x="80" y="720"/>
      <point x="69" y="709"/>
      <point x="69" y="684" type="curve" smooth="yes"/>
      <point x="69" y="36" type="line" smooth="yes"/>
      <point x="69" y="11"/>
      <point x="80" y="0"/>
      <point x="105" y="0" type="curve" smooth="yes"/>
    </contour>
    <contour>
      <point x="294" y="550" type="line"/>
      <point x="379" y="550" type="line" smooth="yes"/>
      <point x="405" y="550"/>
      <point x="417" y="537"/>
      <point x="417" y="510" type="curve" smooth="yes"/>
      <point x="417" y="482" type="line" smooth="yes"/>
      <point x="417" y="455"/>
      <point x="405" y="442"/>
      <point x="379" y="442" type="curve" smooth="yes"/>
      <point x="294" y="442" type="line"/>
    </contour>
    <contour>
      <point x="294" y="288" type="line"/>
      <point x="424" y="288" type="line" smooth="yes"/>
      <point x="450" y="288"/>
      <point x="462" y="276"/>
      <point x="462" y="249" type="curve" smooth="yes"/>
      <point x="462" y="210" type="line" smooth="yes"/>
      <point x="462" y="183"/>
      <point x="450" y="170"/>
      <point x="424" y="170" type="curve" smooth="yes"/>
      <point x="294" y="170" type="line"/>
    </contour>
  </outline>
</glyph>
<glyph name="G" format="1">
  <advance width="708"/>
  <unicode hex="0047"/>
  <outline>
    <contour>
      <point x="619" y="0" type="line" smooth="yes"/>
      <point x="644" y="0"/>
      <point x="655" y="11"/>
      <point x="655" y="36" type="curve" smooth="yes"/>
      <point x="655" y="345" type="line" smooth="yes"/>
      <point x="655" y="370"/>
      <point x="644" y="381"/>
      <point x="619" y="381" type="curve" smooth="yes"/>
      <point x="464" y="381" type="line" smooth="yes"/>
      <point x="439" y="381"/>
      <point x="428" y="370"/>
      <point x="428" y="345" type="curve" smooth="yes"/>
      <point x="428" y="189" type="line"/>
      <point x="331" y="189" type="line" smooth="yes"/>
      <point x="300" y="189"/>
      <point x="285" y="204"/>
      <point x="285" y="238" type="curve" smooth="yes"/>
      <point x="285" y="477" type="line" smooth="yes"/>
      <point x="285" y="511"/>
      <point x="304" y="527"/>
      <point x="346" y="527" type="curve" smooth="yes"/>
      <point x="554" y="527" type="line" smooth="yes"/>
      <point x="579" y="527"/>
      <point x="590" y="538"/>
      <point x="590" y="563" type="curve" smooth="yes"/>
      <point x="590" y="684" type="line" smooth="yes"/>
      <point x="590" y="709"/>
      <point x="579" y="720"/>
      <point x="554" y="720" type="curve" smooth="yes"/>
      <point x="304" y="720" type="line" smooth="yes"/>
      <point x="136" y="720"/>
      <point x="58" y="655"/>
      <point x="58" y="516" type="curve" smooth="yes"/>
      <point x="58" y="204" type="line" smooth="yes"/>
      <point x="58" y="65"/>
      <point x="136" y="0"/>
      <point x="304" y="0" type="curve" smooth="yes"/>
    </contour>
  </outline>
</glyph>
<glyph name="K" format="1">
  <advance width="746"/>
  <unicode hex="004B"/>
  <outline>
    <contour>
      <point x="260" y="0" type="line" smooth="yes"/>
      <point x="285" y="0"/>
      <point x="296" y="11"/>
      <point x="296" y="36" type="curve" smooth="yes"/>
      <point x="296" y="265" type="line"/>
      <point x="428" y="265" type="line" smooth="yes"/>
      <point x="449" y="265"/>
      <point x="460" y="253"/>
      <point x="460" y="231" type="curve" smooth="yes"/>
      <point x="460" y="36" type="line" smooth="yes"/>
      <point x="460" y="11"/>
      <point x="471" y="0"/>
      <point x="496" y="0" type="curve" smooth="yes"/>
      <point x="650" y="0" type="line" smooth="yes"/>
      <point x="675" y="0"/>
      <point x="686" y="11"/>
      <point x="686" y="36" type="curve" smooth="yes"/>
      <point x="686" y="318" type="line" smooth="yes"/>
      <point x="686" y="398"/>
      <point x="638" y="450"/>
      <point x="563" y="454" type="curve"/>
      <point x="665" y="687" type="line" smooth="yes"/>
      <point x="674" y="708"/>
      <point x="666" y="720"/>
      <point x="643" y="720" type="curve" smooth="yes"/>
      <point x="489" y="720" type="line" smooth="yes"/>
      <point x="463" y="720"/>
      <point x="449" y="711"/>
      <point x="439" y="687" type="curve" smooth="yes"/>
      <point x="336" y="454" type="line"/>
      <point x="296" y="454" type="line"/>
      <point x="296" y="684" type="line" smooth="yes"/>
      <point x="296" y="709"/>
      <point x="285" y="720"/>
      <point x="260" y="720" type="curve" smooth="yes"/>
      <point x="105" y="720" type="line" smooth="yes"/>
      <point x="80" y="720"/>
      <point x="69" y="709"/>
      <point x="69" y="684" type="curve" smooth="yes"/>
      <point x="69" y="36" type="line" smooth="yes"/>
      <point x="69" y="11"/>
      <point x="80" y="0"/>
      <point x="105" y="0" type="curve" smooth="yes"/>
    </contour>
  </outline>
</glyph>
<glyph name="N" format="1">
  <advance width="753"/>
  <unicode hex="004E"/>
  <outline>
    <contour>
      <point x="255" y="0" type="line" smooth="yes"/>
      <point x="280" y="0"/>
      <point x="291" y="11"/>
      <point x="291" y="36" type="curve" smooth="yes"/>
      <point x="291" y="366" type="line"/>
      <point x="462" y="159" type="line"/>
      <point x="462" y="36" type="line" smooth="yes"/>
      <point x="462" y="11"/>
      <point x="473" y="0"/>
      <point x="498" y="0" type="curve" smooth="yes"/>
      <point x="648" y="0" type="line" smooth="yes"/>
      <point x="673" y="0"/>
      <point x="684" y="11"/>
      <point x="684" y="36" type="curve" smooth="yes"/>
      <point x="684" y="684" type="line" smooth="yes"/>
      <point x="684" y="709"/>
      <point x="673" y="720"/>
      <point x="648" y="720" type="curve" smooth="yes"/>
      <point x="498" y="720" type="line" smooth="yes"/>
      <point x="473" y="720"/>
      <point x="462" y="709"/>
      <point x="462" y="684" type="curve" smooth="yes"/>
      <point x="462" y="471" type="line"/>
      <point x="268" y="693" type="line" smooth="yes"/>
      <point x="251" y="713"/>
      <point x="235" y="720"/>
      <point x="209" y="720" type="curve" smooth="yes"/>
      <point x="105" y="720" type="line" smooth="yes"/>
      <point x="80" y="720"/>
      <point x="69" y="709"/>
      <point x="69" y="684" type="curve" smooth="yes"/>
      <point x="69" y="36" type="line" smooth="yes"/>
      <point x="69" y="11"/>
      <point x="80" y="0"/>
      <point x="105" y="0" type="curve" smooth="yes"/>
    </contour>
  </outline>
</glyph>
<glyph name="Q" format="1">
  <advance width="737"/>
  <unicode hex="0051"/>
  <unicode hex="0071"/>
  <outline>
    <contour>
      <point x="445" y="-90" type="line" smooth="yes"/>
      <point x="470" y="-90"/>
      <point x="481" y="-79"/>
      <point x="481" y="-54" type="curve" smooth="yes"/>
      <point x="481" y="1" type="line"/>
      <point x="638" y="23"/>
      <point x="679" y="97"/>
      <point x="679" y="198" type="curve" smooth="yes"/>
      <point x="679" y="530" type="line" smooth="yes"/>
      <point x="679" y="652"/>
      <point x="619" y="735"/>
      <point x="369" y="735" type="curve" smooth="yes"/>
      <point x="119" y="735"/>
      <point x="58" y="652"/>
      <point x="58" y="530" type="curve" smooth="yes"/>
      <point x="58" y="198" type="line" smooth="yes"/>
      <point x="58" y="97"/>
      <point x="100" y="24"/>
      <point x="255" y="1" type="curve"/>
      <point x="255" y="-54" type="line" smooth="yes"/>
      <point x="255" y="-79"/>
      <point x="266" y="-90"/>
      <point x="291" y="-90" type="curve" smooth="yes"/>
    </contour>
    <contour>
      <point x="285" y="220" type="curve" smooth="yes"/>
      <point x="285" y="493" type="line" smooth="yes"/>
      <point x="285" y="519"/>
      <point x="297" y="539"/>
      <point x="369" y="539" type="curve" smooth="yes"/>
      <point x="442" y="539"/>
      <point x="453" y="519"/>
      <point x="453" y="493" type="curve" smooth="yes"/>
      <point x="453" y="220" type="line" smooth="yes"/>
      <point x="453" y="193"/>
      <point x="442" y="173"/>
      <point x="369" y="173" type="curve" smooth="yes"/>
      <point x="297" y="173"/>
      <point x="285" y="193"/>
    </contour>
  </outline>
</glyph>
<glyph name="S" format="1">
  <advance width="650"/>
  <unicode hex="0053"/>
  <unicode hex="0073"/>
  <outline>
    <contour>
      <point x="403" y="0" type="line" smooth="yes"/>
      <point x="532" y="0"/>
      <point x="610" y="62"/>
      <point x="610" y="176" type="curve" smooth="yes"/>
      <point x="610" y="281" type="line" smooth="yes"/>
      <point x="610" y="393"/>
      <point x="548" y="433"/>
      <point x="454" y="447" type="curve" smooth="yes"/>
      <point x="305" y="467" type="line" smooth="yes"/>
      <point x="288" y="469"/>
      <point x="278" y="481"/>
      <point x="278" y="499" type="curve" smooth="yes"/>
      <point x="278" y="517"/>
      <point x="288" y="529"/>
      <point x="305" y="529" type="curve" smooth="yes"/>
      <point x="538" y="529" type="line" smooth="yes"/>
      <point x="563" y="529"/>
      <point x="574" y="540"/>
      <point x="574" y="565" type="curve" smooth="yes"/>
      <point x="574" y="684" type="line" smooth="yes"/>
      <point x="574" y="709"/>
      <point x="563" y="720"/>
      <point x="538" y="720" type="curve" smooth="yes"/>
      <point x="258" y="720" type="line" smooth="yes"/>
      <point x="128" y="720"/>
      <point x="51" y="658"/>
      <point x="51" y="544" type="curve" smooth="yes"/>
      <point x="51" y="439" type="line" smooth="yes"/>
      <point x="51" y="327"/>
      <point x="112" y="287"/>
      <point x="206" y="273" type="curve" smooth="yes"/>
      <point x="356" y="252" type="line" smooth="yes"/>
      <point x="373" y="250"/>
      <point x="382" y="241"/>
      <point x="382" y="218" type="curve" smooth="yes"/>
      <point x="382" y="202"/>
      <point x="373" y="189"/>
      <point x="356" y="189" type="curve" smooth="yes"/>
      <point x="87" y="189" type="line" smooth="yes"/>
      <point x="62" y="189"/>
      <point x="51" y="178"/>
      <point x="51" y="153" type="curve" smooth="yes"/>
      <point x="51" y="36" type="line" smooth="yes"/>
      <point x="51" y="11"/>
      <point x="62" y="0"/>
      <point x="87" y="0" type="curve" smooth="yes"/>
    </contour>
  </outline>
</glyph>
<glyph name="T" format="2">
  <advance width="656"/>
  <unicode hex="0054"/>
  <unicode hex="0074"/>
  <outline>
    <contour>
      <point x="409" y="0" type="line" smooth="yes"/>
      <point x="434" y="0"/>
      <point x="445" y="11"/>
      <point x="445" y="36" type="curve" smooth="yes"/>
      <point x="445" y="527" type="line"/>
      <point x="592" y="527" type="line" smooth="yes"/>
      <point x="617" y="527"/>
      <point x="628" y="538"/>
      <point x="628" y="563" type="curve" smooth="yes"/>
      <point x="628" y="684" type="line" smooth="yes"/>
      <point x="628" y="709"/>
      <point x="617" y="720"/>
      <point x="592" y="720" type="curve" smooth="yes"/>
      <point x="64" y="720" type="line" smooth="yes"/>
      <point x="39" y="720"/>
      <point x="28" y="709"/>
      <point x="28" y="684" type="curve" smooth="yes"/>
      <point x="28" y="563" type="line" smooth="yes"/>
      <point x="28" y="538"/>
      <point x="39" y="527"/>
      <point x="64" y="527" type="curve" smooth="yes"/>
      <point x="211" y="527" type="line"/>
      <point x="211" y="36" type="line" smooth="yes"/>
      <point x="211" y="11"/>
      <point x="222" y="0"/>
      <point x="247" y="0" type="curve" smooth="yes"/>
    </contour>
  </outline>
</glyph>
<glyph name="V" format="2">
  <advance width="730"/>
  <unicode hex="0056"/>
  <unicode hex="0076"/>
  <anchor x="365.0" y="747.0" name="top"/>
  <anchor x="365.0" y="0.0" name="bottom"/>
  <outline>
    <contour>
      <point x="495" y="0" type="line" smooth="yes"/>
      <point x="521" y="0"/>
      <point x="536" y="8"/>
      <point x="546" y="33" type="curve" smooth="yes"/>
      <point x="644" y="278" type="line" smooth="yes"/>
      <point x="668" y="338"/>
      <point x="676" y="357"/>
      <point x="676" y="420" type="curve" smooth="yes"/>
      <point x="676" y="684" type="line" smooth="yes"/>
      <point x="676" y="709"/>
      <point x="666" y="720"/>
      <point x="640" y="720" type="curve" smooth="yes"/>
      <point x="483" y="720" type="line" smooth="yes"/>
      <point x="458" y="720"/>
      <point x="447" y="709"/>
      <point x="447" y="684" type="curve" smooth="yes"/>
      <point x="447" y="409" type="line" smooth="yes"/>
      <point x="447" y="395"/>
      <point x="444" y="383"/>
      <point x="439" y="368" type="curve" smooth="yes"/>
      <point x="392" y="227" type="line" smooth="yes"/>
      <point x="388" y="214"/>
      <point x="384" y="210"/>
      <point x="373" y="210" type="curve" smooth="yes"/>
      <point x="362" y="210" type="line" smooth="yes"/>
      <point x="351" y="210"/>
      <point x="347" y="214"/>
      <point x="343" y="227" type="curve" smooth="yes"/>
      <point x="296" y="367" type="line" smooth="yes"/>
      <point x="291" y="382"/>
      <point x="288" y="394"/>
      <point x="288" y="408" type="curve" smooth="yes"/>
      <point x="288" y="684" type="line" smooth="yes"/>
      <point x="288" y="709"/>
      <point x="274" y="720"/>
      <point x="249" y="720" type="curve" smooth="yes"/>
      <point x="90" y="720" type="line" smooth="yes"/>
      <point x="65" y="720"/>
      <point x="54" y="709"/>
      <point x="54" y="684" type="curve" smooth="yes"/>
      <point x="54" y="420" type="line" smooth="yes"/>
      <point x="54" y="357"/>
      <point x="62" y="338"/>
      <point x="86" y="278" type="curve" smooth="yes"/>
      <point x="184" y="33" type="line" smooth="yes"/>
      <point x="194" y="8"/>
      <point x="209" y="0"/>
      <point x="235" y="0" type="curve"/>
    </contour>
  </outline>
</glyph>
<glyph name="Y" format="1">
  <advance width="705"/>
  <unicode hex="0059"/>
  <outline>
    <contour>
      <point x="455" y="143" type="line"/>
      <point x="622" y="369" type="line" smooth="yes"/>
      <point x="652" y="410"/>
      <point x="660" y="430"/>
      <point x="660" y="492" type="curve" smooth="yes"/>
      <point x="660" y="684" type="line" smooth="yes"/>
      <point x="660" y="709"/>
      <point x="649" y="720"/>
      <point x="624" y="720" type="curve" smooth="yes"/>
      <point x="475" y="720" type="line" smooth="yes"/>
      <point x="450" y="720"/>
      <point x="439" y="709"/>
      <point x="439" y="684" type="curve" smooth="yes"/>
      <point x="439" y="520" type="line" smooth="yes"/>
      <point x="439" y="506"/>
      <point x="439" y="492"/>
      <point x="430" y="478" type="curve" smooth="yes"/>
      <point x="384" y="406" type="line" smooth="yes"/>
      <point x="377" y="394"/>
      <point x="371" y="389"/>
      <point x="360" y="389" type="curve"/>
      <point x="350" y="389" type="line" smooth="yes"/>
      <point x="339" y="389"/>
      <point x="333" y="394"/>
      <point x="326" y="406" type="curve" smooth="yes"/>
      <point x="280" y="478" type="line" smooth="yes"/>
      <point x="271" y="492"/>
      <point x="271" y="506"/>
      <point x="271" y="520" type="curve" smooth="yes"/>
      <point x="271" y="684" type="line" smooth="yes"/>
      <point x="271" y="709"/>
      <point x="260" y="720"/>
      <point x="235" y="720" type="curve" smooth="yes"/>
      <point x="81" y="720" type="line" smooth="yes"/>
      <point x="56" y="720"/>
      <point x="45" y="709"/>
      <point x="45" y="684" type="curve" smooth="yes"/>
      <point x="45" y="492" type="line" smooth="yes"/>
      <point x="45" y="430"/>
      <point x="52" y="410"/>
      <point x="83" y="369" type="curve" smooth="yes"/>
      <point x="252" y="143" type="line"/>
    </contour>
    <contour>
      <point x="434" y="0" type="line" smooth="yes"/>
      <point x="459" y="0"/>
      <point x="470" y="11"/>
      <point x="470" y="36" type="curve" smooth="yes"/>
      <point x="470" y="224" type="line"/>
      <point x="236" y="224" type="line"/>
      <point x="236" y="36" type="line" smooth="yes"/>
      <point x="236" y="11"/>
      <point x="246" y="0"/>
      <point x="272" y="0" type="curve" smooth="yes"/>
    </contour>
    <contour>
      <point x="352.0" y="747.0" type="move" name="top"/>
    </contour>
    <contour>
      <point x="352.0" y="0.0" type="move" name="bottom"/>
    </contour>
  </outline>
</glyph>
<glyph name="Z" format="2">
  <advance width="660"/>
  <unicode hex="005A"/>
  <unicode hex="007A"/>
  <anchor x="330.0" y="747.0" name="top"/>
  <anchor x="330.0" y="0.0" name="bottom"/>
  <outline>
    <contour>
      <point x="578" y="0" type="line" smooth="yes"/>
      <point x="603" y="0"/>
      <point x="614" y="11"/>
      <point x="614" y="36" type="curve" smooth="yes"/>
      <point x="614" y="155" type="line" smooth="yes"/>
      <point x="614" y="180"/>
      <point x="603" y="191"/>
      <point x="578" y="191" type="curve" smooth="yes"/>
      <point x="339" y="191" type="line"/>
      <point x="571" y="472" type="line" smooth="yes"/>
      <point x="589" y="491"/>
      <point x="596" y="508"/>
      <point x="596" y="535" type="curve" smooth="yes"/>
      <point x="596" y="684" type="line" smooth="yes"/>
      <point x="596" y="709"/>
      <point x="585" y="720"/>
      <point x="560" y="720" type="curve" smooth="yes"/>
      <point x="100" y="720" type="line" smooth="yes"/>
      <point x="75" y="720"/>
      <point x="64" y="709"/>
      <point x="64" y="684" type="curve"/>
      <point x="64" y="563" type="line"/>
      <point x="64" y="538"/>
      <point x="75" y="527"/>
      <point x="100" y="527" type="curve" smooth="yes"/>
      <point x="314" y="527" type="line"/>
      <point x="71" y="232" type="line" smooth="yes"/>
      <point x="53" y="213"/>
      <point x="46" y="196"/>
      <point x="46" y="170" type="curve"/>
      <point x="46" y="36" type="line"/>
      <point x="46" y="11"/>
      <point x="57" y="0"/>
      <point x="82" y="0" type="curve" smooth="yes"/>
    </contour>
  </outline>
</glyph>
<glyph name="bracketright" format="1">
  <advance width="429"/>
  <unicode hex="005D"/>
  <outline>
    <contour>
      <point x="153" y="111" type="line"/>
      <point x="81" y="111" type="line" smooth="yes"/>
      <point x="56" y="111"/>
      <point x="45" y="100"/>
      <point x="45" y="75" type="curve" smooth="yes"/>
      <point x="45" y="-44" type="line" smooth="yes"/>
      <point x="45" y="-69"/>
      <point x="56" y="-80"/>
      <point x="81" y="-80" type="curve" smooth="yes"/>
      <point x="345" y="-80" type="line" smooth="yes"/>
      <point x="370" y="-80"/>
      <point x="381" y="-69"/>
      <point x="381" y="-44" type="curve" smooth="yes"/>
      <point x="381" y="764" type="line" smooth="yes"/>
      <point x="381" y="789"/>
      <point x="370" y="800"/>
      <point x="345" y="800" type="curve" smooth="yes"/>
      <point x="81" y="800" type="line" smooth="yes"/>
      <point x="56" y="800"/>
      <point x="45" y="789"/>
      <point x="45" y="764" type="curve" smooth="yes"/>
      <point x="45" y="643" type="line" smooth="yes"/>
      <point x="45" y="618"/>
      <point x="56" y="607"/>
      <point x="81" y="607" type="curve" smooth="yes"/>
      <point x="153" y="607" type="line"/>
    </contour>
  </outline>
</glyph>
<glyph name="underscore" format="2">
  <advance width="734"/>
  <unicode hex="005F"/>
  <outline>
    <contour>
      <point x="106" y="-103" type="curve"/>
      <point x="628" y="-103" type="line" smooth="yes"/>
      <point x="653" y="-103"/>
      <point x="664" y="-93"/>
      <point x="664" y="-67" type="curve" smooth="yes"/>
      <point x="664" y="67" type="line" smooth="yes"/>
      <point x="664" y="93"/>
      <point x="653" y="103"/>
      <point x="628" y="103" type="curve" smooth="yes"/>
      <point x="106" y="103" type="line" smooth="yes"/>
      <point x="81" y="103"/>
      <point x="70" y="92"/>
      <point x="70" y="67" type="curve" smooth="yes"/>
      <point x="70" y="-67" type="line" smooth="yes"/>
      <point x="70" y="-93"/>
      <point x="81" y="-103"/>
    </contour>
  </outline>
</glyph>
<glyph name="braceleft" format="2">
  <advance width="455"/>
  <unicode hex="007B"/>
  <outline>
    <contour>
      <point x="312" y="161" type="curve"/>
      <point x="312" y="276" type="line"/>
      <point x="312" y="316"/>
      <point x="302" y="332"/>
      <point x="267" y="338" type="curve" smooth="yes"/>
      <point x="234" y="344" type="line" smooth="yes"/>
      <point x="224" y="346"/>
      <point x="221" y="349"/>
      <point x="221" y="358" type="curve" smooth="yes"/>
      <point x="221" y="367"/>
      <point x="224" y="371"/>
      <point x="234" y="372" type="curve"/>
      <point x="267" y="378" type="line" smooth="yes"/>
      <point x="302" y="384"/>
      <point x="312" y="400"/>
      <point x="312" y="440" type="curve" smooth="yes"/>
      <point x="312" y="557" type="line" smooth="yes"/>
      <point x="312" y="592"/>
      <point x="321" y="607"/>
      <point x="353" y="607" type="curve" smooth="yes"/>
      <point x="374" y="607" type="line" smooth="yes"/>
      <point x="399" y="607"/>
      <point x="410" y="618"/>
      <point x="410" y="643" type="curve" smooth="yes"/>
      <point x="410" y="764" type="line" smooth="yes"/>
      <point x="410" y="789"/>
      <point x="399" y="800"/>
      <point x="374" y="800" type="curve" smooth="yes"/>
      <point x="330" y="800" type="line" smooth="yes"/>
      <point x="141" y="800"/>
      <point x="84" y="717"/>
      <point x="84" y="595" type="curve" smooth="yes"/>
      <point x="84" y="462" type="line"/>
      <point x="41" y="449"/>
      <point x="20" y="424"/>
      <point x="20" y="376" type="curve" smooth="yes"/>
      <point x="20" y="341" type="line" smooth="yes"/>
      <point x="20" y="293"/>
      <point x="41" y="267"/>
      <point x="84" y="254" type="curve"/>
      <point x="84" y="124" type="line" smooth="yes"/>
      <point x="84" y="3"/>
      <point x="141" y="-80"/>
      <point x="330" y="-80" type="curve" smooth="yes"/>
      <point x="374" y="-80" type="line" smooth="yes"/>
      <point x="399" y="-80"/>
      <point x="410" y="-69"/>
      <point x="410" y="-44" type="curve" smooth="yes"/>
      <point x="410" y="75" type="line" smooth="yes"/>
      <point x="410" y="100"/>
      <point x="399" y="111"/>
      <point x="374" y="111" type="curve" smooth="yes"/>
      <point x="353" y="111" type="line" smooth="yes"/>
      <point x="321" y="111"/>
      <point x="312" y="126"/>
    </contour>
  </outline>
</glyph>
<glyph name="braceright" format="1">
  <advance width="455"/>
  <unicode hex="007D"/>
  <outline>
    <contour>
      <point x="143" y="161" type="line"/>
      <point x="143" y="126"/>
      <point x="134" y="111"/>
      <point x="102" y="111" type="curve" smooth="yes"/>
      <point x="81" y="111" type="line" smooth="yes"/>
      <point x="56" y="111"/>
      <point x="45" y="100"/>
      <point x="45" y="75" type="curve" smooth="yes"/>
      <point x="45" y="-44" type="line" smooth="yes"/>
      <point x="45" y="-69"/>
      <point x="56" y="-80"/>
      <point x="81" y="-80" type="curve" smooth="yes"/>
      <point x="125" y="-80" type="line" smooth="yes"/>
      <point x="314" y="-80"/>
      <point x="371" y="3"/>
      <point x="371" y="124" type="curve" smooth="yes"/>
      <point x="371" y="254" type="line"/>
      <point x="414" y="267"/>
      <point x="435" y="293"/>
      <point x="435" y="341" type="curve" smooth="yes"/>
      <point x="435" y="376" type="line" smooth="yes"/>
      <point x="435" y="424"/>
      <point x="414" y="449"/>
      <point x="371" y="462" type="curve"/>
      <point x="371" y="595" type="line" smooth="yes"/>
      <point x="371" y="717"/>
      <point x="314" y="800"/>
      <point x="125" y="800" type="curve" smooth="yes"/>
      <point x="81" y="800" type="line" smooth="yes"/>
      <point x="56" y="800"/>
      <point x="45" y="789"/>
      <point x="45" y="764" type="curve" smooth="yes"/>
      <point x="45" y="643" type="line" smooth="yes"/>
      <point x="45" y="618"/>
      <point x="56" y="607"/>
      <point x="81" y="607" type="curve" smooth="yes"/>
      <point x="102" y="607" type="line" smooth="yes"/>
      <point x="134" y="607"/>
      <point x="143" y="592"/>
      <point x="143" y="557" type="curve" smooth="yes"/>
      <point x="143" y="440" type="line" smooth="yes"/>
      <point x="143" y="400"/>
      <point x="153" y="384"/>
      <point x="188" y="378" type="curve" smooth="yes"/>
      <point x="221" y="372" type="line"/>
      <point x="231" y="371"/>
      <point x="234" y="367"/>
      <point x="234" y="358" type="curve" smooth="yes"/>
      <point x="234" y="349"/>
      <point x="231" y="346"/>
      <point x="221" y="344" type="curve" smooth="yes"/>
      <point x="188" y="338" type="line" smooth="yes"/>
      <point x="153" y="332"/>
      <point x="143" y="316"/>
      <point x="143" y="276" type="curve" smooth="yes"/>
    </contour>
  </outline>
</glyph>
<glyph name="exclamdown" format="1">
  <advance width="423"/>
  <unicode hex="00A1"/>
  <outline>
    <contour>
      <point x="304" y="720" type="line" smooth="yes"/>
      <point x="329" y="720"/>
      <point x="340" y="709"/>
      <point x="340" y="684" type="curve" smooth="yes"/>
      <point x="340" y="553" type="line" smooth="yes"/>
      <point x="340" y="527"/>
      <point x="329" y="517"/>
      <point x="304" y="517" type="curve" smooth="yes"/>
      <point x="120" y="517" type="line" smooth="yes"/>
      <point x="95" y="517"/>
      <point x="84" y="527"/>
      <point x="84" y="553" type="curve"/>
      <point x="84" y="684" type="line"/>
      <point x="84" y="709"/>
      <point x="95" y="720"/>
      <point x="120" y="720" type="curve" smooth="yes"/>
    </contour>
    <contour>
      <point x="289" y="458" type="line" smooth="yes"/>
      <point x="314" y="458"/>
      <point x="326" y="447"/>
      <point x="327" y="422" type="curve" smooth="yes"/>
      <point x="341" y="36" type="line" smooth="yes"/>
      <point x="342" y="11"/>
      <point x="332" y="0"/>
      <point x="307" y="0" type="curve" smooth="yes"/>
      <point x="116" y="0" type="line" smooth="yes"/>
      <point x="91" y="0"/>
      <point x="81" y="11"/>
      <point x="82" y="36" type="curve" smooth="yes"/>
      <point x="97" y="422" type="line" smooth="yes"/>
      <point x="98" y="447"/>
      <point x="109" y="458"/>
      <point x="134" y="458" type="curve" smooth="yes"/>
    </contour>
  </outline>
</glyph>
<glyph name="cent" format="2">
  <advance width="628"/>
  <unicode hex="00A2"/>
  <outline>
    <contour>
      <point x="548" y="40" type="line" smooth="yes"/>
      <point x="573" y="40"/>
      <point x="584" y="51"/>
      <point x="584" y="76" type="curve" smooth="yes"/>
      <point x="584" y="195" type="line" smooth="yes"/>
      <point x="584" y="220"/>
      <point x="573" y="231"/>
      <point x="548" y="231" type="curve" smooth="yes"/>
      <point x="347" y="231" type="line" smooth="yes"/>
      <point x="295" y="231"/>
      <point x="286" y="251"/>
      <point x="286" y="279" type="curve" smooth="yes"/>
      <point x="286" y="437" type="line" smooth="yes"/>
      <point x="286" y="463"/>
      <point x="295" y="487"/>
      <point x="347" y="487" type="curve" smooth="yes"/>
      <point x="548" y="487" type="line" smooth="yes"/>
      <point x="573" y="487"/>
      <point x="584" y="498"/>
      <point x="584" y="523" type="curve" smooth="yes"/>
      <point x="584" y="644" type="line" smooth="yes"/>
      <point x="584" y="669"/>
      <point x="573" y="680"/>
      <point x="548" y="680" type="curve" smooth="yes"/>
      <point x="304" y="680" type="line" smooth="yes"/>
      <point x="115" y="680"/>
      <point x="58" y="597"/>
      <point x="58" y="475" type="curve" smooth="yes"/>
      <point x="58" y="244" type="line" smooth="yes"/>
      <point x="58" y="123"/>
      <point x="115" y="40"/>
      <point x="304" y="40" type="curve" smooth="yes"/>
    </contour>
    <contour>
      <point x="254" y="123" type="line"/>
      <point x="254" y="-14" type="line" smooth="yes"/>
      <point x="254" y="-39"/>
      <point x="265" y="-50"/>
      <point x="290" y="-50" type="curve" smooth="yes"/>
      <point x="435" y="-50" type="line" smooth="yes"/>
      <point x="460" y="-50"/>
      <point x="471" y="-39"/>
      <point x="471" y="-14" type="curve" smooth="yes"/>
      <point x="471" y="123" type="line"/>
    </contour>
    <contour>
      <point x="471" y="582" type="line"/>
      <point x="471" y="734" type="line" smooth="yes"/>
      <point x="471" y="759"/>
      <point x="460" y="770"/>
      <point x="435" y="770" type="curve" smooth="yes"/>
      <point x="290" y="770" type="line" smooth="yes"/>
      <point x="265" y="770"/>
      <point x="254" y="759"/>
      <point x="254" y="734" type="curve" smooth="yes"/>
      <point x="254" y="582" type="line"/>
    </contour>
  </outline>
</glyph>
<glyph name="yen" format="1">
  <advance width="703"/>
  <unicode hex="00A5"/>
  <outline>
    <contour>
      <point x="454" y="213" type="line"/>
      <point x="630" y="441" type="line" smooth="yes"/>
      <point x="658" y="479"/>
      <point x="659" y="520"/>
      <point x="659" y="571" type="curve"/>
      <point x="659" y="684" type="line" smooth="yes"/>
      <point x="659" y="709"/>
      <point x="648" y="720"/>
      <point x="623" y="720" type="curve" smooth="yes"/>
      <point x="476" y="720" type="line" smooth="yes"/>
      <point x="450" y="720"/>
      <point x="440" y="709"/>
      <point x="440" y="684" type="curve" smooth="yes"/>
      <point x="440" y="539" type="line" smooth="yes"/>
      <point x="440" y="525"/>
      <point x="441" y="512"/>
      <point x="432" y="498" type="curve" smooth="yes"/>
      <point x="389" y="434" type="line" smooth="yes"/>
      <point x="381" y="422"/>
      <point x="374" y="417"/>
      <point x="363" y="417" type="curve" smooth="yes"/>
      <point x="351" y="417" type="line" smooth="yes"/>
      <point x="340" y="417"/>
      <point x="333" y="423"/>
      <point x="325" y="434" type="curve" smooth="yes"/>
      <point x="279" y="499" type="line" smooth="yes"/>
      <point x="272" y="514"/>
      <point x="271" y="526"/>
      <point x="271" y="540" type="curve" smooth="yes"/>
      <point x="271" y="684" type="line" smooth="yes"/>
      <point x="271" y="709"/>
      <point x="260" y="720"/>
      <point x="235" y="720" type="curve" smooth="yes"/>
      <point x="80" y="720" type="line" smooth="yes"/>
      <point x="55" y="720"/>
      <point x="44" y="709"/>
      <point x="44" y="684" type="curve" smooth="yes"/>
      <point x="44" y="572" type="line" smooth="yes"/>
      <point x="44" y="521"/>
      <point x="44" y="480"/>
      <point x="73" y="442" type="curve" smooth="yes"/>
      <point x="251" y="213" type="line"/>
    </contour>
    <contour>
      <point x="428" y="0" type="line" smooth="yes"/>
      <point x="453" y="0"/>
      <point x="464" y="11"/>
      <point x="464" y="36" type="curve" smooth="yes"/>
      <point x="464" y="254" type="line"/>
      <point x="240" y="254" type="line"/>
      <point x="240" y="36" type="line" smooth="yes"/>
      <point x="240" y="11"/>
      <point x="250" y="0"/>
      <point x="276" y="0" type="curve" smooth="yes"/>
    </contour>
    <contour>
      <point x="131" y="130" type="curve"/>
      <point x="573" y="130" type="line" smooth="yes"/>
      <point x="598" y="130"/>
      <point x="609" y="140"/>
      <point x="609" y="166" type="curve" smooth="yes"/>
      <point x="609" y="263" type="line" smooth="yes"/>
      <point x="609" y="289"/>
      <point x="598" y="299"/>
      <point x="573" y="299" type="curve" smooth="yes"/>
      <point x="131" y="299" type="line" smooth="yes"/>
      <point x="106" y="299"/>
      <point x="95" y="288"/>
      <point x="95" y="263" type="curve" smooth="yes"/>
      <point x="95" y="166" type="line" smooth="yes"/>
      <point x="95" y="140"/>
      <point x="106" y="130"/>
    </contour>
  </outline>
</glyph>
<glyph name="section" format="1">
  <advance width="650"/>
  <unicode hex="00A7"/>
  <outline>
    <contour>
      <point x="482" y="205" type="line" smooth="yes"/>
      <point x="507" y="205"/>
      <point x="518" y="216"/>
      <point x="518" y="241" type="curve" smooth="yes"/>
      <point x="518" y="290" type="line" smooth="yes"/>
      <point x="518" y="315"/>
      <point x="507" y="326"/>
      <point x="482" y="326" type="curve" smooth="yes"/>
      <point x="331" y="326" type="line" smooth="yes"/>
      <point x="279" y="326"/>
      <point x="270" y="346"/>
      <point x="270" y="374" type="curve" smooth="yes"/>
      <point x="270" y="517" type="line" smooth="yes"/>
      <point x="270" y="543"/>
      <point x="279" y="567"/>
      <point x="331" y="567" type="curve" smooth="yes"/>
      <point x="538" y="567" type="line" smooth="yes"/>
      <point x="563" y="567"/>
      <point x="574" y="578"/>
      <point x="574" y="603" type="curve" smooth="yes"/>
      <point x="574" y="684" type="line" smooth="yes"/>
      <point x="574" y="709"/>
      <point x="563" y="720"/>
      <point x="538" y="720" type="curve" smooth="yes"/>
      <point x="298" y="720" type="line" smooth="yes"/>
      <point x="109" y="720"/>
      <point x="52" y="637"/>
      <point x="52" y="515" type="curve" smooth="yes"/>
      <point x="52" y="409" type="line" smooth="yes"/>
      <point x="52" y="288"/>
      <point x="109" y="205"/>
      <point x="298" y="205" type="curve" smooth="yes"/>
    </contour>
    <contour>
      <point x="180" y="515" type="line" smooth="yes"/>
      <point x="155" y="515"/>
      <point x="144" y="504"/>
      <point x="144" y="479" type="curve" smooth="yes"/>
      <point x="144" y="430" type="line" smooth="yes"/>
      <point x="144" y="405"/>
      <point x="155" y="394"/>
      <point x="180" y="394" type="curve" smooth="yes"/>
      <point x="331" y="394" type="line" smooth="yes"/>
      <point x="383" y="394"/>
      <point x="392" y="374"/>
      <point x="392" y="346" type="curve" smooth="yes"/>
      <point x="392" y="203" type="line" smooth="yes"/>
      <point x="392" y="177"/>
      <point x="383" y="153"/>
      <point x="331" y="153" type="curve" smooth="yes"/>
      <point x="98" y="153" type="line" smooth="yes"/>
      <point x="73" y="153"/>
      <point x="62" y="142"/>
      <point x="62" y="117" type="curve" smooth="yes"/>
      <point x="62" y="36" type="line" smooth="yes"/>
      <point x="62" y="11"/>
      <point x="73" y="0"/>
      <point x="98" y="0" type="curve" smooth="yes"/>
      <point x="364" y="0" type="line" smooth="yes"/>
      <point x="553" y="0"/>
      <point x="610" y="83"/>
      <point x="610" y="205" type="curve" smooth="yes"/>
      <point x="610" y="311" type="line" smooth="yes"/>
      <point x="610" y="432"/>
      <point x="553" y="515"/>
      <point x="364" y="515" type="curve" smooth="yes"/>
    </contour>
  </outline>
</glyph>
<glyph name="dieresis" format="2">
  <advance width="500"/>
  <unicode hex="00A8"/>
  <anchor x="250.0" y="747.0" name="_top"/>
  <anchor x="250.0" y="0.0" name="_bottom"/>
  <outline>
    <contour>
      <point x="188" y="760" type="line" smooth="yes"/>
      <point x="211" y="760"/>
      <point x="221" y="770"/>
      <point x="221" y="793" type="curve" smooth="yes"/>
      <point x="221" y="914" type="line" smooth="yes"/>
      <point x="221" y="937"/>
      <point x="211" y="947"/>
      <point x="188" y="947" type="curve" smooth="yes"/>
      <point x="50" y="947" type="line" smooth="yes"/>
      <point x="27" y="947"/>
      <point x="16" y="937"/>
      <point x="16" y="914" type="curve" smooth="yes"/>
      <point x="16" y="793" type="line" smooth="yes"/>
      <point x="16" y="770"/>
      <point x="27" y="760"/>
      <point x="50" y="760" type="curve" smooth="yes"/>
    </contour>
    <contour>
      <point x="446" y="760" type="line" smooth="yes"/>
      <point x="469" y="760"/>
      <point x="479" y="770"/>
      <point x="479" y="793" type="curve" smooth="yes"/>
      <point x="479" y="914" type="line" smooth="yes"/>
      <point x="479" y="937"/>
      <point x="469" y="947"/>
      <point x="446" y="947" type="curve" smooth="yes"/>
      <point x="308" y="947" type="line" smooth="yes"/>
      <point x="285" y="947"/>
      <point x="275" y="937"/>
      <point x="275" y="914" type="curve" smooth="yes"/>
      <point x="275" y="793" type="line" smooth="yes"/>
      <point x="275" y="770"/>
      <point x="285" y="760"/>
      <point x="308" y="760" type="curve" smooth="yes"/>
    </contour>
  </outline>
</glyph>
<glyph name="copyright" format="1">
  <advance width="867"/>
  <unicode hex="00A9"/>
  <outline>
    <contour>
      <point x="807.0" y="154.0" type="curve" smooth="yes"/>
      <point x="807.0" y="564.0" type="line" smooth="yes"/>
      <point x="807.0" y="711.0"/>
      <point x="735.0" y="811.0"/>
      <point x="434.0" y="811.0" type="curve" smooth="yes"/>
      <point x="134.0" y="811.0"/>
      <point x="60.0" y="711.0"/>
      <point x="60.0" y="564.0" type="curve" smooth="yes"/>
      <point x="60.0" y="154.0" type="line" smooth="yes"/>
      <point x="60.0" y="8.0"/>
      <point x="134.0" y="-91.0"/>
      <point x="434.0" y="-91.0" type="curve" smooth="yes"/>
      <point x="735.0" y="-91.0"/>
      <point x="807.0" y="8.0"/>
    </contour>
    <contour>
      <point x="707.0" y="150.0" type="line"/>
      <point x="707.0" y="64.0"/>
      <point x="654.0" y="5.0"/>
      <point x="434.0" y="5.0" type="curve" smooth="yes"/>
      <point x="214.0" y="5.0"/>
      <point x="160.0" y="64.0"/>
      <point x="160.0" y="150.0" type="curve"/>
      <point x="160.0" y="568.0" type="line"/>
      <point x="160.0" y="655.0"/>
      <point x="214.0" y="715.0"/>
      <point x="434.0" y="715.0" type="curve" smooth="yes"/>
      <point x="654.0" y="715.0"/>
      <point x="707.0" y="655.0"/>
      <point x="707.0" y="568.0" type="curve"/>
    </contour>
    <contour>
      <point x="588.76807189" y="110.0" type="line" smooth="yes"/>
      <point x="606.686323345" y="110.0"/>
      <point x="614.570353985" y="117.883333027"/>
      <point x="614.570353985" y="135.799998999" type="curve" smooth="yes"/>
      <point x="614.570353985" y="221.083329022" type="line" smooth="yes"/>
      <point x="614.570353985" y="238.999994993"/>
      <point x="606.686323345" y="246.883328021"/>
      <point x="588.76807189" y="246.883328021" type="curve" smooth="yes"/>
      <point x="444.705330193" y="246.883328021" type="line" smooth="yes"/>
      <point x="407.435367167" y="246.883328021"/>
      <point x="400.984796643" y="261.216660798"/>
      <point x="400.984796643" y="281.283326685" type="curve" smooth="yes"/>
      <point x="400.984796643" y="451.849986732" type="line" smooth="yes"/>
      <point x="400.984796643" y="470.483319342"/>
      <point x="407.435367167" y="487.683318674"/>
      <point x="444.705330193" y="487.683318674" type="curve" smooth="yes"/>
      <point x="588.76807189" y="487.683318674" type="line" smooth="yes"/>
      <point x="606.686323345" y="487.683318674"/>
      <point x="614.570353985" y="495.566651702"/>
      <point x="614.570353985" y="513.483317673" type="curve" smooth="yes"/>
      <point x="614.570353985" y="600.199980974" type="line" smooth="yes"/>
      <point x="614.570353985" y="618.116646945"/>
      <point x="606.686323345" y="625.999979973"/>
      <point x="588.76807189" y="625.999979973" type="curve" smooth="yes"/>
      <point x="413.885937691" y="625.999979973" type="line" smooth="yes"/>
      <point x="278.423956692" y="625.999979973"/>
      <point x="237.570343375" y="566.516648948"/>
      <point x="237.570343375" y="479.083319008" type="curve" smooth="yes"/>
      <point x="237.570343375" y="256.199994326" type="line" smooth="yes"/>
      <point x="237.570343375" y="169.483331025"/>
      <point x="278.423956692" y="110.0"/>
      <point x="413.885937691" y="110.0" type="curve" smooth="yes"/>
    </contour>
  </outline>
</glyph>
<glyph name="logicalnot" format="1">
  <advance width="734"/>
  <unicode hex="00AC"/>
  <outline>
    <contour>
      <point x="628" y="63" type="line" smooth="yes"/>
      <point x="654" y="63"/>
      <point x="664" y="74"/>
      <point x="664" y="99" type="curve" smooth="yes"/>
      <point x="664" y="457" type="line" smooth="yes"/>
      <point x="664" y="483"/>
      <point x="653" y="493"/>
      <point x="628" y="493" type="curve" smooth="yes"/>
      <point x="106" y="493" type="line" smooth="yes"/>
      <point x="81" y="493"/>
      <point x="70" y="482"/>
      <point x="70" y="457" type="curve" smooth="yes"/>
      <point x="70" y="343" type="line" smooth="yes"/>
      <point x="70" y="317"/>
      <point x="81" y="307"/>
      <point x="106" y="307" type="curve"/>
      <point x="468" y="307" type="line"/>
      <point x="468" y="99" type="line" smooth="yes"/>
      <point x="468" y="74"/>
      <point x="478" y="63"/>
      <point x="504" y="63" type="curve" smooth="yes"/>
    </contour>
  </outline>
</glyph>
<glyph name="paragraph" format="1">
  <advance width="682"/>
  <unicode hex="00B6"/>
  <outline>
    <contour>
      <point x="462" y="0" type="line" smooth="yes"/>
      <point x="437" y="0"/>
      <point x="426" y="11"/>
      <point x="426" y="36" type="curve" smooth="yes"/>
      <point x="426" y="202" type="line"/>
      <point x="271" y="202" type="line" smooth="yes"/>
      <point x="89" y="202"/>
      <point x="35" y="281"/>
      <point x="35" y="397" type="curve" smooth="yes"/>
      <point x="35" y="525" type="line" smooth="yes"/>
      <point x="35" y="641"/>
      <point x="89" y="720"/>
      <point x="271" y="720" type="curve" smooth="yes"/>
      <point x="577" y="720" type="line" smooth="yes"/>
      <point x="602" y="720"/>
      <point x="613" y="709"/>
      <point x="613" y="684" type="curve" smooth="yes"/>
      <point x="613" y="36" type="line" smooth="yes"/>
      <point x="613" y="11"/>
      <point x="602" y="0"/>
      <point x="577" y="0" type="curve" smooth="yes"/>
    </contour>
    <contour>
      <point x="375" y="282" type="line"/>
      <point x="375" y="36" type="line" smooth="yes"/>
      <point x="375" y="11"/>
      <point x="364" y="0"/>
      <point x="339" y="0" type="curve" smooth="yes"/>
      <point x="224" y="0" type="line" smooth="yes"/>
      <point x="199" y="0"/>
      <point x="188" y="11"/>
      <point x="188" y="36" type="curve" smooth="yes"/>
      <point x="188" y="282" type="line"/>
    </contour>
  </outline>
</glyph>
<glyph name="cedilla" format="2">
  <advance width="500"/>
  <unicode hex="00B8"/>
  <anchor x="250.0" y="747.0" name="_top"/>
  <anchor x="250.0" y="0.0" name="_bottom"/>
  <outline>
    <contour>
      <point x="264" y="-126" type="line"/>
      <point x="290" y="-126"/>
      <point x="303" y="-117"/>
      <point x="310" y="-96" type="curve" smooth="yes"/>
      <point x="373" y="81" type="line" smooth="yes"/>
      <point x="380" y="100"/>
      <point x="375" y="113"/>
      <point x="353" y="121" type="curve" smooth="yes"/>
      <point x="237" y="164" type="line" smooth="yes"/>
      <point x="213" y="173"/>
      <point x="201" y="166"/>
      <point x="193" y="144" type="curve" smooth="yes"/>
      <point x="108" y="-86" type="line" smooth="yes"/>
      <point x="99" y="-110"/>
      <point x="104" y="-126"/>
      <point x="138" y="-126" type="curve" smooth="yes"/>
    </contour>
  </outline>
</glyph>
<glyph name="AE" format="1">
  <advance width="1005"/>
  <unicode hex="00C6"/>
  <unicode hex="00E6"/>
  <outline>
    <contour>
      <point x="491" y="720" type="line"/>
      <point x="232" y="720" type="line" smooth="yes"/>
      <point x="198" y="720"/>
      <point x="181" y="710"/>
      <point x="170" y="679" type="curve" smooth="yes"/>
      <point x="83" y="440" type="line" smooth="yes"/>
      <point x="64" y="390"/>
      <point x="54" y="349"/>
      <point x="54" y="290" type="curve" smooth="yes"/>
      <point x="54" y="36" type="line" smooth="yes"/>
      <point x="54" y="11"/>
      <point x="65" y="0"/>
      <point x="90" y="0" type="curve" smooth="yes"/>
      <point x="236" y="0" type="line" smooth="yes"/>
      <point x="261" y="0"/>
      <point x="272" y="11"/>
      <point x="272" y="36" type="curve" smooth="yes"/>
      <point x="272" y="328" type="line"/>
      <point x="334" y="514" type="line" smooth="yes"/>
      <point x="339" y="527"/>
      <point x="342" y="531"/>
      <point x="353" y="531" type="curve" smooth="yes"/>
      <point x="491" y="531" type="line"/>
    </contour>
    <contour>
      <point x="456" y="358" type="line"/>
      <point x="232" y="358" type="line"/>
      <point x="232" y="176" type="line"/>
      <point x="456" y="176" type="line"/>
    </contour>
    <contour>
      <point x="920" y="0" type="line" smooth="yes"/>
      <point x="945" y="0"/>
      <point x="956" y="11"/>
      <point x="956" y="36" type="curve" smooth="yes"/>
      <point x="956" y="153" type="line" smooth="yes"/>
      <point x="956" y="178"/>
      <point x="945" y="189"/>
      <point x="920" y="189" type="curve" smooth="yes"/>
      <point x="667" y="189" type="line"/>
      <point x="667" y="275" type="line"/>
      <point x="839" y="275" type="line" smooth="yes"/>
      <point x="864" y="275"/>
      <point x="875" y="286"/>
      <point x="875" y="311" type="curve" smooth="yes"/>
      <point x="875" y="418" type="line" smooth="yes"/>
      <point x="875" y="444"/>
      <point x="864" y="454"/>
      <point x="839" y="454" type="curve" smooth="yes"/>
      <point x="667" y="454" type="line"/>
      <point x="667" y="531" type="line"/>
      <point x="920" y="531" type="line" smooth="yes"/>
      <point x="945" y="531"/>
      <point x="956" y="542"/>
      <point x="956" y="567" type="curve" smooth="yes"/>
      <point x="956" y="684" type="line" smooth="yes"/>
      <point x="956" y="709"/>
      <point x="945" y="720"/>
      <point x="920" y="720" type="curve" smooth="yes"/>
      <point x="476" y="720" type="line" smooth="yes"/>
      <point x="451" y="720"/>
      <point x="440" y="709"/>
      <point x="440" y="684" type="curve"/>
      <point x="440" y="36" type="line"/>
      <point x="440" y="11"/>
      <point x="451" y="0"/>
      <point x="476" y="0" type="curve" smooth="yes"/>
    </contour>
  </outline>
</glyph>
<glyph name="AE" format="2">
  <advance width="1005"/>
  <unicode hex="00C6"/>
  <unicode hex="00E6"/>
  <outline>
    <contour>
      <point x="491" y="720" type="line"/>
      <point x="232" y="720" type="line" smooth="yes"/>
      <point x="198" y="720"/>
      <point x="181" y="710"/>
      <point x="170" y="679" type="curve" smooth="yes"/>
      <point x="83" y="440" type="line" smooth="yes"/>
      <point x="64" y="390"/>
      <point x="54" y="349"/>
      <point x="54" y="290" type="curve" smooth="yes"/>
      <point x="54" y="36" type="line" smooth="yes"/>
      <point x="54" y="11"/>
      <point x="65" y="0"/>
      <point x="90" y="0" type="curve" smooth="yes"/>
      <point x="236" y="0" type="line" smooth="yes"/>
      <point x="261" y="0"/>
      <point x="272" y="11"/>
      <point x="272" y="36" type="curve" smooth="yes"/>
      <point x="272" y="328" type="line"/>
      <point x="334" y="514" type="line" smooth="yes"/>
      <point x="339" y="527"/>
      <point x="342" y="531"/>
      <point x="353" y="531" type="curve" smooth="yes"/>
      <point x="491" y="531" type="line"/>
    </contour>
    <contour>
      <point x="456" y="358" type="line"/>
      <point x="232" y="358" type="line"/>
      <point x="232" y="176" type="line"/>
      <point x="456" y="176" type="line"/>
    </contour>
    <contour>
      <point x="920" y="0" type="line" smooth="yes"/>
      <point x="945" y="0"/>
      <point x="956" y="11"/>
      <point x="956" y="36" type="curve" smooth="yes"/>
      <point x="956" y="153" type="line" smooth="yes"/>
      <point x="956" y="178"/>
      <point x="945" y="189"/>
      <point x="920" y="189" type="curve" smooth="yes"/>
      <point x="667" y="189" type="line"/>
      <point x="667" y="275" type="line"/>
      <point x="839" y="275" type="line" smooth="yes"/>
      <point x="864" y="275"/>
      <point x="875" y="286"/>
      <point x="875" y="311" type="curve" smooth="yes"/>
      <point x="875" y="418" type="line" smooth="yes"/>
      <point x="875" y="444"/>
      <point x="864" y="454"/>
      <point x="839" y="454" type="curve" smooth="yes"/>
      <point x="667" y="454" type="line"/>
      <point x="667" y="531" type="line"/>
      <point x="920" y="531" type="line" smooth="yes"/>
      <point x="945" y="531"/>
      <point x="956" y="542"/>
      <point x="956" y="567" type="curve" smooth="yes"/>
      <point x="956" y="684" type="line" smooth="yes"/>
      <point x="956" y="709"/>
      <point x="945" y="720"/>
      <point x="920" y="720" type="curve" smooth="yes"/>
      <point x="476" y="720" type="line" smooth="yes"/>
      <point x="451" y="720"/>
      <point x="440" y="709"/>
      <point x="440" y="684" type="curve"/>
      <point x="440" y="36" type="line"/>
      <point x="440" y="11"/>
      <point x="451" y="0"/>
      <point x="476" y="0" type="curve" smooth="yes"/>
    </contour>
  </outline>
</glyph>
<glyph name="Eth" format="1">
  <advance width="756"/>
  <unicode hex="00D0"/>
  <unicode hex="00F0"/>
  <outline>
    <contour>
      <point x="56" y="265" type="curve"/>
      <point x="344" y="265" type="line" smooth="yes"/>
      <point x="369" y="265"/>
      <point x="380" y="275"/>
      <point x="380" y="301" type="curve" smooth="yes"/>
      <point x="380" y="408" type="line" smooth="yes"/>
      <point x="380" y="434"/>
      <point x="369" y="444"/>
      <point x="344" y="444" type="curve" smooth="yes"/>
      <point x="56" y="444" type="line" smooth="yes"/>
      <point x="31" y="444"/>
      <point x="20" y="433"/>
      <point x="20" y="408" type="curve" smooth="yes"/>
      <point x="20" y="301" type="line" smooth="yes"/>
      <point x="20" y="275"/>
      <point x="31" y="265"/>
    </contour>
    <contour>
      <point x="452" y="0" type="line" smooth="yes"/>
      <point x="641" y="0"/>
      <point x="698" y="83"/>
      <point x="698" y="204" type="curve" smooth="yes"/>
      <point x="698" y="516" type="line" smooth="yes"/>
      <point x="698" y="637"/>
      <point x="641" y="720"/>
      <point x="452" y="720" type="curve" smooth="yes"/>
      <point x="115" y="720" type="line" smooth="yes"/>
      <point x="90" y="720"/>
      <point x="79" y="709"/>
      <point x="79" y="684" type="curve"/>
      <point x="79" y="36" type="line"/>
      <point x="79" y="11"/>
      <point x="90" y="0"/>
      <point x="115" y="0" type="curve" smooth="yes"/>
    </contour>
    <contour>
      <point x="303" y="529" type="line"/>
      <point x="425" y="529" type="line" smooth="yes"/>
      <point x="465" y="529"/>
      <point x="472" y="507"/>
      <point x="472" y="481" type="curve" smooth="yes"/>
      <point x="472" y="238" type="line" smooth="yes"/>
      <point x="472" y="211"/>
      <point x="465" y="189"/>
      <point x="425" y="189" type="curve" smooth="yes"/>
      <point x="303" y="189" type="line"/>
    </contour>
  </outline>
</glyph>
<glyph name="divide" format="1">
  <advance width="734"/>
  <unicode hex="00F7"/>
  <outline>
    <contour>
      <point x="106" y="277" type="curve"/>
      <point x="628" y="277" type="line" smooth="yes"/>
      <point x="653" y="277"/>
      <point x="664" y="287"/>
      <point x="664" y="313" type="curve" smooth="yes"/>
      <point x="664" y="407" type="line" smooth="yes"/>
      <point x="664" y="433"/>
      <point x="653" y="443"/>
      <point x="628" y="443" type="curve" smooth="yes"/>
      <point x="106" y="443" type="line" smooth="yes"/>
      <point x="81" y="443"/>
      <point x="70" y="432"/>
      <point x="70" y="407" type="curve" smooth="yes"/>
      <point x="70" y="313" type="line" smooth="yes"/>
      <point x="70" y="287"/>
      <point x="81" y="277"/>
    </contour>
    <contour>
      <point x="448" y="483" type="line" smooth="yes"/>
      <point x="473" y="483"/>
      <point x="484" y="494"/>
      <point x="484" y="519" type="curve" smooth="yes"/>
      <point x="484" y="642" type="line" smooth="yes"/>
      <point x="484" y="668"/>
      <point x="473" y="678"/>
      <point x="448" y="678" type="curve" smooth="yes"/>
      <point x="286" y="678" type="line" smooth="yes"/>
      <point x="261" y="678"/>
      <point x="250" y="668"/>
      <point x="250" y="642" type="curve"/>
      <point x="250" y="519" type="line"/>
      <point x="250" y="494"/>
      <point x="261" y="483"/>
      <point x="286" y="483" type="curve" smooth="yes"/>
    </contour>
    <contour>
      <point x="448" y="42" type="line" smooth="yes"/>
      <point x="473" y="42"/>
      <point x="484" y="53"/>
      <point x="484" y="78" type="curve" smooth="yes"/>
      <point x="484" y="201" type="line" smooth="yes"/>
      <point x="484" y="227"/>
      <point x="473" y="237"/>
      <point x="448" y="237" type="curve" smooth="yes"/>
      <point x="286" y="237" type="line" smooth="yes"/>
      <point x="261" y="237"/>
      <point x="250" y="227"/>
      <point x="250" y="201" type="curve" smooth="yes"/>
      <point x="250" y="78" type="line" smooth="yes"/>
      <point x="250" y="53"/>
      <point x="261" y="42"/>
      <point x="286" y="42" type="curve" smooth="yes"/>
    </contour>
  </outline>
</glyph>
<glyph name="Ldot" format="1">
  <advance width="695"/>
  <unicode hex="013F"/>
  <outline>
    <contour>
      <point x="604" y="372" type="line" smooth="yes"/>
      <point x="629" y="372"/>
      <point x="640" y="383"/>
      <point x="640" y="408" type="curve" smooth="yes"/>
      <point x="640" y="535" type="line" smooth="yes"/>
      <point x="640" y="560"/>
      <point x="629" y="571"/>
      <point x="604" y="571" type="curve"/>
      <point x="459" y="571" type="line" smooth="yes"/>
      <point x="434" y="571"/>
      <point x="423" y="560"/>
      <point x="423" y="535" type="curve" smooth="yes"/>
      <point x="423" y="408" type="line" smooth="yes"/>
      <point x="423" y="383"/>
      <point x="434" y="372"/>
      <point x="459" y="372" type="curve" smooth="yes"/>
    </contour>
    <contour>
      <point x="614" y="0" type="line" smooth="yes"/>
      <point x="639" y="0"/>
      <point x="650" y="11"/>
      <point x="650" y="36" type="curve" smooth="yes"/>
      <point x="650" y="271" type="line" smooth="yes"/>
      <point x="650" y="296"/>
      <point x="639" y="307"/>
      <point x="614" y="307" type="curve" smooth="yes"/>
      <point x="469" y="307" type="line" smooth="yes"/>
      <point x="444" y="307"/>
      <point x="433" y="296"/>
      <point x="433" y="271" type="curve" smooth="yes"/>
      <point x="433" y="189" type="line"/>
      <point x="296" y="189" type="line"/>
      <point x="296" y="684" type="line" smooth="yes"/>
      <point x="296" y="709"/>
      <point x="285" y="720"/>
      <point x="260" y="720" type="curve" smooth="yes"/>
      <point x="105" y="720" type="line" smooth="yes"/>
      <point x="80" y="720"/>
      <point x="69" y="709"/>
      <point x="69" y="684" type="curve"/>
      <point x="69" y="36" type="line"/>
      <point x="69" y="11"/>
      <point x="80" y="0"/>
      <point x="105" y="0" type="curve" smooth="yes"/>
    </contour>
  </outline>
</glyph>
<glyph name="Lslash" format="1">
  <advance width="705"/>
  <unicode hex="0141"/>
  <unicode hex="0142"/>
  <outline>
    <contour>
      <point x="20" y="428" type="curve" smooth="yes"/>
      <point x="20" y="321" type="line" smooth="yes"/>
      <point x="20" y="295"/>
      <point x="31" y="281"/>
      <point x="56" y="285" type="curve" smooth="yes"/>
      <point x="364" y="335" type="line" smooth="yes"/>
      <point x="389" y="339"/>
      <point x="400" y="345"/>
      <point x="400" y="371" type="curve" smooth="yes"/>
      <point x="400" y="478" type="line" smooth="yes"/>
      <point x="400" y="504"/>
      <point x="389" y="518"/>
      <point x="364" y="514" type="curve" smooth="yes"/>
      <point x="56" y="464" type="line" smooth="yes"/>
      <point x="31" y="460"/>
      <point x="20" y="453"/>
    </contour>
    <component base="L" xOffset="10"/>
  </outline>
</glyph>
<glyph name="Eng" format="2">
  <advance width="746"/>
  <unicode hex="014A"/>
  <unicode hex="014B"/>
  <outline>
    <contour>
      <point x="64" y="531" type="curve" smooth="yes"/>
      <point x="64" y="36" type="line" smooth="yes"/>
      <point x="64" y="11"/>
      <point x="75" y="0"/>
      <point x="100" y="0" type="curve" smooth="yes"/>
      <point x="252" y="0" type="line" smooth="yes"/>
      <point x="278" y="0"/>
      <point x="288" y="11"/>
      <point x="288" y="36" type="curve" smooth="yes"/>
      <point x="288" y="492" type="line" smooth="yes"/>
      <point x="288" y="519"/>
      <point x="300" y="539"/>
      <point x="371" y="539" type="curve" smooth="yes"/>
      <point x="441" y="539"/>
      <point x="453" y="519"/>
      <point x="453" y="492" type="curve" smooth="yes"/>
      <point x="453" y="149" type="line" smooth="yes"/>
      <point x="453" y="121"/>
      <point x="447" y="101"/>
      <point x="412" y="101" type="curve" smooth="yes"/>
      <point x="391" y="101" type="line" smooth="yes"/>
      <point x="366" y="101"/>
      <point x="355" y="90"/>
      <point x="355" y="65" type="curve" smooth="yes"/>
      <point x="355" y="-54" type="line" smooth="yes"/>
      <point x="355" y="-79"/>
      <point x="366" y="-90"/>
      <point x="391" y="-90" type="curve" smooth="yes"/>
      <point x="436" y="-90" type="line" smooth="yes"/>
      <point x="625" y="-90"/>
      <point x="682" y="-7"/>
      <point x="682" y="114" type="curve"/>
      <point x="682" y="531" type="line" smooth="yes"/>
      <point x="682" y="653"/>
      <point x="621" y="735"/>
      <point x="373" y="735" type="curve" smooth="yes"/>
      <point x="125" y="735"/>
      <point x="64" y="653"/>
    </contour>
  </outline>
</glyph>
<glyph name="OE" format="1">
  <advance width="1015"/>
  <unicode hex="0152"/>
  <unicode hex="0153"/>
  <outline>
    <contour>
      <point x="631" y="0" type="line"/>
      <point x="656" y="0"/>
      <point x="667" y="11"/>
      <point x="667" y="36" type="curve"/>
      <point x="667" y="684" type="line"/>
      <point x="667" y="709"/>
      <point x="656" y="720"/>
      <point x="631" y="720" type="curve" smooth="yes"/>
      <point x="304" y="720" type="line" smooth="yes"/>
      <point x="115" y="720"/>
      <point x="58" y="637"/>
      <point x="58" y="516" type="curve" smooth="yes"/>
      <point x="58" y="204" type="line" smooth="yes"/>
      <point x="58" y="83"/>
      <point x="115" y="0"/>
      <point x="304" y="0" type="curve" smooth="yes"/>
    </contour>
    <contour>
      <point x="440" y="189" type="line"/>
      <point x="331" y="189" type="line" smooth="yes"/>
      <point x="291" y="189"/>
      <point x="284" y="211"/>
      <point x="284" y="238" type="curve" smooth="yes"/>
      <point x="284" y="481" type="line" smooth="yes"/>
      <point x="284" y="507"/>
      <point x="291" y="529"/>
      <point x="331" y="529" type="curve" smooth="yes"/>
      <point x="440" y="529" type="line"/>
    </contour>
    <contour>
      <point x="930" y="0" type="line" smooth="yes"/>
      <point x="955" y="0"/>
      <point x="966" y="11"/>
      <point x="966" y="36" type="curve" smooth="yes"/>
      <point x="966" y="153" type="line" smooth="yes"/>
      <point x="966" y="178"/>
      <point x="955" y="189"/>
      <point x="930" y="189" type="curve" smooth="yes"/>
      <point x="667" y="189" type="line"/>
      <point x="667" y="275" type="line"/>
      <point x="849" y="275" type="line" smooth="yes"/>
      <point x="874" y="275"/>
      <point x="885" y="286"/>
      <point x="885" y="311" type="curve" smooth="yes"/>
      <point x="885" y="418" type="line" smooth="yes"/>
      <point x="885" y="444"/>
      <point x="874" y="454"/>
      <point x="849" y="454" type="curve" smooth="yes"/>
      <point x="667" y="454" type="line"/>
      <point x="667" y="531" type="line"/>
      <point x="930" y="531" type="line" smooth="yes"/>
      <point x="955" y="531"/>
      <point x="966" y="542"/>
      <point x="966" y="567" type="curve" smooth="yes"/>
      <point x="966" y="684" type="line" smooth="yes"/>
      <point x="966" y="709"/>
      <point x="955" y="720"/>
      <point x="930" y="720" type="curve" smooth="yes"/>
      <point x="476" y="720" type="line" smooth="yes"/>
      <point x="451" y="720"/>
      <point x="440" y="709"/>
      <point x="440" y="684" type="curve"/>
      <point x="440" y="36" type="line"/>
      <point x="440" y="11"/>
      <point x="451" y="0"/>
      <point x="476" y="0" type="curve" smooth="yes"/>
    </contour>
  </outline>
</glyph>
<glyph name="ringhalfleft" format="1">
  <advance width="312"/>
  <unicode hex="02BF"/>
  <outline>
    <contour>
      <point x="257" y="383" type="line" smooth="yes"/>
      <point x="273" y="383"/>
      <point x="279" y="389"/>
      <point x="279" y="405" type="curve" smooth="yes"/>
      <point x="279" y="480" type="line" smooth="yes"/>
      <point x="279" y="496"/>
      <point x="273" y="502"/>
      <point x="257" y="502" type="curve" smooth="yes"/>
      <point x="208" y="502" type="line" smooth="yes"/>
      <point x="189" y="502"/>
      <point x="180" y="509"/>
      <point x="180" y="525" type="curve" smooth="yes"/>
      <point x="180" y="576" type="line" smooth="yes"/>
      <point x="180" y="592"/>
      <point x="189" y="599"/>
      <point x="208" y="599" type="curve" smooth="yes"/>
      <point x="257" y="599" type="line" smooth="yes"/>
      <point x="273" y="599"/>
      <point x="279" y="607"/>
      <point x="279" y="621" type="curve" smooth="yes"/>
      <point x="279" y="698" type="line" smooth="yes"/>
      <point x="279" y="712"/>
      <point x="273" y="720"/>
      <point x="257" y="720" type="curve" smooth="yes"/>
      <point x="148" y="720" type="line" smooth="yes"/>
      <point x="70" y="720"/>
      <point x="33" y="689"/>
      <point x="33" y="624" type="curve" smooth="yes"/>
      <point x="33" y="478" type="line" smooth="yes"/>
      <point x="33" y="413"/>
      <point x="70" y="383"/>
      <point x="148" y="383" type="curve" smooth="yes"/>
    </contour>
  </outline>
</glyph>
<glyph name="circumflex" format="1">
  <advance width="500"/>
  <unicode hex="02C6"/>
  <outline>
    <contour>
      <point x="218" y="797" type="line"/>
      <point x="241" y="803"/>
      <point x="257" y="803"/>
      <point x="280" y="797" type="curve"/>
      <point x="417" y="757" type="line" smooth="yes"/>
      <point x="452" y="746"/>
      <point x="459" y="752"/>
      <point x="459" y="788" type="curve" smooth="yes"/>
      <point x="459" y="869" type="line" smooth="yes"/>
      <point x="459" y="905"/>
      <point x="451" y="909"/>
      <point x="417" y="922" type="curve" smooth="yes"/>
      <point x="280" y="972" type="line" smooth="yes"/>
      <point x="270" y="976"/>
      <point x="260" y="977"/>
      <point x="248" y="977" type="curve" smooth="yes"/>
      <point x="236" y="976"/>
      <point x="221" y="973"/>
      <point x="209" y="968" type="curve" smooth="yes"/>
      <point x="81" y="922" type="line" smooth="yes"/>
      <point x="49" y="909"/>
      <point x="40" y="905"/>
      <point x="40" y="869" type="curve" smooth="yes"/>
      <point x="40" y="788" type="line" smooth="yes"/>
      <point x="40" y="752"/>
      <point x="47" y="746"/>
      <point x="81" y="757" type="curve" smooth="yes"/>
    </contour>
    <contour>
      <point x="250.0" y="747.0" type="move" name="_top"/>
    </contour>
    <contour>
      <point x="250.0" y="0.0" type="move" name="_bottom"/>
    </contour>
  </outline>
</glyph>
<glyph name="caron" format="1">
  <advance width="500"/>
  <unicode hex="02C7"/>
  <outline>
    <contour>
      <point x="281" y="932" type="line"/>
      <point x="258" y="926"/>
      <point x="242" y="926"/>
      <point x="219" y="932" type="curve"/>
      <point x="82" y="972" type="line" smooth="yes"/>
      <point x="47" y="983"/>
      <point x="40" y="977"/>
      <point x="40" y="941" type="curve" smooth="yes"/>
      <point x="40" y="860" type="line" smooth="yes"/>
      <point x="40" y="824"/>
      <point x="48" y="820"/>
      <point x="82" y="807" type="curve" smooth="yes"/>
      <point x="219" y="757" type="line" smooth="yes"/>
      <point x="229" y="753"/>
      <point x="239" y="752"/>
      <point x="251" y="752" type="curve" smooth="yes"/>
      <point x="263" y="753"/>
      <point x="278" y="756"/>
      <point x="290" y="761" type="curve" smooth="yes"/>
      <point x="418" y="807" type="line" smooth="yes"/>
      <point x="450" y="820"/>
      <point x="459" y="824"/>
      <point x="459" y="860" type="curve" smooth="yes"/>
      <point x="459" y="941" type="line" smooth="yes"/>
      <point x="459" y="977"/>
      <point x="452" y="983"/>
      <point x="418" y="972" type="curve" smooth="yes"/>
    </contour>
    <contour>
      <point x="250.0" y="747.0" type="move" name="_top"/>
    </contour>
    <contour>
      <point x="250.0" y="0.0" type="move" name="_bottom"/>
    </contour>
  </outline>
</glyph>
<glyph name="verticallinemod" format="1">
  <advance width="356"/>
  <unicode hex="02C8"/>
  <outline>
    <contour>
      <point x="253" y="345" type="line" smooth="yes"/>
      <point x="288" y="345"/>
      <point x="295" y="351"/>
      <point x="295" y="386" type="curve" smooth="yes"/>
      <point x="295" y="679" type="line" smooth="yes"/>
      <point x="295" y="714"/>
      <point x="290" y="720"/>
      <point x="256" y="720" type="curve" smooth="yes"/>
      <point x="101" y="720" type="line" smooth="yes"/>
      <point x="66" y="720"/>
      <point x="61" y="714"/>
      <point x="61" y="679" type="curve" smooth="yes"/>
      <point x="61" y="386" type="line" smooth="yes"/>
      <point x="61" y="351"/>
      <point x="68" y="345"/>
      <point x="103" y="345" type="curve" smooth="yes"/>
    </contour>
  </outline>
</glyph>
<glyph name="breve" format="1">
  <advance width="500"/>
  <unicode hex="02D8"/>
  <outline>
    <contour>
      <point x="467" y="897" type="curve"/>
      <point x="467" y="941" type="line" smooth="yes"/>
      <point x="467" y="966"/>
      <point x="456" y="977"/>
      <point x="431" y="977" type="curve"/>
      <point x="340" y="977" type="line" smooth="yes"/>
      <point x="317" y="977"/>
      <point x="310" y="970"/>
      <point x="310" y="946" type="curve" smooth="yes"/>
      <point x="310" y="925" type="line" smooth="yes"/>
      <point x="310" y="906"/>
      <point x="301" y="892"/>
      <point x="251" y="892" type="curve" smooth="yes"/>
      <point x="202" y="892"/>
      <point x="194" y="906"/>
      <point x="194" y="925" type="curve" smooth="yes"/>
      <point x="194" y="946" type="line" smooth="yes"/>
      <point x="194" y="970"/>
      <point x="186" y="977"/>
      <point x="165" y="977" type="curve" smooth="yes"/>
      <point x="69" y="977" type="line" smooth="yes"/>
      <point x="44" y="977"/>
      <point x="33" y="966"/>
      <point x="33" y="941" type="curve" smooth="yes"/>
      <point x="33" y="897" type="line" smooth="yes"/>
      <point x="33" y="812"/>
      <point x="76" y="754"/>
      <point x="250" y="754" type="curve" smooth="yes"/>
      <point x="424" y="754"/>
      <point x="467" y="812"/>
    </contour>
    <contour>
      <point x="250.0" y="747.0" type="move" name="_top"/>
    </contour>
    <contour>
      <point x="250.0" y="0.0" type="move" name="_bottom"/>
    </contour>
  </outline>
</glyph>
<glyph name="ogonek" format="2">
  <advance width="500"/>
  <unicode hex="02DB"/>
  <anchor x="250.0" y="747.0" name="_top"/>
  <anchor x="250.0" y="0.0" name="_bottom"/>
  <outline>
    <contour>
      <point x="317" y="67" type="line"/>
      <point x="154" y="67" type="line"/>
      <point x="133" y="-51" type="line" smooth="yes"/>
      <point x="119" y="-144"/>
      <point x="148" y="-186"/>
      <point x="234" y="-186" type="curve" smooth="yes"/>
      <point x="345" y="-186" type="line" smooth="yes"/>
      <point x="371" y="-186"/>
      <point x="378" y="-178"/>
      <point x="378" y="-152" type="curve" smooth="yes"/>
      <point x="378" y="-80" type="line" smooth="yes"/>
      <point x="378" y="-54"/>
      <point x="370" y="-46"/>
      <point x="342" y="-46" type="curve" smooth="yes"/>
      <point x="301" y="-46" type="line"/>
    </contour>
  </outline>
</glyph>
<glyph name="tilde" format="2">
  <advance width="500"/>
  <unicode hex="02DC"/>
  <anchor x="250.0" y="747.0" name="_top"/>
  <anchor x="250.0" y="0.0" name="_bottom"/>
  <outline>
    <contour>
      <point x="249" y="764" type="line"/>
      <point x="265" y="762" type="line" smooth="yes"/>
      <point x="345" y="750"/>
      <point x="359" y="748"/>
      <point x="422" y="767" type="curve"/>
      <point x="445" y="776"/>
      <point x="458" y="783"/>
      <point x="458" y="808" type="curve" smooth="yes"/>
      <point x="458" y="909" type="line" smooth="yes"/>
      <point x="458" y="934"/>
      <point x="446" y="942"/>
      <point x="422" y="935" type="curve" smooth="yes"/>
      <point x="363" y="917"/>
      <point x="359" y="914"/>
      <point x="271" y="927" type="curve" smooth="yes"/>
      <point x="249" y="930" type="line"/>
      <point x="232" y="932" type="line" smooth="yes"/>
      <point x="152" y="944"/>
      <point x="139" y="946"/>
      <point x="76" y="927" type="curve"/>
      <point x="53" y="918"/>
      <point x="40" y="911"/>
      <point x="40" y="886" type="curve" smooth="yes"/>
      <point x="40" y="785" type="line" smooth="yes"/>
      <point x="40" y="760"/>
      <point x="52" y="752"/>
      <point x="76" y="759" type="curve" smooth="yes"/>
      <point x="129" y="775"/>
      <point x="145" y="779"/>
      <point x="221" y="768" type="curve" smooth="yes"/>
    </contour>
  </outline>
</glyph>
<glyph name="hungarumlaut" format="1">
  <advance width="500"/>
  <unicode hex="02DD"/>
  <outline>
    <contour>
      <point x="-5" y="794" type="line" smooth="yes"/>
      <point x="-11" y="772"/>
      <point x="5" y="760"/>
      <point x="28" y="760" type="curve" smooth="yes"/>
      <point x="134" y="760" type="line" smooth="yes"/>
      <point x="159" y="760"/>
      <point x="164" y="772"/>
      <point x="170" y="796" type="curve" smooth="yes"/>
      <point x="223" y="1003" type="line" smooth="yes"/>
      <point x="229" y="1025"/>
      <point x="213" y="1037"/>
      <point x="190" y="1037" type="curve" smooth="yes"/>
      <point x="84" y="1037" type="line" smooth="yes"/>
      <point x="59" y="1037"/>
      <point x="54" y="1025"/>
      <point x="48" y="1001" type="curve" smooth="yes"/>
    </contour>
    <contour>
      <point x="255" y="794" type="line" smooth="yes"/>
      <point x="249" y="772"/>
      <point x="265" y="760"/>
      <point x="288" y="760" type="curve" smooth="yes"/>
      <point x="394" y="760" type="line" smooth="yes"/>
      <point x="419" y="760"/>
      <point x="424" y="772"/>
      <point x="430" y="796" type="curve" smooth="yes"/>
      <point x="483" y="1003" type="line" smooth="yes"/>
      <point x="489" y="1025"/>
      <point x="473" y="1037"/>
      <point x="450" y="1037" type="curve" smooth="yes"/>
      <point x="344" y="1037" type="line" smooth="yes"/>
      <point x="319" y="1037"/>
      <point x="314" y="1025"/>
      <point x="308" y="1001" type="curve" smooth="yes"/>
    </contour>
  </outline>
</glyph>
<glyph name="pi" format="1">
  <advance width="721"/>
  <unicode hex="03C0"/>
  <outline>
    <contour>
      <point x="624" y="0" type="line" smooth="yes"/>
      <point x="649" y="0"/>
      <point x="660" y="11"/>
      <point x="660" y="36" type="curve" smooth="yes"/>
      <point x="660" y="534" type="line" smooth="yes"/>
      <point x="660" y="559"/>
      <point x="649" y="570"/>
      <point x="624" y="570" type="curve" smooth="yes"/>
      <point x="97" y="570" type="line" smooth="yes"/>
      <point x="72" y="570"/>
      <point x="61" y="559"/>
      <point x="61" y="534" type="curve" smooth="yes"/>
      <point x="61" y="36" type="line" smooth="yes"/>
      <point x="61" y="11"/>
      <point x="72" y="0"/>
      <point x="97" y="0" type="curve" smooth="yes"/>
      <point x="252" y="0" type="line" smooth="yes"/>
      <point x="277" y="0"/>
      <point x="288" y="11"/>
      <point x="288" y="36" type="curve" smooth="yes"/>
      <point x="288" y="381" type="line"/>
      <point x="433" y="381" type="line"/>
      <point x="433" y="36" type="line" smooth="yes"/>
      <point x="433" y="11"/>
      <point x="444" y="0"/>
      <point x="469" y="0" type="curve" smooth="yes"/>
    </contour>
  </outline>
</glyph>
<glyph name="Germandbls" format="1">
  <advance width="759.0"/>
  <unicode hex="1E9E"/>
  <unicode hex="00DF"/>
  <outline>
    <contour>
      <point x="296" y="36" type="curve" smooth="yes"/>
      <point x="296" y="531" type="line"/>
      <point x="375" y="531" type="line" smooth="yes"/>
      <point x="392" y="531"/>
      <point x="397" y="518"/>
      <point x="394" y="503" type="curve" smooth="yes"/>
      <point x="361" y="340" type="line" smooth="yes"/>
      <point x="353" y="303"/>
      <point x="366" y="284"/>
      <point x="398" y="284" type="curve" smooth="yes"/>
      <point x="470" y="284" type="line" smooth="yes"/>
      <point x="486" y="284"/>
      <point x="497" y="277"/>
      <point x="497" y="261" type="curve" smooth="yes"/>
      <point x="497" y="212" type="line" smooth="yes"/>
      <point x="497" y="196"/>
      <point x="486" y="189"/>
      <point x="470" y="189" type="curve" smooth="yes"/>
      <point x="392" y="189" type="line" smooth="yes"/>
      <point x="367" y="189"/>
      <point x="356" y="178"/>
      <point x="356" y="153" type="curve" smooth="yes"/>
      <point x="356" y="36" type="line" smooth="yes"/>
      <point x="356" y="11"/>
      <point x="367" y="0"/>
      <point x="392" y="0" type="curve" smooth="yes"/>
      <point x="530" y="0" type="line" smooth="yes"/>
      <point x="650" y="0"/>
      <point x="725" y="64"/>
      <point x="725" y="166" type="curve" smooth="yes"/>
      <point x="725" y="289" type="line" smooth="yes"/>
      <point x="725" y="382"/>
      <point x="668" y="433"/>
      <point x="597" y="446" type="curve"/>
      <point x="620" y="529" type="line" smooth="yes"/>
      <point x="650.641775601" y="639.576842386"/>
      <point x="594.153846154" y="720"/>
      <point x="476" y="720" type="curve" smooth="yes"/>
      <point x="105" y="720" type="line" smooth="yes"/>
      <point x="81" y="720"/>
      <point x="69" y="708"/>
      <point x="69" y="684" type="curve" smooth="yes"/>
      <point x="69" y="36" type="line" smooth="yes"/>
      <point x="69" y="11"/>
      <point x="80" y="0"/>
      <point x="105" y="0" type="curve" smooth="yes"/>
      <point x="260" y="0" type="line" smooth="yes"/>
      <point x="285" y="0"/>
      <point x="296" y="11"/>
    </contour>
  </outline>
</glyph>
<glyph name="endash" format="2">
  <advance width="734"/>
  <unicode hex="2013"/>
  <outline>
    <contour>
      <point x="106" y="257" type="curve"/>
      <point x="628" y="257" type="line" smooth="yes"/>
      <point x="653" y="257"/>
      <point x="664" y="267"/>
      <point x="664" y="293" type="curve" smooth="yes"/>
      <point x="664" y="427" type="line" smooth="yes"/>
      <point x="664" y="453"/>
      <point x="653" y="463"/>
      <point x="628" y="463" type="curve" smooth="yes"/>
      <point x="106" y="463" type="line" smooth="yes"/>
      <point x="81" y="463"/>
      <point x="70" y="452"/>
      <point x="70" y="427" type="curve" smooth="yes"/>
      <point x="70" y="293" type="line" smooth="yes"/>
      <point x="70" y="267"/>
      <point x="81" y="257"/>
    </contour>
  </outline>
</glyph>
<glyph name="emdash" format="2">
  <advance width="1134"/>
  <unicode hex="2014"/>
  <outline>
    <contour>
      <point x="106" y="257" type="curve"/>
      <point x="1028" y="257" type="line" smooth="yes"/>
      <point x="1053" y="257"/>
      <point x="1064" y="267"/>
      <point x="1064" y="293" type="curve" smooth="yes"/>
      <point x="1064" y="427" type="line" smooth="yes"/>
      <point x="1064" y="453"/>
      <point x="1053" y="463"/>
      <point x="1028" y="463" type="curve" smooth="yes"/>
      <point x="106" y="463" type="line" smooth="yes"/>
      <point x="81" y="463"/>
      <point x="70" y="452"/>
      <point x="70" y="427" type="curve" smooth="yes"/>
      <point x="70" y="293" type="line" smooth="yes"/>
      <point x="70" y="267"/>
      <point x="81" y="257"/>
    </contour>
  </outline>
</glyph>
<glyph name="quoteleft" format="2">
  <advance width="384"/>
  <unicode hex="2018"/>
  <outline>
    <contour>
      <point x="203" y="720" type="line" smooth="yes"/>
      <point x="113" y="720"/>
      <point x="55" y="671"/>
      <point x="55" y="569" type="curve" smooth="yes"/>
      <point x="55" y="381" type="line" smooth="yes"/>
      <point x="55" y="356"/>
      <point x="66" y="345"/>
      <point x="91" y="345" type="curve" smooth="yes"/>
      <point x="293" y="345" type="line" smooth="yes"/>
      <point x="318" y="345"/>
      <point x="329" y="356"/>
      <point x="329" y="381" type="curve"/>
      <point x="329" y="529" type="line"/>
      <point x="329" y="554"/>
      <point x="318" y="565"/>
      <point x="293" y="565" type="curve" smooth="yes"/>
      <point x="184" y="565" type="line"/>
      <point x="184" y="580" type="line" smooth="yes"/>
      <point x="184" y="598"/>
      <point x="193" y="608"/>
      <point x="211" y="608" type="curve" smooth="yes"/>
      <point x="280" y="608" type="line" smooth="yes"/>
      <point x="305" y="608"/>
      <point x="316" y="619"/>
      <point x="316" y="644" type="curve"/>
      <point x="316" y="684" type="line"/>
      <point x="316" y="710"/>
      <point x="305" y="720"/>
      <point x="280" y="720" type="curve" smooth="yes"/>
    </contour>
  </outline>
</glyph>
<glyph name="quoteright" format="2">
  <advance width="384"/>
  <unicode hex="2019"/>
  <outline>
    <contour>
      <point x="181" y="345" type="line" smooth="yes"/>
      <point x="271" y="345"/>
      <point x="329" y="394"/>
      <point x="329" y="496" type="curve" smooth="yes"/>
      <point x="329" y="684" type="line" smooth="yes"/>
      <point x="329" y="709"/>
      <point x="318" y="720"/>
      <point x="293" y="720" type="curve" smooth="yes"/>
      <point x="91" y="720" type="line" smooth="yes"/>
      <point x="66" y="720"/>
      <point x="55" y="709"/>
      <point x="55" y="684" type="curve"/>
      <point x="55" y="536" type="line"/>
      <point x="55" y="511"/>
      <point x="66" y="500"/>
      <point x="91" y="500" type="curve" smooth="yes"/>
      <point x="200" y="500" type="line"/>
      <point x="200" y="485" type="line" smooth="yes"/>
      <point x="200" y="467"/>
      <point x="191" y="457"/>
      <point x="173" y="457" type="curve" smooth="yes"/>
      <point x="104" y="457" type="line" smooth="yes"/>
      <point x="79" y="457"/>
      <point x="68" y="446"/>
      <point x="68" y="421" type="curve"/>
      <point x="68" y="381" type="line"/>
      <point x="68" y="355"/>
      <point x="79" y="345"/>
      <point x="104" y="345" type="curve" smooth="yes"/>
    </contour>
  </outline>
</glyph>
<glyph name="quotedblleft" format="1">
  <advance width="684"/>
  <unicode hex="201C"/>
  <outline>
    <contour>
      <point x="513.0" y="720.0" type="line" smooth="yes"/>
      <point x="423.0" y="720.0"/>
      <point x="365.0" y="671.0"/>
      <point x="365.0" y="569.0" type="curve" smooth="yes"/>
      <point x="365.0" y="381.0" type="line" smooth="yes"/>
      <point x="365.0" y="356.0"/>
      <point x="376.0" y="345.0"/>
      <point x="401.0" y="345.0" type="curve" smooth="yes"/>
      <point x="603.0" y="345.0" type="line" smooth="yes"/>
      <point x="628.0" y="345.0"/>
      <point x="639.0" y="356.0"/>
      <point x="639.0" y="381.0" type="curve"/>
      <point x="639.0" y="529.0" type="line"/>
      <point x="639.0" y="554.0"/>
      <point x="628.0" y="565.0"/>
      <point x="603.0" y="565.0" type="curve" smooth="yes"/>
      <point x="494.0" y="565.0" type="line"/>
      <point x="494.0" y="580.0" type="line" smooth="yes"/>
      <point x="494.0" y="598.0"/>
      <point x="503.0" y="608.0"/>
      <point x="521.0" y="608.0" type="curve" smooth="yes"/>
      <point x="590.0" y="608.0" type="line" smooth="yes"/>
      <point x="615.0" y="608.0"/>
      <point x="626.0" y="619.0"/>
      <point x="626.0" y="644.0" type="curve"/>
      <point x="626.0" y="684.0" type="line"/>
      <point x="626.0" y="710.0"/>
      <point x="615.0" y="720.0"/>
      <point x="590.0" y="720.0" type="curve" smooth="yes"/>
    </contour>
    <contour>
      <point x="193.0" y="720.0" type="line" smooth="yes"/>
      <point x="103.0" y="720.0"/>
      <point x="45.0" y="671.0"/>
      <point x="45.0" y="569.0" type="curve" smooth="yes"/>
      <point x="45.0" y="381.0" type="line" smooth="yes"/>
      <point x="45.0" y="356.0"/>
      <point x="56.0" y="345.0"/>
      <point x="81.0" y="345.0" type="curve" smooth="yes"/>
      <point x="283.0" y="345.0" type="line" smooth="yes"/>
      <point x="308.0" y="345.0"/>
      <point x="319.0" y="356.0"/>
      <point x="319.0" y="381.0" type="curve" smooth="yes"/>
      <point x="319.0" y="529.0" type="line" smooth="yes"/>
      <point x="319.0" y="554.0"/>
      <point x="308.0" y="565.0"/>
      <point x="283.0" y="565.0" type="curve" smooth="yes"/>
      <point x="174.0" y="565.0" type="line"/>
      <point x="174.0" y="580.0" type="line" smooth="yes"/>
      <point x="174.0" y="598.0"/>
      <point x="183.0" y="608.0"/>
      <point x="201.0" y="608.0" type="curve" smooth="yes"/>
      <point x="270.0" y="608.0" type="line" smooth="yes"/>
      <point x="295.0" y="608.0"/>
      <point x="306.0" y="619.0"/>
      <point x="306.0" y="644.0" type="curve" smooth="yes"/>
      <point x="306.0" y="684.0" type="line" smooth="yes"/>
      <point x="306.0" y="710.0"/>
      <point x="295.0" y="720.0"/>
      <point x="270.0" y="720.0" type="curve" smooth="yes"/>
    </contour>
  </outline>
</glyph>
<glyph name="bullet" format="2">
  <advance width="443"/>
  <unicode hex="2022"/>
  <outline>
    <contour>
      <point x="362.0" y="185.0" type="line" smooth="yes"/>
      <point x="387.0" y="185.0"/>
      <point x="398.0" y="196.0"/>
      <point x="398.0" y="221.0" type="curve" smooth="yes"/>
      <point x="398.0" y="503.0" type="line" smooth="yes"/>
      <point x="398.0" y="529.0"/>
      <point x="387.0" y="539.0"/>
      <point x="362.0" y="539.0" type="curve" smooth="yes"/>
      <point x="81.0" y="539.0" type="line" smooth="yes"/>
      <point x="56.0" y="539.0"/>
      <point x="45.0" y="529.0"/>
      <point x="45.0" y="503.0" type="curve" smooth="yes"/>
      <point x="45.0" y="221.0" type="line" smooth="yes"/>
      <point x="45.0" y="196.0"/>
      <point x="56.0" y="185.0"/>
      <point x="81.0" y="185.0" type="curve" smooth="yes"/>
    </contour>
  </outline>
</glyph>
<glyph name="ellipsis" format="1">
  <advance width="1110"/>
  <unicode hex="2026"/>
  <outline>
    <contour>
      <point x="293" y="0" type="line" smooth="yes"/>
      <point x="318" y="0"/>
      <point x="329" y="11"/>
      <point x="329" y="36" type="curve" smooth="yes"/>
      <point x="329" y="239" type="line" smooth="yes"/>
      <point x="329" y="265"/>
      <point x="318" y="275"/>
      <point x="293" y="275" type="curve" smooth="yes"/>
      <point x="91" y="275" type="line" smooth="yes"/>
      <point x="66" y="275"/>
      <point x="55" y="265"/>
      <point x="55" y="239" type="curve"/>
      <point x="55" y="36" type="line"/>
      <point x="55" y="11"/>
      <point x="66" y="0"/>
      <point x="91" y="0" type="curve" smooth="yes"/>
    </contour>
    <contour>
      <point x="656" y="0" type="line" smooth="yes"/>
      <point x="681" y="0"/>
      <point x="692" y="11"/>
      <point x="692" y="36" type="curve" smooth="yes"/>
      <point x="692" y="239" type="line" smooth="yes"/>
      <point x="692" y="265"/>
      <point x="681" y="275"/>
      <point x="656" y="275" type="curve" smooth="yes"/>
      <point x="454" y="275" type="line" smooth="yes"/>
      <point x="429" y="275"/>
      <point x="418" y="265"/>
      <point x="418" y="239" type="curve"/>
      <point x="418" y="36" type="line"/>
      <point x="418" y="11"/>
      <point x="429" y="0"/>
      <point x="454" y="0" type="curve" smooth="yes"/>
    </contour>
    <contour>
      <point x="1019" y="0" type="line" smooth="yes"/>
      <point x="1044" y="0"/>
      <point x="1055" y="11"/>
      <point x="1055" y="36" type="curve" smooth="yes"/>
      <point x="1055" y="239" type="line" smooth="yes"/>
      <point x="1055" y="265"/>
      <point x="1044" y="275"/>
      <point x="1019" y="275" type="curve" smooth="yes"/>
      <point x="817" y="275" type="line" smooth="yes"/>
      <point x="792" y="275"/>
      <point x="781" y="265"/>
      <point x="781" y="239" type="curve"/>
      <point x="781" y="36" type="line"/>
      <point x="781" y="11"/>
      <point x="792" y="0"/>
      <point x="817" y="0" type="curve" smooth="yes"/>
    </contour>
  </outline>
</glyph>
<glyph name="perthousand" format="1">
  <advance width="1417"/>
  <unicode hex="2030"/>
  <outline>
    <contour>
      <point x="352" y="36" type="line" smooth="yes"/>
      <point x="346" y="12"/>
      <point x="358" y="0"/>
      <point x="383" y="0" type="curve" smooth="yes"/>
      <point x="488" y="0" type="line" smooth="yes"/>
      <point x="513" y="0"/>
      <point x="523" y="12"/>
      <point x="529" y="36" type="curve" smooth="yes"/>
      <point x="689" y="684" type="line" smooth="yes"/>
      <point x="695" y="708"/>
      <point x="683" y="720"/>
      <point x="658" y="720" type="curve" smooth="yes"/>
      <point x="553" y="720" type="line" smooth="yes"/>
      <point x="528" y="720"/>
      <point x="518" y="708"/>
      <point x="512" y="684" type="curve" smooth="yes"/>
    </contour>
    <contour>
      <point x="398" y="416" type="curve"/>
      <point x="398" y="606" type="line" smooth="yes"/>
      <point x="398" y="677"/>
      <point x="364" y="725"/>
      <point x="221" y="725" type="curve" smooth="yes"/>
      <point x="78" y="725"/>
      <point x="42" y="677"/>
      <point x="42" y="606" type="curve" smooth="yes"/>
      <point x="42" y="416" type="line" smooth="yes"/>
      <point x="42" y="345"/>
      <point x="78" y="297"/>
      <point x="221" y="297" type="curve" smooth="yes"/>
      <point x="364" y="297"/>
      <point x="398" y="345"/>
    </contour>
    <contour>
      <point x="187" y="447" type="curve"/>
      <point x="187" y="575" type="line" smooth="yes"/>
      <point x="187" y="583"/>
      <point x="192" y="592"/>
      <point x="221" y="592" type="curve" smooth="yes"/>
      <point x="249" y="592"/>
      <point x="254" y="583"/>
      <point x="254" y="575" type="curve" smooth="yes"/>
      <point x="254" y="447" type="line" smooth="yes"/>
      <point x="254" y="437"/>
      <point x="249" y="429"/>
      <point x="221" y="429" type="curve" smooth="yes"/>
      <point x="192" y="429"/>
      <point x="187" y="437"/>
    </contour>
    <contour>
      <point x="996" y="113" type="curve"/>
      <point x="996" y="303" type="line" smooth="yes"/>
      <point x="996" y="374"/>
      <point x="962" y="422"/>
      <point x="819" y="422" type="curve" smooth="yes"/>
      <point x="676" y="422"/>
      <point x="640" y="374"/>
      <point x="640" y="303" type="curve" smooth="yes"/>
      <point x="640" y="113" type="line" smooth="yes"/>
      <point x="640" y="42"/>
      <point x="676" y="-6"/>
      <point x="819" y="-6" type="curve" smooth="yes"/>
      <point x="962" y="-6"/>
      <point x="996" y="42"/>
    </contour>
    <contour>
      <point x="785" y="144" type="curve"/>
      <point x="785" y="272" type="line" smooth="yes"/>
      <point x="785" y="280"/>
      <point x="790" y="289"/>
      <point x="819" y="289" type="curve" smooth="yes"/>
      <point x="847" y="289"/>
      <point x="852" y="280"/>
      <point x="852" y="272" type="curve" smooth="yes"/>
      <point x="852" y="144" type="line" smooth="yes"/>
      <point x="852" y="134"/>
      <point x="847" y="126"/>
      <point x="819" y="126" type="curve" smooth="yes"/>
      <point x="790" y="126"/>
      <point x="785" y="134"/>
    </contour>
    <contour>
      <point x="1393" y="113" type="curve"/>
      <point x="1393" y="303" type="line" smooth="yes"/>
      <point x="1393" y="374"/>
      <point x="1359" y="422"/>
      <point x="1216" y="422" type="curve" smooth="yes"/>
      <point x="1073" y="422"/>
      <point x="1037" y="374"/>
      <point x="1037" y="303" type="curve" smooth="yes"/>
      <point x="1037" y="113" type="line" smooth="yes"/>
      <point x="1037" y="42"/>
      <point x="1073" y="-6"/>
      <point x="1216" y="-6" type="curve" smooth="yes"/>
      <point x="1359" y="-6"/>
      <point x="1393" y="42"/>
    </contour>
    <contour>
      <point x="1182" y="144" type="curve"/>
      <point x="1182" y="272" type="line" smooth="yes"/>
      <point x="1182" y="280"/>
      <point x="1187" y="289"/>
      <point x="1216" y="289" type="curve" smooth="yes"/>
      <point x="1244" y="289"/>
      <point x="1249" y="280"/>
      <point x="1249" y="272" type="curve" smooth="yes"/>
      <point x="1249" y="144" type="line" smooth="yes"/>
      <point x="1249" y="134"/>
      <point x="1244" y="126"/>
      <point x="1216" y="126" type="curve" smooth="yes"/>
      <point x="1187" y="126"/>
      <point x="1182" y="134"/>
    </contour>
  </outline>
</glyph>
<glyph name="minute" format="1">
  <advance width="356"/>
  <unicode hex="2032"/>
  <outline>
    <contour>
      <point x="240" y="345" type="line" smooth="yes"/>
      <point x="273" y="345"/>
      <point x="279" y="353"/>
      <point x="282" y="386" type="curve" smooth="yes"/>
      <point x="310" y="679" type="line" smooth="yes"/>
      <point x="313" y="712"/>
      <point x="303" y="720"/>
      <point x="271" y="720" type="curve" smooth="yes"/>
      <point x="106" y="720" type="line" smooth="yes"/>
      <point x="73" y="720"/>
      <point x="67" y="712"/>
      <point x="66" y="679" type="curve" smooth="yes"/>
      <point x="54" y="386" type="line" smooth="yes"/>
      <point x="53" y="353"/>
      <point x="63" y="345"/>
      <point x="96" y="345" type="curve" smooth="yes"/>
    </contour>
  </outline>
</glyph>
<glyph name="second" format="1">
  <advance width="665.50617284"/>
  <unicode hex="2033"/>
  <outline>
    <contour>
      <point x="240" y="345" type="line" smooth="yes"/>
      <point x="273" y="345"/>
      <point x="279" y="353"/>
      <point x="282" y="386" type="curve" smooth="yes"/>
      <point x="310" y="679" type="line" smooth="yes"/>
      <point x="313" y="712"/>
      <point x="303" y="720"/>
      <point x="271" y="720" type="curve" smooth="yes"/>
      <point x="106" y="720" type="line" smooth="yes"/>
      <point x="73" y="720"/>
      <point x="67" y="712"/>
      <point x="66" y="679" type="curve" smooth="yes"/>
      <point x="54" y="386" type="line" smooth="yes"/>
      <point x="53" y="353"/>
      <point x="63" y="345"/>
      <point x="96" y="345" type="curve" smooth="yes"/>
    </contour>
    <contour>
      <point x="550" y="345" type="line" smooth="yes"/>
      <point x="583" y="345"/>
      <point x="589" y="353"/>
      <point x="592" y="386" type="curve" smooth="yes"/>
      <point x="620" y="679" type="line" smooth="yes"/>
      <point x="623" y="712"/>
      <point x="613" y="720"/>
      <point x="581" y="720" type="curve" smooth="yes"/>
      <point x="416" y="720" type="line" smooth="yes"/>
      <point x="383" y="720"/>
      <point x="377" y="712"/>
      <point x="376" y="679" type="curve" smooth="yes"/>
      <point x="364" y="386" type="line" smooth="yes"/>
      <point x="363" y="353"/>
      <point x="373" y="345"/>
      <point x="406" y="345" type="curve" smooth="yes"/>
    </contour>
  </outline>
</glyph>
<glyph name="guilsinglleft" format="2">
  <advance width="563"/>
  <unicode hex="2039"/>
  <outline>
    <contour>
      <point x="447.0" y="104.0" type="line" smooth="yes"/>
      <point x="472.0" y="99.0"/>
      <point x="483.0" y="109.0"/>
      <point x="483.0" y="135.0" type="curve" smooth="yes"/>
      <point x="483.0" y="262.0" type="line" smooth="yes"/>
      <point x="483.0" y="288.0"/>
      <point x="472.0" y="299.0"/>
      <point x="447.0" y="303.0" type="curve" smooth="yes"/>
      <point x="281.0" y="330.0" type="line" smooth="yes"/>
      <point x="267.0" y="332.0"/>
      <point x="264.0" y="337.0"/>
      <point x="264.0" y="349.0" type="curve" smooth="yes"/>
      <point x="264.0" y="361.0"/>
      <point x="267.0" y="366.0"/>
      <point x="281.0" y="368.0" type="curve" smooth="yes"/>
      <point x="447.0" y="395.0" type="line" smooth="yes"/>
      <point x="472.0" y="399.0"/>
      <point x="483.0" y="410.0"/>
      <point x="483.0" y="436.0" type="curve" smooth="yes"/>
      <point x="483.0" y="563.0" type="line" smooth="yes"/>
      <point x="483.0" y="589.0"/>
      <point x="472.0" y="599.0"/>
      <point x="447.0" y="594.0" type="curve" smooth="yes"/>
      <point x="187.0" y="541.0" type="line" smooth="yes"/>
      <point x="102.0" y="524.0"/>
      <point x="60.0" y="485.0"/>
      <point x="60.0" y="386.0" type="curve" smooth="yes"/>
      <point x="60.0" y="312.0" type="line" smooth="yes"/>
      <point x="60.0" y="213.0"/>
      <point x="102.0" y="174.0"/>
      <point x="187.0" y="157.0" type="curve" smooth="yes"/>
    </contour>
  </outline>
</glyph>
<glyph name="guilsinglright" format="1">
  <advance width="563"/>
  <unicode hex="203A"/>
  <outline>
    <contour>
      <point x="376" y="157" type="line"/>
      <point x="461" y="174"/>
      <point x="503" y="213"/>
      <point x="503" y="312" type="curve" smooth="yes"/>
      <point x="503" y="386" type="line" smooth="yes"/>
      <point x="503" y="485"/>
      <point x="461" y="524"/>
      <point x="376" y="541" type="curve" smooth="yes"/>
      <point x="116" y="594" type="line" smooth="yes"/>
      <point x="91" y="599"/>
      <point x="80" y="589"/>
      <point x="80" y="563" type="curve" smooth="yes"/>
      <point x="80" y="436" type="line" smooth="yes"/>
      <point x="80" y="410"/>
      <point x="91" y="399"/>
      <point x="116" y="395" type="curve" smooth="yes"/>
      <point x="282" y="368" type="line" smooth="yes"/>
      <point x="296" y="366"/>
      <point x="299" y="361"/>
      <point x="299" y="349" type="curve" smooth="yes"/>
      <point x="299" y="337"/>
      <point x="296" y="332"/>
      <point x="282" y="330" type="curve" smooth="yes"/>
      <point x="116" y="303" type="line" smooth="yes"/>
      <point x="91" y="299"/>
      <point x="80" y="288"/>
      <point x="80" y="262" type="curve" smooth="yes"/>
      <point x="80" y="135" type="line" smooth="yes"/>
      <point x="80" y="109"/>
      <point x="91" y="99"/>
      <point x="116" y="104" type="curve" smooth="yes"/>
    </contour>
  </outline>
</glyph>
<glyph name="naira" format="1">
  <advance width="753"/>
  <unicode hex="20A6"/>
  <outline>
    <contour>
      <point x="88" y="474" type="line"/>
      <point x="56" y="474" type="line" smooth="yes"/>
      <point x="31" y="474"/>
      <point x="20" y="463"/>
      <point x="20" y="438" type="curve" smooth="yes"/>
      <point x="20" y="411" type="line" smooth="yes"/>
      <point x="20" y="385"/>
      <point x="31" y="375"/>
      <point x="56" y="375" type="curve"/>
      <point x="88" y="375" type="line"/>
    </contour>
    <contour>
      <point x="660" y="375" type="line"/>
      <point x="697" y="375" type="line" smooth="yes"/>
      <point x="722" y="375"/>
      <point x="733" y="385"/>
      <point x="733" y="411" type="curve" smooth="yes"/>
      <point x="733" y="438" type="line" smooth="yes"/>
      <point x="733" y="464"/>
      <point x="722" y="474"/>
      <point x="697" y="474" type="curve" smooth="yes"/>
      <point x="660" y="474" type="line"/>
    </contour>
    <contour>
      <point x="88" y="334" type="line"/>
      <point x="56" y="334" type="line" smooth="yes"/>
      <point x="31" y="334"/>
      <point x="20" y="323"/>
      <point x="20" y="298" type="curve" smooth="yes"/>
      <point x="20" y="271" type="line" smooth="yes"/>
      <point x="20" y="245"/>
      <point x="31" y="235"/>
      <point x="56" y="235" type="curve"/>
      <point x="88" y="235" type="line"/>
    </contour>
    <contour>
      <point x="660" y="235" type="line"/>
      <point x="697" y="235" type="line" smooth="yes"/>
      <point x="722" y="235"/>
      <point x="733" y="245"/>
      <point x="733" y="271" type="curve" smooth="yes"/>
      <point x="733" y="298" type="line" smooth="yes"/>
      <point x="733" y="324"/>
      <point x="722" y="334"/>
      <point x="697" y="334" type="curve" smooth="yes"/>
      <point x="660" y="334" type="line"/>
    </contour>
    <contour>
      <point x="255" y="0" type="line" smooth="yes"/>
      <point x="280" y="0"/>
      <point x="291" y="11"/>
      <point x="291" y="36" type="curve" smooth="yes"/>
      <point x="291" y="366" type="line"/>
      <point x="462" y="159" type="line"/>
      <point x="462" y="36" type="line" smooth="yes"/>
      <point x="462" y="11"/>
      <point x="473" y="0"/>
      <point x="498" y="0" type="curve" smooth="yes"/>
      <point x="648" y="0" type="line" smooth="yes"/>
      <point x="673" y="0"/>
      <point x="684" y="11"/>
      <point x="684" y="36" type="curve" smooth="yes"/>
      <point x="684" y="684" type="line" smooth="yes"/>
      <point x="684" y="709"/>
      <point x="673" y="720"/>
      <point x="648" y="720" type="curve" smooth="yes"/>
      <point x="498" y="720" type="line" smooth="yes"/>
      <point x="473" y="720"/>
      <point x="462" y="709"/>
      <point x="462" y="684" type="curve" smooth="yes"/>
      <point x="462" y="471" type="line"/>
      <point x="268" y="693" type="line" smooth="yes"/>
      <point x="251" y="713"/>
      <point x="235" y="720"/>
      <point x="209" y="720" type="curve" smooth="yes"/>
      <point x="105" y="720" type="line" smooth="yes"/>
      <point x="80" y="720"/>
      <point x="69" y="709"/>
      <point x="69" y="684" type="curve" smooth="yes"/>
      <point x="69" y="36" type="line" smooth="yes"/>
      <point x="69" y="11"/>
      <point x="80" y="0"/>
      <point x="105" y="0" type="curve" smooth="yes"/>
    </contour>
  </outline>
</glyph>
<glyph name="peseta" format="1">
  <advance width="712.0"/>
  <unicode hex="20A7"/>
  <outline>
    <contour>
      <point x="88" y="528" type="line"/>
      <point x="56" y="528" type="line" smooth="yes"/>
      <point x="31" y="528"/>
      <point x="20" y="517"/>
      <point x="20" y="492" type="curve" smooth="yes"/>
      <point x="20" y="425" type="line" smooth="yes"/>
      <point x="20" y="399"/>
      <point x="31" y="389"/>
      <point x="56" y="389" type="curve"/>
      <point x="88" y="389" type="line"/>
    </contour>
    <contour>
      <point x="627" y="389" type="line"/>
      <point x="664" y="389" type="line" smooth="yes"/>
      <point x="689" y="389"/>
      <point x="700" y="399"/>
      <point x="700" y="425" type="curve" smooth="yes"/>
      <point x="700" y="492" type="line" smooth="yes"/>
      <point x="700" y="518"/>
      <point x="689" y="528"/>
      <point x="664" y="528" type="curve" smooth="yes"/>
      <point x="627" y="528" type="line"/>
    </contour>
    <contour>
      <point x="260" y="0" type="line" smooth="yes"/>
      <point x="285" y="0"/>
      <point x="296" y="11"/>
      <point x="296" y="36" type="curve" smooth="yes"/>
      <point x="296" y="202" type="line"/>
      <point x="411" y="202" type="line" smooth="yes"/>
      <point x="593" y="202"/>
      <point x="647" y="281"/>
      <point x="647" y="397" type="curve" smooth="yes"/>
      <point x="647" y="525" type="line" smooth="yes"/>
      <point x="647" y="641"/>
      <point x="593" y="720"/>
      <point x="411" y="720" type="curve" smooth="yes"/>
      <point x="105" y="720" type="line" smooth="yes"/>
      <point x="80" y="720"/>
      <point x="69" y="709"/>
      <point x="69" y="684" type="curve" smooth="yes"/>
      <point x="69" y="36" type="line" smooth="yes"/>
      <point x="69" y="11"/>
      <point x="80" y="0"/>
      <point x="105" y="0" type="curve" smooth="yes"/>
    </contour>
    <contour>
      <point x="294" y="533" type="line"/>
      <point x="384" y="533" type="line" smooth="yes"/>
      <point x="423" y="533"/>
      <point x="431" y="510"/>
      <point x="431" y="484" type="curve" smooth="yes"/>
      <point x="431" y="431" type="line" smooth="yes"/>
      <point x="431" y="405"/>
      <point x="423" y="382"/>
      <point x="384" y="382" type="curve" smooth="yes"/>
      <point x="294" y="382" type="line"/>
    </contour>
  </outline>
</glyph>
<glyph name="Euro" format="2">
  <advance width="648"/>
  <unicode hex="20AC"/>
  <outline>
    <contour>
      <point x="64" y="379" type="curve"/>
      <point x="476" y="379" type="line" smooth="yes"/>
      <point x="493" y="379"/>
      <point x="500" y="383"/>
      <point x="500" y="402" type="curve" smooth="yes"/>
      <point x="500" y="474" type="line" smooth="yes"/>
      <point x="500" y="493"/>
      <point x="493" y="498"/>
      <point x="476" y="498" type="curve" smooth="yes"/>
      <point x="64" y="498" type="line" smooth="yes"/>
      <point x="47" y="498"/>
      <point x="40" y="493"/>
      <point x="40" y="474" type="curve" smooth="yes"/>
      <point x="40" y="402" type="line" smooth="yes"/>
      <point x="40" y="383"/>
      <point x="47" y="379"/>
    </contour>
    <contour>
      <point x="568" y="0" type="line" smooth="yes"/>
      <point x="593" y="0"/>
      <point x="604" y="11"/>
      <point x="604" y="36" type="curve" smooth="yes"/>
      <point x="604" y="145" type="line" smooth="yes"/>
      <point x="604" y="170"/>
      <point x="593" y="181"/>
      <point x="568" y="181" type="curve" smooth="yes"/>
      <point x="357" y="181" type="line" smooth="yes"/>
      <point x="305" y="181"/>
      <point x="296" y="201"/>
      <point x="296" y="229" type="curve" smooth="yes"/>
      <point x="296" y="487" type="line" smooth="yes"/>
      <point x="296" y="513"/>
      <point x="305" y="537"/>
      <point x="357" y="537" type="curve" smooth="yes"/>
      <point x="568" y="537" type="line" smooth="yes"/>
      <point x="593" y="537"/>
      <point x="604" y="548"/>
      <point x="604" y="573" type="curve" smooth="yes"/>
      <point x="604" y="684" type="line" smooth="yes"/>
      <point x="604" y="709"/>
      <point x="593" y="720"/>
      <point x="568" y="720" type="curve" smooth="yes"/>
      <point x="324" y="720" type="line" smooth="yes"/>
      <point x="135" y="720"/>
      <point x="78" y="637"/>
      <point x="78" y="515" type="curve" smooth="yes"/>
      <point x="78" y="204" type="line" smooth="yes"/>
      <point x="78" y="83"/>
      <point x="135" y="0"/>
      <point x="324" y="0" type="curve" smooth="yes"/>
    </contour>
    <contour>
      <point x="64" y="219" type="curve"/>
      <point x="476" y="219" type="line" smooth="yes"/>
      <point x="493" y="219"/>
      <point x="500" y="223"/>
      <point x="500" y="242" type="curve" smooth="yes"/>
      <point x="500" y="314" type="line" smooth="yes"/>
      <point x="500" y="333"/>
      <point x="493" y="338"/>
      <point x="476" y="338" type="curve"/>
      <point x="64" y="338" type="line" smooth="yes"/>
      <point x="47" y="338"/>
      <point x="40" y="333"/>
      <point x="40" y="314" type="curve" smooth="yes"/>
      <point x="40" y="242" type="line" smooth="yes"/>
      <point x="40" y="223"/>
      <point x="47" y="219"/>
    </contour>
  </outline>
</glyph>
<glyph name="peso" format="1">
  <advance width="712.0"/>
  <unicode hex="20B1"/>
  <outline>
    <contour>
      <point x="108" y="564" type="line"/>
      <point x="56" y="564" type="line" smooth="yes"/>
      <point x="31" y="564"/>
      <point x="20" y="553"/>
      <point x="20" y="528" type="curve" smooth="yes"/>
      <point x="20" y="501" type="line" smooth="yes"/>
      <point x="20" y="475"/>
      <point x="31" y="465"/>
      <point x="56" y="465" type="curve"/>
      <point x="108" y="465" type="line"/>
    </contour>
    <contour>
      <point x="607" y="465" type="line"/>
      <point x="664" y="465" type="line" smooth="yes"/>
      <point x="689" y="465"/>
      <point x="700" y="475"/>
      <point x="700" y="501" type="curve" smooth="yes"/>
      <point x="700" y="528" type="line" smooth="yes"/>
      <point x="700" y="554"/>
      <point x="689" y="564"/>
      <point x="664" y="564" type="curve" smooth="yes"/>
      <point x="607" y="564" type="line"/>
    </contour>
    <contour>
      <point x="108" y="424" type="line"/>
      <point x="56" y="424" type="line" smooth="yes"/>
      <point x="31" y="424"/>
      <point x="20" y="413"/>
      <point x="20" y="388" type="curve" smooth="yes"/>
      <point x="20" y="361" type="line" smooth="yes"/>
      <point x="20" y="335"/>
      <point x="31" y="325"/>
      <point x="56" y="325" type="curve"/>
      <point x="108" y="325" type="line"/>
    </contour>
    <contour>
      <point x="607" y="325" type="line"/>
      <point x="664" y="325" type="line" smooth="yes"/>
      <point x="689" y="325"/>
      <point x="700" y="335"/>
      <point x="700" y="361" type="curve" smooth="yes"/>
      <point x="700" y="388" type="line" smooth="yes"/>
      <point x="700" y="414"/>
      <point x="689" y="424"/>
      <point x="664" y="424" type="curve" smooth="yes"/>
      <point x="607" y="424" type="line"/>
    </contour>
    <contour>
      <point x="260" y="0" type="line" smooth="yes"/>
      <point x="285" y="0"/>
      <point x="296" y="11"/>
      <point x="296" y="36" type="curve" smooth="yes"/>
      <point x="296" y="202" type="line"/>
      <point x="411" y="202" type="line" smooth="yes"/>
      <point x="593" y="202"/>
      <point x="647" y="281"/>
      <point x="647" y="397" type="curve" smooth="yes"/>
      <point x="647" y="525" type="line" smooth="yes"/>
      <point x="647" y="641"/>
      <point x="593" y="720"/>
      <point x="411" y="720" type="curve" smooth="yes"/>
      <point x="105" y="720" type="line" smooth="yes"/>
      <point x="80" y="720"/>
      <point x="69" y="709"/>
      <point x="69" y="684" type="curve" smooth="yes"/>
      <point x="69" y="36" type="line" smooth="yes"/>
      <point x="69" y="11"/>
      <point x="80" y="0"/>
      <point x="105" y="0" type="curve" smooth="yes"/>
    </contour>
    <contour>
      <point x="294" y="533" type="line"/>
      <point x="384" y="533" type="line" smooth="yes"/>
      <point x="423" y="533"/>
      <point x="431" y="510"/>
      <point x="431" y="484" type="curve" smooth="yes"/>
      <point x="431" y="431" type="line" smooth="yes"/>
      <point x="431" y="405"/>
      <point x="423" y="382"/>
      <point x="384" y="382" type="curve" smooth="yes"/>
      <point x="294" y="382" type="line"/>
    </contour>
  </outline>
</glyph>
<glyph name="liter" format="1">
  <advance width="649"/>
  <unicode hex="2113"/>
  <outline>
    <contour>
      <point x="320" y="406" type="curve"/>
      <point x="276" y="406" type="line"/>
      <point x="276" y="515" type="line"/>
      <point x="276" y="542"/>
      <point x="282" y="562"/>
      <point x="320" y="562" type="curve" smooth="yes"/>
      <point x="358" y="562"/>
      <point x="364" y="542"/>
      <point x="364" y="515" type="curve" smooth="yes"/>
      <point x="364" y="453" type="line" smooth="yes"/>
      <point x="364" y="426"/>
      <point x="358" y="406"/>
    </contour>
    <contour>
      <point x="514" y="36" type="curve" smooth="yes"/>
      <point x="514" y="153" type="line" smooth="yes"/>
      <point x="514" y="178"/>
      <point x="503" y="189"/>
      <point x="478" y="189" type="curve" smooth="yes"/>
      <point x="337" y="189" type="line" smooth="yes"/>
      <point x="285" y="189"/>
      <point x="276" y="209"/>
      <point x="276" y="237" type="curve"/>
      <point x="276" y="247" type="line"/>
      <point x="320" y="247" type="line" smooth="yes"/>
      <point x="538" y="247"/>
      <point x="591" y="323"/>
      <point x="591" y="437" type="curve"/>
      <point x="591" y="531" type="line" smooth="yes"/>
      <point x="591" y="653"/>
      <point x="538" y="735"/>
      <point x="320" y="735" type="curve" smooth="yes"/>
      <point x="108" y="735"/>
      <point x="58" y="653"/>
      <point x="58" y="531" type="curve"/>
      <point x="58" y="204" type="line" smooth="yes"/>
      <point x="58" y="83"/>
      <point x="115" y="0"/>
      <point x="304" y="0" type="curve" smooth="yes"/>
      <point x="478" y="0" type="line" smooth="yes"/>
      <point x="503" y="0"/>
      <point x="514" y="11"/>
    </contour>
  </outline>
</glyph>
<glyph name="uni2117" format="1">
  <advance width="867"/>
  <unicode hex="2117"/>
  <outline>
    <contour>
      <point x="807.0" y="154.0" type="curve" smooth="yes"/>
      <point x="807.0" y="564.0" type="line" smooth="yes"/>
      <point x="807.0" y="711.0"/>
      <point x="735.0" y="811.0"/>
      <point x="434.0" y="811.0" type="curve" smooth="yes"/>
      <point x="134.0" y="811.0"/>
      <point x="60.0" y="711.0"/>
      <point x="60.0" y="564.0" type="curve" smooth="yes"/>
      <point x="60.0" y="154.0" type="line" smooth="yes"/>
      <point x="60.0" y="8.0"/>
      <point x="134.0" y="-91.0"/>
      <point x="434.0" y="-91.0" type="curve" smooth="yes"/>
      <point x="735.0" y="-91.0"/>
      <point x="807.0" y="8.0"/>
    </contour>
    <contour>
      <point x="707.0" y="150.0" type="line"/>
      <point x="707.0" y="64.0"/>
      <point x="654.0" y="5.0"/>
      <point x="434.0" y="5.0" type="curve" smooth="yes"/>
      <point x="214.0" y="5.0"/>
      <point x="160.0" y="64.0"/>
      <point x="160.0" y="150.0" type="curve"/>
      <point x="160.0" y="568.0" type="line"/>
      <point x="160.0" y="655.0"/>
      <point x="214.0" y="715.0"/>
      <point x="434.0" y="715.0" type="curve" smooth="yes"/>
      <point x="654.0" y="715.0"/>
      <point x="707.0" y="655.0"/>
      <point x="707.0" y="568.0" type="curve"/>
    </contour>
    <contour>
      <point x="370.419986486" y="110.0" type="line" smooth="yes"/>
      <point x="388.344985187" y="110.0"/>
      <point x="396.231984615" y="117.886999428"/>
      <point x="396.231984615" y="135.811998129" type="curve" smooth="yes"/>
      <point x="396.231984615" y="254.833989501" type="line"/>
      <point x="478.686978638" y="254.833989501" type="line" smooth="yes"/>
      <point x="609.180969179" y="254.833989501"/>
      <point x="647.898966372" y="311.476985395"/>
      <point x="647.898966372" y="394.648979366" type="curve" smooth="yes"/>
      <point x="647.898966372" y="486.424972713" type="line" smooth="yes"/>
      <point x="647.898966372" y="569.596966684"/>
      <point x="609.180969179" y="626.239962578"/>
      <point x="478.686978638" y="626.239962578" type="curve" smooth="yes"/>
      <point x="259.284994543" y="626.239962578" type="line" smooth="yes"/>
      <point x="241.359995842" y="626.239962578"/>
      <point x="233.472996414" y="618.35296315"/>
      <point x="233.472996414" y="600.427964449" type="curve" smooth="yes"/>
      <point x="233.472996414" y="135.811998129" type="line" smooth="yes"/>
      <point x="233.472996414" y="117.886999428"/>
      <point x="241.359995842" y="110.0"/>
      <point x="259.284994543" y="110.0" type="curve" smooth="yes"/>
    </contour>
    <contour>
      <point x="394.797984719" y="492.160972297" type="line"/>
      <point x="459.327980042" y="492.160972297" type="line" smooth="yes"/>
      <point x="487.290978015" y="492.160972297"/>
      <point x="493.026977599" y="475.669973493"/>
      <point x="493.026977599" y="457.027974844" type="curve" smooth="yes"/>
      <point x="493.026977599" y="419.026977599" type="line" smooth="yes"/>
      <point x="493.026977599" y="400.38497895"/>
      <point x="487.290978015" y="383.893980146"/>
      <point x="459.327980042" y="383.893980146" type="curve" smooth="yes"/>
      <point x="394.797984719" y="383.893980146" type="line"/>
    </contour>
  </outline>
</glyph>
<glyph name="estimated" format="1">
  <advance width="715"/>
  <unicode hex="212E"/>
  <outline>
    <contour>
      <point x="355" y="735" type="curve" smooth="yes"/>
      <point x="111" y="735"/>
      <point x="53" y="653"/>
      <point x="53" y="531" type="curve"/>
      <point x="53" y="204" type="line" smooth="yes"/>
      <point x="53" y="83"/>
      <point x="110" y="0"/>
      <point x="299" y="0" type="curve" smooth="yes"/>
      <point x="553" y="0" type="line" smooth="yes"/>
      <point x="578" y="0"/>
      <point x="589" y="11"/>
      <point x="589" y="36" type="curve" smooth="yes"/>
      <point x="589" y="153" type="line" smooth="yes"/>
      <point x="589" y="178"/>
      <point x="578" y="189"/>
      <point x="553" y="189" type="curve" smooth="yes"/>
      <point x="332" y="189" type="line" smooth="yes"/>
      <point x="280" y="189"/>
      <point x="271" y="209"/>
      <point x="271" y="237" type="curve" smooth="yes"/>
      <point x="271" y="275" type="line"/>
      <point x="630" y="275" type="line" smooth="yes"/>
      <point x="655" y="275"/>
      <point x="666" y="286"/>
      <point x="666" y="311" type="curve" smooth="yes"/>
      <point x="666" y="531" type="line" smooth="yes"/>
      <point x="666" y="653"/>
      <point x="605" y="735"/>
    </contour>
    <contour>
      <point x="355" y="542" type="curve" smooth="yes"/>
      <point x="427" y="542"/>
      <point x="439" y="522"/>
      <point x="439" y="495" type="curve" smooth="yes"/>
      <point x="439" y="454" type="line"/>
      <point x="271" y="454" type="line"/>
      <point x="271" y="495" type="line"/>
      <point x="271" y="522"/>
      <point x="282" y="542"/>
    </contour>
  </outline>
</glyph>
<glyph name="arrowdownleft" format="1">
  <advance width="1000"/>
  <unicode hex="2199"/>
  <outline>
    <contour>
      <point x="752" y="471" type="curve" smooth="yes"/>
      <point x="618" y="353" type="line"/>
      <point x="739" y="231" type="line" smooth="yes"/>
      <point x="755" y="215"/>
      <point x="741" y="184"/>
      <point x="715" y="178" type="curve" smooth="yes"/>
      <point x="305" y="99" type="line" smooth="yes"/>
      <point x="283" y="94"/>
      <point x="265" y="94"/>
      <point x="250" y="109" type="curve"/>
      <point x="234" y="125"/>
      <point x="234" y="143"/>
      <point x="239" y="165" type="curve" smooth="yes"/>
      <point x="318" y="575" type="line" smooth="yes"/>
      <point x="324" y="602"/>
      <point x="355" y="615"/>
      <point x="371" y="599" type="curve" smooth="yes"/>
      <point x="493" y="478" type="line"/>
      <point x="611" y="612" type="line" smooth="yes"/>
      <point x="626" y="629"/>
      <point x="642" y="627"/>
      <point x="656" y="611" type="curve" smooth="yes"/>
      <point x="751" y="518" type="line" smooth="yes"/>
      <point x="767" y="502"/>
      <point x="769" y="487"/>
    </contour>
  </outline>
</glyph>
<glyph name="uni21B3" format="1">
  <advance width="1000"/>
  <unicode hex="21B3"/>
  <outline>
    <contour>
      <point x="386" y="183" type="curve" smooth="yes"/>
      <point x="468" y="183" type="line"/>
      <point x="427" y="25" type="line" smooth="yes"/>
      <point x="425" y="5"/>
      <point x="457" y="-9"/>
      <point x="479" y="6" type="curve" smooth="yes"/>
      <point x="803" y="224" type="line" smooth="yes"/>
      <point x="821" y="234"/>
      <point x="833" y="246"/>
      <point x="833" y="266" type="curve"/>
      <point x="833" y="286"/>
      <point x="821" y="298"/>
      <point x="803" y="309" type="curve" smooth="yes"/>
      <point x="479" y="527" type="line" smooth="yes"/>
      <point x="457" y="541"/>
      <point x="425" y="528"/>
      <point x="427" y="508" type="curve" smooth="yes"/>
      <point x="468" y="349" type="line"/>
      <point x="402" y="349" type="line" smooth="yes"/>
      <point x="357" y="349"/>
      <point x="335" y="366"/>
      <point x="335" y="410" type="curve" smooth="yes"/>
      <point x="335" y="670" type="line" smooth="yes"/>
      <point x="337" y="690"/>
      <point x="326" y="700"/>
      <point x="304" y="700" type="curve" smooth="yes"/>
      <point x="199" y="700" type="line" smooth="yes"/>
      <point x="177" y="700"/>
      <point x="168" y="690"/>
      <point x="168" y="670" type="curve" smooth="yes"/>
      <point x="168" y="361" type="line" smooth="yes"/>
      <point x="168" y="254"/>
      <point x="218" y="183"/>
    </contour>
  </outline>
</glyph>
<glyph name="partialdiff" format="1">
  <advance width="692"/>
  <unicode hex="2202"/>
  <outline>
    <contour>
      <point x="409" y="262" type="line"/>
      <point x="409" y="282"/>
      <point x="400" y="298"/>
      <point x="342" y="298" type="curve" smooth="yes"/>
      <point x="282" y="298"/>
      <point x="273" y="282"/>
      <point x="273" y="262" type="curve" smooth="yes"/>
      <point x="273" y="203" type="line" smooth="yes"/>
      <point x="273" y="182"/>
      <point x="282" y="166"/>
      <point x="342" y="166" type="curve" smooth="yes"/>
      <point x="400" y="166"/>
      <point x="409" y="182"/>
      <point x="409" y="203" type="curve"/>
    </contour>
    <contour>
      <point x="409" y="332" type="line"/>
      <point x="409" y="467" type="line" smooth="yes"/>
      <point x="409" y="513"/>
      <point x="398" y="527"/>
      <point x="346" y="527" type="curve" smooth="yes"/>
      <point x="158" y="527" type="line" smooth="yes"/>
      <point x="133" y="527"/>
      <point x="122" y="538"/>
      <point x="122" y="563" type="curve" smooth="yes"/>
      <point x="122" y="684" type="line" smooth="yes"/>
      <point x="122" y="709"/>
      <point x="132" y="720"/>
      <point x="158" y="720" type="curve" smooth="yes"/>
      <point x="389" y="720" type="line" smooth="yes"/>
      <point x="578" y="720"/>
      <point x="635" y="633"/>
      <point x="635" y="505" type="curve" smooth="yes"/>
      <point x="635" y="187" type="line" smooth="yes"/>
      <point x="635" y="65"/>
      <point x="581" y="-17"/>
      <point x="343" y="-17" type="curve" smooth="yes"/>
      <point x="105" y="-17"/>
      <point x="47" y="65"/>
      <point x="47" y="187" type="curve" smooth="yes"/>
      <point x="47" y="278" type="line" smooth="yes"/>
      <point x="47" y="388"/>
      <point x="92" y="463"/>
      <point x="282" y="463" type="curve" smooth="yes"/>
      <point x="456" y="463"/>
      <point x="494" y="396"/>
      <point x="494" y="298" type="curve"/>
    </contour>
  </outline>
</glyph>
<glyph name="minus" format="2">
  <advance width="734"/>
  <unicode hex="2212"/>
  <outline>
    <contour>
      <point x="106" y="267" type="curve"/>
      <point x="628" y="267" type="line" smooth="yes"/>
      <point x="653" y="267"/>
      <point x="664" y="277"/>
      <point x="664" y="303" type="curve" smooth="yes"/>
      <point x="664" y="417" type="line" smooth="yes"/>
      <point x="664" y="443"/>
      <point x="653" y="453"/>
      <point x="628" y="453" type="curve" smooth="yes"/>
      <point x="106" y="453" type="line" smooth="yes"/>
      <point x="81" y="453"/>
      <point x="70" y="442"/>
      <point x="70" y="417" type="curve" smooth="yes"/>
      <point x="70" y="303" type="line" smooth="yes"/>
      <point x="70" y="277"/>
      <point x="81" y="267"/>
    </contour>
  </outline>
</glyph>
<glyph name="lessequal" format="1">
  <advance width="714"/>
  <unicode hex="2264"/>
  <outline>
    <contour>
      <point x="116.0" y="0.0" type="curve"/>
      <point x="588.0" y="0.0" type="line" smooth="yes"/>
      <point x="613.0" y="0.0"/>
      <point x="624.0" y="10.0"/>
      <point x="624.0" y="36.0" type="curve" smooth="yes"/>
      <point x="624.0" y="186.0" type="line"/>
      <point x="116.0" y="186.0" type="line" smooth="yes"/>
      <point x="91.0" y="186.0"/>
      <point x="80.0" y="175.0"/>
      <point x="80.0" y="150.0" type="curve" smooth="yes"/>
      <point x="80.0" y="36.0" type="line" smooth="yes"/>
      <point x="80.0" y="10.0"/>
      <point x="91.0" y="0.0"/>
    </contour>
    <component base="less" yOffset="70"/>
  </outline>
</glyph>
<glyph name="greaterequal" format="2">
  <advance width="714"/>
  <unicode hex="2265"/>
  <outline>
    <contour>
      <point x="126" y="0" type="curve"/>
      <point x="598" y="0" type="line" smooth="yes"/>
      <point x="623" y="0"/>
      <point x="634" y="10"/>
      <point x="634" y="36" type="curve" smooth="yes"/>
      <point x="634" y="150" type="line" smooth="yes"/>
      <point x="634" y="176"/>
      <point x="623" y="186"/>
      <point x="598" y="186" type="curve" smooth="yes"/>
      <point x="90" y="186" type="line"/>
      <point x="90" y="36" type="line" smooth="yes"/>
      <point x="90" y="10"/>
      <point x="101" y="0"/>
    </contour>
    <component base="greater" yOffset="70"/>
  </outline>
</glyph>
<glyph name="blacksquare" format="1">
  <advance width="1000.0"/>
  <unicode hex="25A0"/>
  <outline>
    <contour>
      <point x="720" y="176" type="curve" smooth="yes"/>
      <point x="720" y="544" type="line" smooth="yes"/>
      <point x="720" y="569"/>
      <point x="709" y="580"/>
      <point x="684" y="580" type="curve" smooth="yes"/>
      <point x="316" y="580" type="line" smooth="yes"/>
      <point x="291" y="580"/>
      <point x="280" y="569"/>
      <point x="280" y="544" type="curve" smooth="yes"/>
      <point x="280" y="176" type="line" smooth="yes"/>
      <point x="280" y="151"/>
      <point x="291" y="140"/>
      <point x="316" y="140" type="curve" smooth="yes"/>
      <point x="684" y="140" type="line" smooth="yes"/>
      <point x="709" y="140"/>
      <point x="720" y="151"/>
    </contour>
  </outline>
</glyph>
<glyph name="blackrightpointingtriangle" format="1">
  <advance width="1000"/>
  <unicode hex="25B6"/>
  <outline>
    <contour>
      <point x="275" y="114" type="line"/>
      <point x="275" y="92"/>
      <point x="306" y="80"/>
      <point x="328" y="94" type="curve" smooth="yes"/>
      <point x="695" y="318" type="line" smooth="yes"/>
      <point x="714" y="330"/>
      <point x="726" y="343"/>
      <point x="726" y="364" type="curve"/>
      <point x="726" y="386"/>
      <point x="714" y="399"/>
      <point x="695" y="411" type="curve" smooth="yes"/>
      <point x="328" y="635" type="line" smooth="yes"/>
      <point x="306" y="649"/>
      <point x="275" y="638"/>
      <point x="275" y="615" type="curve"/>
    </contour>
  </outline>
</glyph>
<glyph name="lozenge" format="1">
  <advance width="731"/>
  <unicode hex="25CA"/>
  <outline>
    <contour>
      <point x="250" y="720" type="line" smooth="yes"/>
      <point x="224" y="720"/>
      <point x="210" y="711"/>
      <point x="199" y="687" type="curve" smooth="yes"/>
      <point x="83" y="429" type="line"/>
      <point x="71" y="402"/>
      <point x="69" y="392"/>
      <point x="69" y="371" type="curve" smooth="yes"/>
      <point x="69" y="348" type="line" smooth="yes"/>
      <point x="69" y="327"/>
      <point x="71" y="317"/>
      <point x="83" y="290" type="curve"/>
      <point x="199" y="33" type="line" smooth="yes"/>
      <point x="210" y="9"/>
      <point x="223" y="0"/>
      <point x="249" y="0" type="curve" smooth="yes"/>
      <point x="480" y="0" type="line" smooth="yes"/>
      <point x="506" y="0"/>
      <point x="520" y="9"/>
      <point x="531" y="33" type="curve" smooth="yes"/>
      <point x="647" y="290" type="line" smooth="yes"/>
      <point x="659" y="317"/>
      <point x="661" y="327"/>
      <point x="661" y="348" type="curve" smooth="yes"/>
      <point x="661" y="371" type="line" smooth="yes"/>
      <point x="661" y="392"/>
      <point x="659" y="402"/>
      <point x="647" y="429" type="curve" smooth="yes"/>
      <point x="531" y="687" type="line" smooth="yes"/>
      <point x="520" y="711"/>
      <point x="507" y="720"/>
      <point x="481" y="720" type="curve" smooth="yes"/>
    </contour>
    <contour>
      <point x="445" y="359" type="line"/>
      <point x="387" y="220" type="line" smooth="yes"/>
      <point x="381" y="207"/>
      <point x="379" y="203"/>
      <point x="367" y="203" type="curve" smooth="yes"/>
      <point x="362" y="203" type="line" smooth="yes"/>
      <point x="350" y="203"/>
      <point x="348" y="207"/>
      <point x="342" y="220" type="curve" smooth="yes"/>
      <point x="284" y="361" type="line"/>
      <point x="342" y="500" type="line" smooth="yes"/>
      <point x="348" y="513"/>
      <point x="350" y="517"/>
      <point x="362" y="517" type="curve" smooth="yes"/>
      <point x="367" y="517" type="line" smooth="yes"/>
      <point x="379" y="517"/>
      <point x="381" y="513"/>
      <point x="387" y="500" type="curve" smooth="yes"/>
    </contour>
  </outline>
</glyph>
<glyph name="uni25DC" format="1">
  <advance width="1280"/>
  <unicode hex="25DC"/>
  <outline>
    <contour>
      <point x="1180" y="864" type="line" smooth="yes"/>
      <point x="1180" y="889"/>
      <point x="1169" y="900"/>
      <point x="1144" y="900" type="curve" smooth="yes"/>
      <point x="1011" y="900" type="line" smooth="yes"/>
      <point x="401" y="900"/>
      <point x="100" y="599"/>
      <point x="100" y="-11" type="curve" smooth="yes"/>
      <point x="100" y="-144" type="line" smooth="yes"/>
      <point x="100" y="-169"/>
      <point x="111" y="-180"/>
      <point x="136" y="-180" type="curve" smooth="yes"/>
      <point x="1150" y="-180" type="line" smooth="yes"/>
      <point x="1167" y="-180"/>
      <point x="1180" y="-167"/>
      <point x="1180" y="-150" type="curve" smooth="yes"/>
    </contour>
  </outline>
</glyph>
<glyph name="uni261B" format="1">
  <advance width="1000"/>
  <unicode hex="261B"/>
  <outline>
    <contour>
      <point x="266" y="105" type="curve"/>
      <point x="171" y="105" type="line" smooth="yes"/>
      <point x="160" y="105"/>
      <point x="153" y="112"/>
      <point x="153" y="124" type="curve" smooth="yes"/>
      <point x="153" y="596" type="line" smooth="yes"/>
      <point x="153" y="609"/>
      <point x="160" y="615"/>
      <point x="171" y="615" type="curve"/>
      <point x="266" y="615" type="line"/>
      <point x="277" y="615"/>
      <point x="284" y="609"/>
      <point x="284" y="596" type="curve" smooth="yes"/>
      <point x="284" y="124" type="line" smooth="yes"/>
      <point x="284" y="112"/>
      <point x="277" y="105"/>
    </contour>
    <contour>
      <point x="372" y="166" type="line" smooth="yes"/>
      <point x="355" y="166"/>
      <point x="339" y="171"/>
      <point x="330" y="176" type="curve" smooth="yes"/>
      <point x="295" y="195" type="line"/>
      <point x="295" y="537" type="line"/>
      <point x="491" y="575" type="line" smooth="yes"/>
      <point x="505" y="577"/>
      <point x="527" y="577"/>
      <point x="546" y="576" type="curve" smooth="yes"/>
      <point x="847" y="555" type="line" smooth="yes"/>
      <point x="857" y="554"/>
      <point x="870" y="548"/>
      <point x="870" y="533" type="curve" smooth="yes"/>
      <point x="870" y="483" type="line" smooth="yes"/>
      <point x="870" y="469"/>
      <point x="859" y="463"/>
      <point x="844" y="463" type="curve" smooth="yes"/>
      <point x="568" y="463" type="line"/>
      <point x="568" y="452" type="line" smooth="yes"/>
      <point x="662" y="452" type="line" smooth="yes"/>
      <point x="674" y="452"/>
      <point x="681" y="447"/>
      <point x="681" y="436" type="curve" smooth="yes"/>
      <point x="681" y="392" type="line" smooth="yes"/>
      <point x="681" y="378"/>
      <point x="671" y="373"/>
      <point x="656" y="372" type="curve" smooth="yes"/>
      <point x="551" y="364" type="line"/>
      <point x="551" y="354" type="line" smooth="yes"/>
      <point x="638" y="360" type="line" smooth="yes"/>
      <point x="649" y="361"/>
      <point x="657" y="353"/>
      <point x="657" y="340" type="curve" smooth="yes"/>
      <point x="657" y="294" type="line" smooth="yes"/>
      <point x="657" y="280"/>
      <point x="646" y="275"/>
      <point x="632" y="274" type="curve" smooth="yes"/>
      <point x="532" y="267" type="line"/>
      <point x="532" y="256" type="line" smooth="yes"/>
      <point x="618" y="262" type="line" smooth="yes"/>
      <point x="629" y="263"/>
      <point x="635" y="254"/>
      <point x="635" y="245" type="curve" smooth="yes"/>
      <point x="635" y="195" type="line" smooth="yes"/>
      <point x="635" y="185"/>
      <point x="622" y="176"/>
      <point x="612" y="176" type="curve" smooth="yes"/>
    </contour>
  </outline>
</glyph>
<glyph name="uni261E" format="1">
  <advance width="1000"/>
  <unicode hex="261E"/>
  <outline>
    <contour>
      <point x="745" y="105" type="curve"/>
      <point x="745" y="105"/>
      <point x="745" y="72"/>
      <point x="745" y="72" type="curve" smooth="yes"/>
      <point x="745" y="62"/>
      <point x="737" y="54"/>
      <point x="726" y="54" type="curve" smooth="yes"/>
      <point x="274" y="54" type="line" smooth="yes"/>
      <point x="262" y="54"/>
      <point x="255" y="62"/>
      <point x="255" y="72" type="curve"/>
      <point x="255" y="72"/>
      <point x="255" y="105"/>
      <point x="255" y="105" type="curve"/>
      <point x="255" y="115"/>
      <point x="262" y="123"/>
      <point x="274" y="123" type="curve" smooth="yes"/>
      <point x="726" y="123" type="line" smooth="yes"/>
      <point x="737" y="123"/>
      <point x="745" y="115"/>
    </contour>
    <contour>
      <point x="597" y="473" type="line" smooth="yes"/>
      <point x="596" y="503"/>
      <point x="582" y="516"/>
      <point x="556" y="516" type="curve" smooth="yes"/>
      <point x="517" y="516" type="line"/>
      <point x="505" y="516"/>
      <point x="496" y="511"/>
      <point x="491" y="502" type="curve"/>
      <point x="500" y="478" type="line"/>
      <point x="500" y="490"/>
      <point x="507" y="495"/>
      <point x="520" y="495" type="curve" smooth="yes"/>
      <point x="556" y="495" type="line" smooth="yes"/>
      <point x="569" y="495"/>
      <point x="575" y="488"/>
      <point x="576" y="473" type="curve" smooth="yes"/>
      <point x="583" y="381" type="line"/>
      <point x="604" y="381" type="line" smooth="yes"/>
    </contour>
    <contour>
      <point x="499" y="498" type="line" smooth="yes"/>
      <point x="498" y="527"/>
      <point x="484" y="541"/>
      <point x="458" y="541" type="curve" smooth="yes"/>
      <point x="422" y="541" type="line" smooth="yes"/>
      <point x="409" y="541"/>
      <point x="399" y="536"/>
      <point x="396" y="526" type="curve"/>
      <point x="408" y="504" type="line"/>
      <point x="407" y="515"/>
      <point x="413" y="520"/>
      <point x="424" y="520" type="curve" smooth="yes"/>
      <point x="458" y="520" type="line" smooth="yes"/>
      <point x="472" y="520"/>
      <point x="477" y="512"/>
      <point x="478" y="498" type="curve" smooth="yes"/>
      <point x="485" y="400" type="line"/>
      <point x="506" y="400" type="line" smooth="yes"/>
    </contour>
    <contour>
      <point x="598" y="460" type="line"/>
      <point x="598" y="470"/>
      <point x="606" y="473"/>
      <point x="616" y="473" type="curve" smooth="yes"/>
      <point x="654" y="473" type="line" smooth="yes"/>
      <point x="665" y="473"/>
      <point x="673" y="464"/>
      <point x="673" y="453" type="curve" smooth="yes"/>
      <point x="684" y="221" type="line" smooth="yes"/>
      <point x="684" y="204"/>
      <point x="679" y="188"/>
      <point x="673" y="179" type="curve" smooth="yes"/>
      <point x="654" y="144" type="line"/>
      <point x="333" y="144" type="line"/>
      <point x="295" y="340" type="line" smooth="yes"/>
      <point x="293" y="354"/>
      <point x="293" y="376"/>
      <point x="294" y="395" type="curve" smooth="yes"/>
      <point x="315" y="689" type="line" smooth="yes"/>
      <point x="316" y="699"/>
      <point x="323" y="709"/>
      <point x="337" y="709" type="curve" smooth="yes"/>
      <point x="367" y="709" type="line" smooth="yes"/>
      <point x="380" y="709"/>
      <point x="387" y="700"/>
      <point x="387" y="685" type="curve" smooth="yes"/>
      <point x="387" y="417" type="line"/>
      <point x="408" y="417" type="line" smooth="yes"/>
      <point x="408" y="417"/>
      <point x="408" y="685"/>
      <point x="408" y="685" type="curve" smooth="yes"/>
      <point x="408" y="715"/>
      <point x="393" y="730"/>
      <point x="367" y="730" type="curve" smooth="yes"/>
      <point x="337" y="730" type="line" smooth="yes"/>
      <point x="310" y="730"/>
      <point x="295" y="716"/>
      <point x="294" y="691" type="curve" smooth="yes"/>
      <point x="273" y="397" type="line" smooth="yes"/>
      <point x="272" y="376"/>
      <point x="272" y="352"/>
      <point x="275" y="336" type="curve" smooth="yes"/>
      <point x="311" y="144" type="line"/>
      <point x="272" y="144" type="line" smooth="yes"/>
      <point x="249" y="144"/>
      <point x="234" y="130"/>
      <point x="234" y="105" type="curve" smooth="yes"/>
      <point x="234" y="30" type="line" smooth="yes"/>
      <point x="234" y="5"/>
      <point x="246" y="-9"/>
      <point x="274" y="-9" type="curve" smooth="yes"/>
      <point x="726" y="-9" type="line" smooth="yes"/>
      <point x="752" y="-9"/>
      <point x="766" y="5"/>
      <point x="766" y="30" type="curve" smooth="yes"/>
      <point x="766" y="105" type="line" smooth="yes"/>
      <point x="766" y="130"/>
      <point x="751" y="144"/>
      <point x="728" y="144" type="curve" smooth="yes"/>
      <point x="679" y="144" type="line"/>
      <point x="692" y="169" type="line" smooth="yes"/>
      <point x="697" y="179"/>
      <point x="705" y="199"/>
      <point x="705" y="221" type="curve" smooth="yes"/>
      <point x="695" y="454" type="line" smooth="yes"/>
      <point x="694" y="477"/>
      <point x="677" y="494"/>
      <point x="654" y="494" type="curve" smooth="yes"/>
      <point x="614" y="494" type="line"/>
      <point x="604" y="494"/>
      <point x="591" y="491"/>
      <point x="587" y="480" type="curve"/>
    </contour>
  </outline>
</glyph>
<glyph name="A.salt" format="2">
  <advance width="736"/>
  <unicode hex="E100"/>
  <anchor x="368.0" y="747.0" name="top"/>
  <anchor x="368.0" y="0.0" name="bottom"/>
  <outline>
    <contour>
      <point x="247" y="0" type="line" smooth="yes"/>
      <point x="272" y="0"/>
      <point x="283" y="11"/>
      <point x="283" y="36" type="curve" smooth="yes"/>
      <point x="283" y="497" type="line" smooth="yes"/>
      <point x="283" y="524"/>
      <point x="295" y="544"/>
      <point x="366" y="544" type="curve" smooth="yes"/>
      <point x="436" y="544"/>
      <point x="448" y="524"/>
      <point x="448" y="497" type="curve"/>
      <point x="448" y="36" type="line" smooth="yes"/>
      <point x="448" y="11"/>
      <point x="459" y="0"/>
      <point x="484" y="0" type="curve" smooth="yes"/>
      <point x="636" y="0" type="line" smooth="yes"/>
      <point x="661" y="0"/>
      <point x="672" y="11"/>
      <point x="672" y="36" type="curve" smooth="yes"/>
      <point x="672" y="531" type="line" smooth="yes"/>
      <point x="672" y="652"/>
      <point x="616" y="735"/>
      <point x="367" y="735" type="curve" smooth="yes"/>
      <point x="119" y="735"/>
      <point x="64" y="652"/>
      <point x="64" y="531" type="curve" smooth="yes"/>
      <point x="64" y="36" type="line"/>
      <point x="64" y="11"/>
      <point x="75" y="0"/>
      <point x="100" y="0" type="curve" smooth="yes"/>
    </contour>
    <contour>
      <point x="466" y="185" type="line"/>
      <point x="466" y="368" type="line"/>
      <point x="252" y="368" type="line"/>
      <point x="252" y="185" type="line"/>
    </contour>
  </outline>
</glyph>
<glyph name="Iacute.salt" format="2">
  <advance width="371"/>
  <unicode hex="E116"/>
  <outline>
    <contour>
      <point x="345.0" y="796.0" type="line" smooth="yes"/>
      <point x="370.0" y="799.0"/>
      <point x="381.0" y="807.0"/>
      <point x="381.0" y="832.0" type="curve" smooth="yes"/>
      <point x="381.0" y="928.0" type="line" smooth="yes"/>
      <point x="381.0" y="951.0"/>
      <point x="370.0" y="964.0"/>
      <point x="347.0" y="961.0" type="curve"/>
      <point x="28.0" y="918.0" type="line" smooth="yes"/>
      <point x="3.0" y="915.0"/>
      <point x="-8.0" y="907.0"/>
      <point x="-8.0" y="882.0" type="curve" smooth="yes"/>
      <point x="-8.0" y="786.0" type="line" smooth="yes"/>
      <point x="-8.0" y="763.0"/>
      <point x="3.0" y="750.0"/>
      <point x="26.0" y="753.0" type="curve" smooth="yes"/>
    </contour>
    <component base="I.salt"/>
  </outline>
</glyph>
<glyph name="Lslash.salt" format="2">
  <advance width="625"/>
  <unicode hex="E123"/>
  <outline>
    <contour>
      <point x="20" y="428" type="curve" smooth="yes"/>
      <point x="20" y="321" type="line" smooth="yes"/>
      <point x="20" y="295"/>
      <point x="31" y="281"/>
      <point x="56" y="285" type="curve" smooth="yes"/>
      <point x="364" y="335" type="line" smooth="yes"/>
      <point x="389" y="339"/>
      <point x="400" y="345"/>
      <point x="400" y="371" type="curve" smooth="yes"/>
      <point x="400" y="478" type="line" smooth="yes"/>
      <point x="400" y="504"/>
      <point x="389" y="518"/>
      <point x="364" y="514" type="curve" smooth="yes"/>
      <point x="56" y="464" type="line" smooth="yes"/>
      <point x="31" y="460"/>
      <point x="20" y="453"/>
    </contour>
    <component base="L.salt" xOffset="10"/>
  </outline>
</glyph>
<glyph name="N.salt" format="1">
  <advance width="746"/>
  <unicode hex="E125"/>
  <outline>
    <contour>
      <point x="64" y="531" type="curve" smooth="yes"/>
      <point x="64" y="36" type="line" smooth="yes"/>
      <point x="64" y="11"/>
      <point x="75" y="0"/>
      <point x="100" y="0" type="curve" smooth="yes"/>
      <point x="252" y="0" type="line" smooth="yes"/>
      <point x="278" y="0"/>
      <point x="288" y="11"/>
      <point x="288" y="36" type="curve" smooth="yes"/>
      <point x="288" y="492" type="line" smooth="yes"/>
      <point x="288" y="519"/>
      <point x="300" y="539"/>
      <point x="371" y="539" type="curve" smooth="yes"/>
      <point x="441" y="539"/>
      <point x="453" y="519"/>
      <point x="453" y="492" type="curve" smooth="yes"/>
      <point x="453" y="36" type="line" smooth="yes"/>
      <point x="453" y="11"/>
      <point x="464" y="0"/>
      <point x="489" y="0" type="curve" smooth="yes"/>
      <point x="646" y="0" type="line" smooth="yes"/>
      <point x="671" y="0"/>
      <point x="682" y="11"/>
      <point x="682" y="36" type="curve"/>
      <point x="682" y="531" type="line" smooth="yes"/>
      <point x="682" y="653"/>
      <point x="621" y="735"/>
      <point x="373" y="735" type="curve" smooth="yes"/>
      <point x="125" y="735"/>
      <point x="64" y="653"/>
    </contour>
    <contour>
      <point x="373.0" y="747.0" type="move" name="top"/>
    </contour>
    <contour>
      <point x="373.0" y="0.0" type="move" name="bottom"/>
    </contour>
  </outline>
</glyph>
<glyph name="W.salt" format="1">
  <advance width="1070.0"/>
  <unicode hex="E12A"/>
  <outline>
    <contour>
      <point x="1006" y="189" type="curve"/>
      <point x="1006" y="684" type="line" smooth="yes"/>
      <point x="1006" y="709"/>
      <point x="995" y="720"/>
      <point x="970" y="720" type="curve" smooth="yes"/>
      <point x="818" y="720" type="line" smooth="yes"/>
      <point x="792" y="720"/>
      <point x="782" y="709"/>
      <point x="782" y="684" type="curve" smooth="yes"/>
      <point x="782" y="228" type="line" smooth="yes"/>
      <point x="782" y="201"/>
      <point x="772" y="181"/>
      <point x="714" y="181" type="curve" smooth="yes"/>
      <point x="657" y="181"/>
      <point x="647" y="201"/>
      <point x="647" y="228" type="curve" smooth="yes"/>
      <point x="647" y="684" type="line" smooth="yes"/>
      <point x="647" y="709"/>
      <point x="636" y="720"/>
      <point x="611" y="720" type="curve"/>
      <point x="514" y="720" type="line" smooth="yes"/>
      <point x="478" y="684" type="line"/>
      <point x="478" y="189" type="line" smooth="yes"/>
      <point x="478" y="67"/>
      <point x="530" y="-15"/>
      <point x="742" y="-15" type="curve" smooth="yes"/>
      <point x="954" y="-15"/>
      <point x="1006" y="67"/>
    </contour>
    <contour>
      <point x="64" y="189" type="line"/>
      <point x="64" y="67"/>
      <point x="116" y="-15"/>
      <point x="328" y="-15" type="curve" smooth="yes"/>
      <point x="540" y="-15"/>
      <point x="592" y="67"/>
      <point x="592" y="189" type="curve"/>
      <point x="592" y="684" type="line" smooth="yes"/>
      <point x="556" y="720" type="line"/>
      <point x="459" y="720" type="line" smooth="yes"/>
      <point x="434" y="720"/>
      <point x="423" y="709"/>
      <point x="423" y="684" type="curve" smooth="yes"/>
      <point x="423" y="228" type="line" smooth="yes"/>
      <point x="423" y="201"/>
      <point x="413" y="181"/>
      <point x="356" y="181" type="curve" smooth="yes"/>
      <point x="298" y="181"/>
      <point x="288" y="201"/>
      <point x="288" y="228" type="curve" smooth="yes"/>
      <point x="288" y="684" type="line" smooth="yes"/>
      <point x="288" y="709"/>
      <point x="278" y="720"/>
      <point x="252" y="720" type="curve" smooth="yes"/>
      <point x="100" y="720" type="line" smooth="yes"/>
      <point x="75" y="720"/>
      <point x="64" y="709"/>
      <point x="64" y="684" type="curve" smooth="yes"/>
    </contour>
    <contour>
      <point x="535.0" y="747.0" type="move" name="top"/>
    </contour>
    <contour>
      <point x="535.0" y="0.0" type="move" name="bottom"/>
    </contour>
  </outline>
</glyph>
<glyph name="X.salt" format="1">
  <advance width="737"/>
  <unicode hex="E12F"/>
  <outline>
    <contour>
      <point x="251" y="0" type="line" smooth="yes"/>
      <point x="276" y="0"/>
      <point x="287" y="11"/>
      <point x="287" y="36" type="curve" smooth="yes"/>
      <point x="287" y="230" type="line" smooth="yes"/>
      <point x="287" y="252"/>
      <point x="298" y="265"/>
      <point x="319" y="265" type="curve" smooth="yes"/>
      <point x="419" y="265" type="line" smooth="yes"/>
      <point x="440" y="265"/>
      <point x="451" y="252"/>
      <point x="451" y="230" type="curve" smooth="yes"/>
      <point x="451" y="36" type="line" smooth="yes"/>
      <point x="451" y="11"/>
      <point x="462" y="0"/>
      <point x="487" y="0" type="curve" smooth="yes"/>
      <point x="641" y="0" type="line" smooth="yes"/>
      <point x="666" y="0"/>
      <point x="677" y="11"/>
      <point x="677" y="36" type="curve" smooth="yes"/>
      <point x="677" y="317" type="line" smooth="yes"/>
      <point x="677" y="382"/>
      <point x="645" y="430"/>
      <point x="591" y="446" type="curve"/>
      <point x="656" y="685" type="line" smooth="yes"/>
      <point x="662" y="708"/>
      <point x="654" y="720"/>
      <point x="629" y="720" type="curve" smooth="yes"/>
      <point x="477" y="720" type="line" smooth="yes"/>
      <point x="451" y="720"/>
      <point x="440" y="710"/>
      <point x="434" y="685" type="curve" smooth="yes"/>
      <point x="386" y="454" type="line"/>
      <point x="353" y="454" type="line"/>
      <point x="305" y="685" type="line" smooth="yes"/>
      <point x="299" y="710"/>
      <point x="287" y="720"/>
      <point x="261" y="720" type="curve" smooth="yes"/>
      <point x="110" y="720" type="line" smooth="yes"/>
      <point x="86" y="720"/>
      <point x="78" y="708"/>
      <point x="84" y="685" type="curve" smooth="yes"/>
      <point x="149" y="446" type="line"/>
      <point x="93" y="431"/>
      <point x="60" y="383"/>
      <point x="60" y="317" type="curve" smooth="yes"/>
      <point x="60" y="36" type="line"/>
      <point x="60" y="11"/>
      <point x="71" y="0"/>
      <point x="96" y="0" type="curve" smooth="yes"/>
    </contour>
    <contour>
      <point x="368.0" y="747.0" type="move" name="top"/>
    </contour>
    <contour>
      <point x="368.0" y="0.0" type="move" name="bottom"/>
    </contour>
  </outline>
</glyph>
<glyph name="ampersand.salt" format="1">
  <advance width="632"/>
  <unicode hex="E13A"/>
  <outline>
    <contour>
      <point x="296" y="189" type="line"/>
      <point x="264" y="189"/>
      <point x="258" y="203"/>
      <point x="258" y="219" type="curve" smooth="yes"/>
      <point x="258" y="246" type="line" smooth="yes"/>
      <point x="258" y="262"/>
      <point x="264" y="275"/>
      <point x="296" y="275" type="curve" smooth="yes"/>
      <point x="466" y="275" type="line"/>
      <point x="491" y="275"/>
      <point x="502" y="286"/>
      <point x="502" y="311" type="curve" smooth="yes"/>
      <point x="502" y="418" type="line" smooth="yes"/>
      <point x="502" y="443"/>
      <point x="491" y="454"/>
      <point x="466" y="454" type="curve"/>
      <point x="361" y="454" type="line" smooth="yes"/>
      <point x="329" y="454"/>
      <point x="323" y="468"/>
      <point x="323" y="484" type="curve" smooth="yes"/>
      <point x="323" y="501" type="line" smooth="yes"/>
      <point x="323" y="517"/>
      <point x="329" y="531"/>
      <point x="361" y="531" type="curve" smooth="yes"/>
      <point x="547" y="531" type="line"/>
      <point x="572" y="531"/>
      <point x="583" y="542"/>
      <point x="583" y="567" type="curve" smooth="yes"/>
      <point x="583" y="684" type="line" smooth="yes"/>
      <point x="583" y="709"/>
      <point x="572" y="720"/>
      <point x="547" y="720" type="curve"/>
      <point x="296" y="720" type="line" smooth="yes"/>
      <point x="160" y="720"/>
      <point x="104" y="655"/>
      <point x="104" y="567" type="curve" smooth="yes"/>
      <point x="104" y="519" type="line" smooth="yes"/>
      <point x="104" y="468"/>
      <point x="119" y="430"/>
      <point x="163" y="411" type="curve"/>
      <point x="91" y="404"/>
      <point x="37" y="350"/>
      <point x="37" y="256" type="curve" smooth="yes"/>
      <point x="37" y="148" type="line" smooth="yes"/>
      <point x="37" y="63"/>
      <point x="103" y="0"/>
      <point x="231" y="0" type="curve" smooth="yes"/>
      <point x="547" y="0" type="line"/>
      <point x="572" y="0"/>
      <point x="583" y="11"/>
      <point x="583" y="36" type="curve" smooth="yes"/>
      <point x="583" y="153" type="line" smooth="yes"/>
      <point x="583" y="178"/>
      <point x="572" y="189"/>
      <point x="547" y="189" type="curve" smooth="yes"/>
    </contour>
    <contour>
      <point x="252" y="83" type="line"/>
      <point x="252" y="-54" type="line" smooth="yes"/>
      <point x="252" y="-79"/>
      <point x="263" y="-90"/>
      <point x="288" y="-90" type="curve" smooth="yes"/>
      <point x="433" y="-90" type="line" smooth="yes"/>
      <point x="458" y="-90"/>
      <point x="469" y="-79"/>
      <point x="469" y="-54" type="curve" smooth="yes"/>
      <point x="469" y="83" type="line"/>
    </contour>
    <contour>
      <point x="469" y="622" type="line"/>
      <point x="469" y="774" type="line" smooth="yes"/>
      <point x="469" y="799"/>
      <point x="458" y="810"/>
      <point x="433" y="810" type="curve" smooth="yes"/>
      <point x="288" y="810" type="line" smooth="yes"/>
      <point x="263" y="810"/>
      <point x="252" y="799"/>
      <point x="252" y="774" type="curve" smooth="yes"/>
      <point x="252" y="622" type="line"/>
    </contour>
  </outline>
</glyph>
<glyph name="indexup" format="1">
  <advance width="1000"/>
  <unicode hex="E13C"/>
  <outline>
    <contour>
      <point x="755" y="115" type="curve"/>
      <point x="755" y="20" type="line" smooth="yes"/>
      <point x="755" y="9"/>
      <point x="748" y="2"/>
      <point x="736" y="2" type="curve" smooth="yes"/>
      <point x="264" y="2" type="line" smooth="yes"/>
      <point x="251" y="2"/>
      <point x="245" y="9"/>
      <point x="245" y="20" type="curve"/>
      <point x="245" y="115" type="line"/>
      <point x="245" y="126"/>
      <point x="251" y="133"/>
      <point x="264" y="133" type="curve" smooth="yes"/>
      <point x="736" y="133" type="line" smooth="yes"/>
      <point x="748" y="133"/>
      <point x="755" y="126"/>
    </contour>
    <contour>
      <point x="694" y="221" type="line" smooth="yes"/>
      <point x="694" y="204"/>
      <point x="689" y="188"/>
      <point x="684" y="179" type="curve" smooth="yes"/>
      <point x="665" y="144" type="line"/>
      <point x="323" y="144" type="line"/>
      <point x="285" y="340" type="line" smooth="yes"/>
      <point x="283" y="354"/>
      <point x="283" y="376"/>
      <point x="284" y="395" type="curve" smooth="yes"/>
      <point x="305" y="696" type="line" smooth="yes"/>
      <point x="306" y="706"/>
      <point x="312" y="719"/>
      <point x="327" y="719" type="curve" smooth="yes"/>
      <point x="377" y="719" type="line" smooth="yes"/>
      <point x="391" y="719"/>
      <point x="397" y="708"/>
      <point x="397" y="693" type="curve" smooth="yes"/>
      <point x="397" y="417" type="line"/>
      <point x="408" y="417" type="line" smooth="yes"/>
      <point x="408" y="511" type="line" smooth="yes"/>
      <point x="408" y="523"/>
      <point x="413" y="530"/>
      <point x="424" y="530" type="curve" smooth="yes"/>
      <point x="469" y="530" type="line" smooth="yes"/>
      <point x="482" y="530"/>
      <point x="487" y="520"/>
      <point x="488" y="505" type="curve" smooth="yes"/>
      <point x="496" y="400" type="line"/>
      <point x="506" y="400" type="line" smooth="yes"/>
      <point x="500" y="487" type="line" smooth="yes"/>
      <point x="499" y="498"/>
      <point x="507" y="506"/>
      <point x="520" y="506" type="curve" smooth="yes"/>
      <point x="566" y="506" type="line" smooth="yes"/>
      <point x="580" y="506"/>
      <point x="585" y="495"/>
      <point x="586" y="481" type="curve" smooth="yes"/>
      <point x="593" y="381" type="line"/>
      <point x="604" y="381" type="line" smooth="yes"/>
      <point x="598" y="467" type="line" smooth="yes"/>
      <point x="597" y="478"/>
      <point x="606" y="484"/>
      <point x="616" y="484" type="curve" smooth="yes"/>
      <point x="665" y="484" type="line" smooth="yes"/>
      <point x="675" y="484"/>
      <point x="684" y="471"/>
      <point x="684" y="461" type="curve" smooth="yes"/>
    </contour>
  </outline>
</glyph>
<glyph name="indexupright" format="1">
  <advance width="1000"/>
  <unicode hex="E13F"/>
  <outline>
    <contour>
      <point x="617" y="28" type="curve"/>
      <point x="549" y="-39" type="line" smooth="yes"/>
      <point x="542" y="-46"/>
      <point x="532" y="-46"/>
      <point x="523" y="-38" type="curve" smooth="yes"/>
      <point x="189" y="296" type="line" smooth="yes"/>
      <point x="180" y="304"/>
      <point x="181" y="315"/>
      <point x="188" y="322" type="curve"/>
      <point x="255" y="389" type="line"/>
      <point x="263" y="397"/>
      <point x="273" y="398"/>
      <point x="282" y="388" type="curve" smooth="yes"/>
      <point x="616" y="54" type="line" smooth="yes"/>
      <point x="624" y="46"/>
      <point x="624" y="35"/>
    </contour>
    <contour>
      <point x="648" y="147" type="line" smooth="yes"/>
      <point x="635" y="134"/>
      <point x="621" y="127"/>
      <point x="611" y="125" type="curve" smooth="yes"/>
      <point x="572" y="112" type="line"/>
      <point x="331" y="355" type="line"/>
      <point x="443" y="520" type="line" smooth="yes"/>
      <point x="451" y="531"/>
      <point x="466" y="547"/>
      <point x="481" y="559" type="curve" smooth="yes"/>
      <point x="709" y="758" type="line" smooth="yes"/>
      <point x="716" y="764"/>
      <point x="730" y="768"/>
      <point x="740" y="758" type="curve" smooth="yes"/>
      <point x="776" y="722" type="line" smooth="yes"/>
      <point x="786" y="713"/>
      <point x="782" y="700"/>
      <point x="772" y="690" type="curve" smooth="yes"/>
      <point x="577" y="494" type="line"/>
      <point x="584" y="487" type="line" smooth="yes"/>
      <point x="651" y="554" type="line" smooth="yes"/>
      <point x="659" y="563"/>
      <point x="668" y="564"/>
      <point x="676" y="555" type="curve" smooth="yes"/>
      <point x="707" y="525" type="line" smooth="yes"/>
      <point x="716" y="514"/>
      <point x="713" y="504"/>
      <point x="704" y="492" type="curve" smooth="yes"/>
      <point x="634" y="414" type="line"/>
      <point x="642" y="406" type="line" smooth="yes"/>
      <point x="698" y="471" type="line" smooth="yes"/>
      <point x="706" y="480"/>
      <point x="717" y="480"/>
      <point x="727" y="471" type="curve" smooth="yes"/>
      <point x="759" y="439" type="line" smooth="yes"/>
      <point x="769" y="428"/>
      <point x="765" y="418"/>
      <point x="755" y="406" type="curve" smooth="yes"/>
      <point x="690" y="331" type="line"/>
      <point x="697" y="323" type="line" smooth="yes"/>
      <point x="754" y="388" type="line" smooth="yes"/>
      <point x="760" y="397"/>
      <point x="772" y="395"/>
      <point x="778" y="388" type="curve" smooth="yes"/>
      <point x="813" y="353" type="line" smooth="yes"/>
      <point x="820" y="345"/>
      <point x="818" y="331"/>
      <point x="811" y="323" type="curve" smooth="yes"/>
    </contour>
  </outline>
</glyph>
<glyph name="indexdownright.outline" format="1">
  <advance width="1000"/>
  <unicode hex="E143"/>
  <outline>
    <contour>
      <point x="168" y="258" type="curve"/>
      <point x="168" y="258"/>
      <point x="145" y="281"/>
      <point x="145" y="281" type="curve" smooth="yes"/>
      <point x="138" y="289"/>
      <point x="138" y="299"/>
      <point x="146" y="308" type="curve" smooth="yes"/>
      <point x="465" y="627" type="line" smooth="yes"/>
      <point x="474" y="635"/>
      <point x="483" y="634"/>
      <point x="491" y="627" type="curve"/>
      <point x="491" y="627"/>
      <point x="514" y="605"/>
      <point x="514" y="605" type="curve"/>
      <point x="521" y="596"/>
      <point x="522" y="587"/>
      <point x="514" y="578" type="curve" smooth="yes"/>
      <point x="193" y="259" type="line" smooth="yes"/>
      <point x="186" y="251"/>
      <point x="176" y="251"/>
    </contour>
    <contour>
      <point x="534" y="103" type="line" smooth="yes"/>
      <point x="555" y="82"/>
      <point x="575" y="82"/>
      <point x="592" y="101" type="curve" smooth="yes"/>
      <point x="620" y="128" type="line"/>
      <point x="628" y="136"/>
      <point x="631" y="147"/>
      <point x="628" y="157" type="curve"/>
      <point x="605" y="168" type="line"/>
      <point x="613" y="158"/>
      <point x="612" y="150"/>
      <point x="603" y="141" type="curve" smooth="yes"/>
      <point x="578" y="115" type="line" smooth="yes"/>
      <point x="568" y="106"/>
      <point x="559" y="107"/>
      <point x="548" y="117" type="curve" smooth="yes"/>
      <point x="478" y="177" type="line"/>
      <point x="462" y="163" type="line" smooth="yes"/>
    </contour>
    <contour>
      <point x="620" y="154" type="line" smooth="yes"/>
      <point x="641" y="134"/>
      <point x="661" y="134"/>
      <point x="679" y="153" type="curve" smooth="yes"/>
      <point x="704" y="178" type="line" smooth="yes"/>
      <point x="713" y="188"/>
      <point x="717" y="197"/>
      <point x="712" y="207" type="curve"/>
      <point x="688" y="214" type="line"/>
      <point x="697" y="207"/>
      <point x="695" y="199"/>
      <point x="688" y="191" type="curve" smooth="yes"/>
      <point x="664" y="168" type="line" smooth="yes"/>
      <point x="654" y="158"/>
      <point x="645" y="159"/>
      <point x="634" y="169" type="curve" smooth="yes"/>
      <point x="560" y="233" type="line"/>
      <point x="545" y="218" type="line" smooth="yes"/>
    </contour>
    <contour>
      <point x="523" y="111" type="line"/>
      <point x="530" y="104"/>
      <point x="526" y="95"/>
      <point x="520" y="89" type="curve" smooth="yes"/>
      <point x="493" y="62" type="line" smooth="yes"/>
      <point x="485" y="54"/>
      <point x="473" y="54"/>
      <point x="465" y="62" type="curve" smooth="yes"/>
      <point x="293" y="219" type="line" smooth="yes"/>
      <point x="281" y="232"/>
      <point x="273" y="247"/>
      <point x="271" y="256" type="curve" smooth="yes"/>
      <point x="260" y="295" type="line"/>
      <point x="486" y="522" type="line"/>
      <point x="652" y="409" type="line" smooth="yes"/>
      <point x="663" y="401"/>
      <point x="679" y="386"/>
      <point x="691" y="372" type="curve" smooth="yes"/>
      <point x="884" y="149" type="line" smooth="yes"/>
      <point x="891" y="141"/>
      <point x="894" y="130"/>
      <point x="883" y="120" type="curve" smooth="yes"/>
      <point x="862" y="99" type="line" smooth="yes"/>
      <point x="853" y="89"/>
      <point x="842" y="90"/>
      <point x="832" y="101" type="curve" smooth="yes"/>
      <point x="642" y="291" type="line"/>
      <point x="627" y="276" type="line" smooth="yes"/>
      <point x="627" y="276"/>
      <point x="817" y="86"/>
      <point x="817" y="86" type="curve" smooth="yes"/>
      <point x="838" y="65"/>
      <point x="858" y="65"/>
      <point x="877" y="84" type="curve" smooth="yes"/>
      <point x="898" y="105" type="line" smooth="yes"/>
      <point x="917" y="124"/>
      <point x="918" y="144"/>
      <point x="901" y="163" type="curve" smooth="yes"/>
      <point x="708" y="385" type="line" smooth="yes"/>
      <point x="693" y="401"/>
      <point x="676" y="418"/>
      <point x="663" y="427" type="curve" smooth="yes"/>
      <point x="502" y="537" type="line"/>
      <point x="529" y="565" type="line" smooth="yes"/>
      <point x="546" y="582"/>
      <point x="546" y="602"/>
      <point x="528" y="619" type="curve" smooth="yes"/>
      <point x="476" y="672" type="line" smooth="yes"/>
      <point x="458" y="690"/>
      <point x="440" y="691"/>
      <point x="420" y="671" type="curve" smooth="yes"/>
      <point x="101" y="352" type="line" smooth="yes"/>
      <point x="82" y="333"/>
      <point x="82" y="314"/>
      <point x="100" y="296" type="curve" smooth="yes"/>
      <point x="154" y="243" type="line" smooth="yes"/>
      <point x="171" y="226"/>
      <point x="191" y="227"/>
      <point x="207" y="242" type="curve" smooth="yes"/>
      <point x="242" y="277" type="line"/>
      <point x="250" y="250" type="line" smooth="yes"/>
      <point x="254" y="239"/>
      <point x="263" y="219"/>
      <point x="278" y="204" type="curve" smooth="yes"/>
      <point x="450" y="46" type="line" smooth="yes"/>
      <point x="466" y="31"/>
      <point x="491" y="30"/>
      <point x="507" y="46" type="curve" smooth="yes"/>
      <point x="536" y="74" type="line"/>
      <point x="543" y="82"/>
      <point x="549" y="93"/>
      <point x="544" y="105" type="curve"/>
    </contour>
  </outline>
</glyph>
<glyph name="uni261A.salt" format="1">
  <advance width="1000"/>
  <unicode hex="E146"/>
  <outline>
    <contour>
      <point x="716" y="198" type="line" smooth="yes"/>
      <point x="716" y="186"/>
      <point x="722" y="179"/>
      <point x="733" y="179" type="curve"/>
      <point x="829" y="179" type="line" smooth="yes"/>
      <point x="840" y="179"/>
      <point x="847" y="186"/>
      <point x="847" y="199" type="curve" smooth="yes"/>
      <point x="847" y="586" type="line" smooth="yes"/>
      <point x="847" y="598"/>
      <point x="840" y="604"/>
      <point x="829" y="604" type="curve"/>
      <point x="734" y="604" type="line"/>
      <point x="722" y="604"/>
      <point x="716" y="598"/>
      <point x="716" y="586" type="curve" smooth="yes"/>
    </contour>
    <contour>
      <point x="508" y="100" type="line" smooth="yes"/>
      <point x="516" y="95"/>
      <point x="527" y="96"/>
      <point x="533" y="105" type="curve" smooth="yes"/>
      <point x="584" y="176" type="line" smooth="yes"/>
      <point x="608" y="210"/>
      <point x="618" y="227"/>
      <point x="641" y="246" type="curve" smooth="yes"/>
      <point x="705" y="300" type="line"/>
      <point x="705" y="521" type="line"/>
      <point x="551" y="590" type="line" smooth="yes"/>
      <point x="527" y="601"/>
      <point x="505" y="601"/>
      <point x="482" y="598" type="curve" smooth="yes"/>
      <point x="144" y="552" type="line" smooth="yes"/>
      <point x="135" y="551"/>
      <point x="130" y="544"/>
      <point x="130" y="534" type="curve" smooth="yes"/>
      <point x="130" y="480" type="line" smooth="yes"/>
      <point x="130" y="470"/>
      <point x="137" y="462"/>
      <point x="149" y="462" type="curve" smooth="yes"/>
      <point x="447" y="451" type="line" smooth="yes"/>
      <point x="476" y="450"/>
      <point x="483" y="432"/>
      <point x="493" y="409" type="curve" smooth="yes"/>
      <point x="515" y="362" type="line" smooth="yes"/>
      <point x="526" y="338"/>
      <point x="525" y="316"/>
      <point x="510" y="278" type="curve" smooth="yes"/>
      <point x="463" y="153" type="line" smooth="yes"/>
      <point x="458" y="140"/>
      <point x="460" y="130"/>
      <point x="467" y="125" type="curve" smooth="yes"/>
    </contour>
    <contour>
      <point x="488" y="246" type="line"/>
      <point x="502" y="283" type="line" smooth="yes"/>
      <point x="509" y="303"/>
      <point x="514" y="319"/>
      <point x="513" y="334" type="curve"/>
      <point x="502" y="347"/>
      <point x="495" y="350"/>
      <point x="474" y="351" type="curve"/>
      <point x="474" y="356" type="line"/>
      <point x="488" y="356"/>
      <point x="498" y="359"/>
      <point x="503" y="364" type="curve"/>
      <point x="481" y="411" type="line" smooth="yes"/>
      <point x="472" y="430"/>
      <point x="466" y="439"/>
      <point x="445" y="440" type="curve" smooth="yes"/>
      <point x="385" y="442" type="line"/>
      <point x="384" y="338" type="line" smooth="yes"/>
      <point x="384" y="306"/>
      <point x="402" y="286"/>
      <point x="424" y="277" type="curve" smooth="yes"/>
    </contour>
  </outline>
</glyph>
<glyph name="uni25D6.v_deco" format="1">
  <advance width="1280.0"/>
  <unicode hex="E167"/>
  <outline>
    <contour>
      <point x="100" y="120" type="line"/>
      <point x="100" y="50" type="line"/>
      <point x="1180" y="50" type="line"/>
      <point x="1180" y="120" type="line"/>
      <point x="1234" y="120" type="line" smooth="yes"/>
      <point x="1259" y="120"/>
      <point x="1270" y="131"/>
      <point x="1270" y="156" type="curve" smooth="yes"/>
      <point x="1270" y="234" type="line" smooth="yes"/>
      <point x="1270" y="259"/>
      <point x="1259" y="270"/>
      <point x="1234" y="270" type="curve" smooth="yes"/>
      <point x="1210" y="270" type="line"/>
      <point x="1210" y="347"/>
      <point x="1147" y="410"/>
      <point x="1070" y="410" type="curve"/>
      <point x="1050" y="524"/>
      <point x="939" y="600"/>
      <point x="640" y="600" type="curve" smooth="yes"/>
      <point x="341" y="600"/>
      <point x="230" y="524"/>
      <point x="210" y="410" type="curve"/>
      <point x="133" y="410"/>
      <point x="70" y="347"/>
      <point x="70" y="270" type="curve"/>
      <point x="46" y="270" type="line" smooth="yes"/>
      <point x="21" y="270"/>
      <point x="10" y="259"/>
      <point x="10" y="234" type="curve" smooth="yes"/>
      <point x="10" y="156" type="line" smooth="yes"/>
      <point x="10" y="131"/>
      <point x="21" y="120"/>
      <point x="46" y="120" type="curve" smooth="yes"/>
    </contour>
  </outline>
</glyph>
<glyph name="uni25D7.v_bevel" format="1">
  <advance width="1280"/>
  <unicode hex="E16C"/>
  <outline>
    <contour>
      <point x="1180" y="436" type="curve" smooth="yes"/>
      <point x="1180" y="520" type="line" smooth="yes"/>
      <point x="100" y="520" type="line" smooth="yes"/>
      <point x="100" y="436" type="line" smooth="yes"/>
      <point x="100" y="411"/>
      <point x="111" y="400"/>
      <point x="136" y="400" type="curve" smooth="yes"/>
      <point x="160" y="400" type="line"/>
      <point x="160" y="323"/>
      <point x="223" y="260"/>
      <point x="300" y="260" type="curve"/>
      <point x="300" y="236" type="line" smooth="yes"/>
      <point x="300" y="211"/>
      <point x="311" y="200"/>
      <point x="336" y="200" type="curve" smooth="yes"/>
      <point x="944" y="200" type="line" smooth="yes"/>
      <point x="969" y="200"/>
      <point x="980" y="211"/>
      <point x="980" y="236" type="curve" smooth="yes"/>
      <point x="980" y="260" type="line"/>
      <point x="1057" y="260"/>
      <point x="1120" y="323"/>
      <point x="1120" y="400" type="curve"/>
      <point x="1144" y="400" type="line" smooth="yes"/>
      <point x="1169" y="400"/>
      <point x="1180" y="411"/>
    </contour>
  </outline>
</glyph>
<glyph name="uni25D7.wings" format="1">
  <advance width="900.0"/>
  <unicode hex="E17E"/>
  <outline>
    <contour>
      <point x="192" y="-370" type="curve" smooth="yes"/>
      <point x="668" y="-370" type="line" smooth="yes"/>
      <point x="694" y="-370"/>
      <point x="704" y="-359"/>
      <point x="704" y="-334" type="curve" smooth="yes"/>
      <point x="704" y="-180" type="line"/>
      <point x="844" y="-180" type="line" smooth="yes"/>
      <point x="870" y="-180"/>
      <point x="880" y="-169"/>
      <point x="880" y="-144" type="curve" smooth="yes"/>
      <point x="880" y="864" type="line" smooth="yes"/>
      <point x="880" y="889"/>
      <point x="870" y="900"/>
      <point x="844" y="900" type="curve" smooth="yes"/>
      <point x="704" y="900" type="line"/>
      <point x="704" y="1054" type="line" smooth="yes"/>
      <point x="704" y="1079"/>
      <point x="694" y="1090"/>
      <point x="668" y="1090" type="curve" smooth="yes"/>
      <point x="192" y="1090" type="line" smooth="yes"/>
      <point x="166" y="1090"/>
      <point x="156" y="1079"/>
      <point x="156" y="1054" type="curve"/>
      <point x="156" y="950"/>
      <point x="100" y="900"/>
      <point x="3" y="900" type="curve" smooth="yes"/>
      <point x="-40" y="900" type="line" smooth="yes"/>
      <point x="-40" y="-180" type="line" smooth="yes"/>
      <point x="-4" y="-180" type="line" smooth="yes"/>
      <point x="97" y="-180"/>
      <point x="156" y="-229"/>
      <point x="156" y="-334" type="curve"/>
      <point x="156" y="-359"/>
      <point x="166" y="-370"/>
    </contour>
  </outline>
</glyph>
